<mxfile host="app.diagrams.net" modified="2023-01-10T10:09:08.359Z" agent="5.0 (Windows NT 10.0; Win64; x64) AppleWebKit/537.36 (KHTML, like Gecko) Chrome/108.0.0.0 Safari/537.36" etag="fAXp1Vk6Q-DdTogl6DwI" version="20.7.4" type="github">
  <diagram id="CxQfbasi5NkKN1bEu-eG" name="第 1 页">
    <mxGraphModel dx="4231" dy="1032" grid="1" gridSize="10" guides="1" tooltips="1" connect="1" arrows="1" fold="1" page="1" pageScale="1" pageWidth="827" pageHeight="1169" math="0" shadow="0">
      <root>
        <mxCell id="0" />
        <mxCell id="1" parent="0" />
        <mxCell id="6sMWLwifyxSvyEsc5ir4-1" value="1.标品是什么？为什么标品只能单规格&lt;br&gt;2.edit接口，规格更新日志处理；商品修改日志记录&lt;br&gt;3.UPC（商品的条形码），某些商品不存在UPC&lt;br&gt;4.SKU&lt;br&gt;5.selling_status(1-上架，2-下架，3-推荐)&lt;br&gt;6.商品结算价（1个）和商品规格零售价（多个，存在多个规格）&lt;br&gt;7.限价和锁价&lt;br&gt;8.门店商品库-批量编辑分类（请先筛选出自增商品）和品牌商品库-批量编辑分类不同（删除现有分类，增加新的品牌分类）&lt;br&gt;9.适销类型&lt;br&gt;10." style="rounded=1;whiteSpace=wrap;html=1;strokeWidth=2;fillWeight=4;hachureGap=8;hachureAngle=45;fillColor=#d5e8d4;sketch=1;strokeColor=#82b366;" parent="1" vertex="1">
          <mxGeometry x="70" y="50" width="410" height="370" as="geometry" />
        </mxCell>
        <mxCell id="6sMWLwifyxSvyEsc5ir4-2" value="1.品牌库-查询接口&lt;br&gt;2.接口名字：/productBrand/query&lt;br&gt;&lt;br&gt;注解：使用RequestParam、UnitWeight" style="rounded=1;whiteSpace=wrap;html=1;strokeWidth=2;fillWeight=4;hachureGap=8;hachureAngle=45;fillColor=#dae8fc;sketch=1;strokeColor=#6c8ebf;" parent="1" vertex="1">
          <mxGeometry x="590" y="60" width="200" height="110" as="geometry" />
        </mxCell>
        <mxCell id="6sMWLwifyxSvyEsc5ir4-5" style="edgeStyle=orthogonalEdgeStyle;rounded=0;orthogonalLoop=1;jettySize=auto;html=1;" parent="1" source="6sMWLwifyxSvyEsc5ir4-3" edge="1">
          <mxGeometry relative="1" as="geometry">
            <mxPoint x="685" y="386" as="targetPoint" />
          </mxGeometry>
        </mxCell>
        <mxCell id="6sMWLwifyxSvyEsc5ir4-3" value="调用productBrandService的query方法，将我们的isPriceUp、category、productName、upc、brandId、sellingStatus、unitWeight、minWeight、maxWeight、minPrice、maxPrice、priceControl、pageNum、pageSize、type、backCategory、image、specificationFlag传进去" style="rounded=1;whiteSpace=wrap;html=1;strokeWidth=2;fillWeight=4;hachureGap=8;hachureAngle=45;fillColor=#d5e8d4;sketch=1;strokeColor=#82b366;" parent="1" vertex="1">
          <mxGeometry x="580" y="180" width="210" height="130" as="geometry" />
        </mxCell>
        <mxCell id="6sMWLwifyxSvyEsc5ir4-8" value="是" style="edgeStyle=orthogonalEdgeStyle;rounded=0;orthogonalLoop=1;jettySize=auto;html=1;" parent="1" source="6sMWLwifyxSvyEsc5ir4-6" edge="1">
          <mxGeometry relative="1" as="geometry">
            <mxPoint x="909.9999999999998" y="450" as="targetPoint" />
          </mxGeometry>
        </mxCell>
        <mxCell id="6sMWLwifyxSvyEsc5ir4-10" value="否" style="edgeStyle=orthogonalEdgeStyle;rounded=0;orthogonalLoop=1;jettySize=auto;html=1;" parent="1" source="6sMWLwifyxSvyEsc5ir4-6" target="6sMWLwifyxSvyEsc5ir4-9" edge="1">
          <mxGeometry relative="1" as="geometry" />
        </mxCell>
        <mxCell id="6sMWLwifyxSvyEsc5ir4-6" value="判断最小重量和最大重量是否为空，重量单位是否为空" style="rhombus;whiteSpace=wrap;html=1;strokeWidth=2;fillWeight=-1;hachureGap=8;fillStyle=cross-hatch;fillColor=#d5e8d4;sketch=1;strokeColor=#82b366;" parent="1" vertex="1">
          <mxGeometry x="585" y="390" width="200" height="120" as="geometry" />
        </mxCell>
        <mxCell id="6sMWLwifyxSvyEsc5ir4-12" value="是" style="edgeStyle=orthogonalEdgeStyle;rounded=0;orthogonalLoop=1;jettySize=auto;html=1;" parent="1" source="6sMWLwifyxSvyEsc5ir4-9" edge="1">
          <mxGeometry relative="1" as="geometry">
            <mxPoint x="910" y="660" as="targetPoint" />
          </mxGeometry>
        </mxCell>
        <mxCell id="6sMWLwifyxSvyEsc5ir4-16" value="否" style="edgeStyle=orthogonalEdgeStyle;rounded=0;orthogonalLoop=1;jettySize=auto;html=1;" parent="1" source="6sMWLwifyxSvyEsc5ir4-9" target="6sMWLwifyxSvyEsc5ir4-15" edge="1">
          <mxGeometry relative="1" as="geometry" />
        </mxCell>
        <mxCell id="6sMWLwifyxSvyEsc5ir4-9" value="判断最小重量和最大中否是否不为空且最小重量是否大于最大重量" style="rhombus;whiteSpace=wrap;html=1;strokeWidth=2;fillWeight=-1;hachureGap=8;fillStyle=cross-hatch;fillColor=#d5e8d4;sketch=1;strokeColor=#82b366;" parent="1" vertex="1">
          <mxGeometry x="585" y="600" width="200" height="120" as="geometry" />
        </mxCell>
        <mxCell id="6sMWLwifyxSvyEsc5ir4-13" value="抛出一个错误：”重量最大值不可小于最小值“" style="rounded=1;whiteSpace=wrap;html=1;strokeWidth=2;fillWeight=4;hachureGap=8;hachureAngle=45;fillColor=#d5e8d4;sketch=1;strokeColor=#82b366;" parent="1" vertex="1">
          <mxGeometry x="910" y="620" width="160" height="80" as="geometry" />
        </mxCell>
        <mxCell id="6sMWLwifyxSvyEsc5ir4-14" value="抛出一个错误：”请选择一个单位“" style="rounded=1;whiteSpace=wrap;html=1;strokeWidth=2;fillWeight=4;hachureGap=8;hachureAngle=45;fillColor=#d5e8d4;sketch=1;strokeColor=#82b366;" parent="1" vertex="1">
          <mxGeometry x="910" y="410" width="170" height="80" as="geometry" />
        </mxCell>
        <mxCell id="6sMWLwifyxSvyEsc5ir4-18" value="是" style="edgeStyle=orthogonalEdgeStyle;rounded=0;orthogonalLoop=1;jettySize=auto;html=1;" parent="1" source="6sMWLwifyxSvyEsc5ir4-15" edge="1">
          <mxGeometry relative="1" as="geometry">
            <mxPoint x="979.9999999999998" y="890" as="targetPoint" />
          </mxGeometry>
        </mxCell>
        <mxCell id="6sMWLwifyxSvyEsc5ir4-21" style="edgeStyle=orthogonalEdgeStyle;rounded=0;orthogonalLoop=1;jettySize=auto;html=1;" parent="1" source="6sMWLwifyxSvyEsc5ir4-15" target="6sMWLwifyxSvyEsc5ir4-20" edge="1">
          <mxGeometry relative="1" as="geometry" />
        </mxCell>
        <mxCell id="6sMWLwifyxSvyEsc5ir4-15" value="判断最小重量是否不为空" style="rhombus;whiteSpace=wrap;html=1;strokeWidth=2;fillWeight=-1;hachureGap=8;fillStyle=cross-hatch;fillColor=#d5e8d4;sketch=1;strokeColor=#82b366;" parent="1" vertex="1">
          <mxGeometry x="585" y="830" width="200" height="120" as="geometry" />
        </mxCell>
        <mxCell id="6sMWLwifyxSvyEsc5ir4-19" value="对最大重量进行赋值，如果前端传过来的最大重量为null，就赋值为1000000" style="rounded=1;whiteSpace=wrap;html=1;strokeWidth=2;fillWeight=4;hachureGap=8;hachureAngle=45;fillColor=#d5e8d4;sketch=1;strokeColor=#82b366;" parent="1" vertex="1">
          <mxGeometry x="980" y="845" width="160" height="90" as="geometry" />
        </mxCell>
        <mxCell id="6sMWLwifyxSvyEsc5ir4-23" value="是" style="edgeStyle=orthogonalEdgeStyle;rounded=0;orthogonalLoop=1;jettySize=auto;html=1;" parent="1" source="6sMWLwifyxSvyEsc5ir4-20" edge="1">
          <mxGeometry relative="1" as="geometry">
            <mxPoint x="889.9999999999998" y="1140.0000000000002" as="targetPoint" />
          </mxGeometry>
        </mxCell>
        <mxCell id="6sMWLwifyxSvyEsc5ir4-26" style="edgeStyle=orthogonalEdgeStyle;rounded=0;orthogonalLoop=1;jettySize=auto;html=1;" parent="1" source="6sMWLwifyxSvyEsc5ir4-20" target="6sMWLwifyxSvyEsc5ir4-25" edge="1">
          <mxGeometry relative="1" as="geometry" />
        </mxCell>
        <mxCell id="6sMWLwifyxSvyEsc5ir4-20" value="判断最大重量是否不为空" style="rhombus;whiteSpace=wrap;html=1;strokeWidth=2;fillWeight=-1;hachureGap=8;fillStyle=cross-hatch;fillColor=#d5e8d4;sketch=1;strokeColor=#82b366;" parent="1" vertex="1">
          <mxGeometry x="585" y="1080" width="200" height="120" as="geometry" />
        </mxCell>
        <mxCell id="6sMWLwifyxSvyEsc5ir4-24" value="对最小重量进行赋值，如果前端传过来的最小重量为null，就赋值为0（Bigdecimal类型）" style="rounded=1;whiteSpace=wrap;html=1;strokeWidth=2;fillWeight=4;hachureGap=8;hachureAngle=45;fillColor=#d5e8d4;sketch=1;strokeColor=#82b366;" parent="1" vertex="1">
          <mxGeometry x="890" y="1090" width="180" height="100" as="geometry" />
        </mxCell>
        <mxCell id="6sMWLwifyxSvyEsc5ir4-28" value="是" style="edgeStyle=orthogonalEdgeStyle;rounded=0;orthogonalLoop=1;jettySize=auto;html=1;" parent="1" source="6sMWLwifyxSvyEsc5ir4-25" edge="1">
          <mxGeometry relative="1" as="geometry">
            <mxPoint x="919.9999999999998" y="1389.9999999999998" as="targetPoint" />
          </mxGeometry>
        </mxCell>
        <mxCell id="6sMWLwifyxSvyEsc5ir4-31" style="edgeStyle=orthogonalEdgeStyle;rounded=0;orthogonalLoop=1;jettySize=auto;html=1;" parent="1" source="6sMWLwifyxSvyEsc5ir4-25" target="6sMWLwifyxSvyEsc5ir4-30" edge="1">
          <mxGeometry relative="1" as="geometry" />
        </mxCell>
        <mxCell id="6sMWLwifyxSvyEsc5ir4-25" value="判断最小价格和最大价格是否不为空且最小价格是否大于最大价格" style="rhombus;whiteSpace=wrap;html=1;strokeWidth=2;fillWeight=-1;hachureGap=8;fillStyle=cross-hatch;fillColor=#d5e8d4;sketch=1;strokeColor=#82b366;" parent="1" vertex="1">
          <mxGeometry x="585" y="1330" width="200" height="120" as="geometry" />
        </mxCell>
        <mxCell id="6sMWLwifyxSvyEsc5ir4-29" value="抛出一个错误：”价格最大值不可小于最小值“" style="rounded=1;whiteSpace=wrap;html=1;strokeWidth=2;fillWeight=4;hachureGap=8;hachureAngle=45;fillColor=#d5e8d4;sketch=1;strokeColor=#82b366;" parent="1" vertex="1">
          <mxGeometry x="920" y="1340" width="180" height="100" as="geometry" />
        </mxCell>
        <mxCell id="6sMWLwifyxSvyEsc5ir4-33" value="是" style="edgeStyle=orthogonalEdgeStyle;rounded=0;orthogonalLoop=1;jettySize=auto;html=1;" parent="1" source="6sMWLwifyxSvyEsc5ir4-30" edge="1">
          <mxGeometry relative="1" as="geometry">
            <mxPoint x="879.9999999999998" y="1630" as="targetPoint" />
          </mxGeometry>
        </mxCell>
        <mxCell id="6sMWLwifyxSvyEsc5ir4-36" value="否" style="edgeStyle=orthogonalEdgeStyle;rounded=0;orthogonalLoop=1;jettySize=auto;html=1;" parent="1" source="6sMWLwifyxSvyEsc5ir4-30" target="6sMWLwifyxSvyEsc5ir4-35" edge="1">
          <mxGeometry relative="1" as="geometry" />
        </mxCell>
        <mxCell id="6sMWLwifyxSvyEsc5ir4-30" value="判断最小价格是否不为空" style="rhombus;whiteSpace=wrap;html=1;strokeWidth=2;fillWeight=-1;hachureGap=8;fillStyle=cross-hatch;fillColor=#d5e8d4;sketch=1;strokeColor=#82b366;" parent="1" vertex="1">
          <mxGeometry x="585" y="1570" width="200" height="120" as="geometry" />
        </mxCell>
        <mxCell id="6sMWLwifyxSvyEsc5ir4-34" value="给最大价格赋值，如果前端有传过来最大价值，就直接赋值，没有就赋值1000000" style="rounded=1;whiteSpace=wrap;html=1;strokeWidth=2;fillWeight=4;hachureGap=8;hachureAngle=45;fillColor=#d5e8d4;sketch=1;strokeColor=#82b366;" parent="1" vertex="1">
          <mxGeometry x="880" y="1590" width="170" height="90" as="geometry" />
        </mxCell>
        <mxCell id="6sMWLwifyxSvyEsc5ir4-38" value="是" style="edgeStyle=orthogonalEdgeStyle;rounded=0;orthogonalLoop=1;jettySize=auto;html=1;" parent="1" source="6sMWLwifyxSvyEsc5ir4-35" edge="1">
          <mxGeometry relative="1" as="geometry">
            <mxPoint x="919.9999999999998" y="1890" as="targetPoint" />
          </mxGeometry>
        </mxCell>
        <mxCell id="6sMWLwifyxSvyEsc5ir4-41" style="edgeStyle=orthogonalEdgeStyle;rounded=0;orthogonalLoop=1;jettySize=auto;html=1;" parent="1" source="6sMWLwifyxSvyEsc5ir4-35" target="6sMWLwifyxSvyEsc5ir4-40" edge="1">
          <mxGeometry relative="1" as="geometry" />
        </mxCell>
        <mxCell id="6sMWLwifyxSvyEsc5ir4-35" value="判断最大价格是否不为空" style="rhombus;whiteSpace=wrap;html=1;strokeWidth=2;fillWeight=-1;hachureGap=8;fillStyle=cross-hatch;fillColor=#d5e8d4;sketch=1;strokeColor=#82b366;" parent="1" vertex="1">
          <mxGeometry x="585" y="1830" width="200" height="120" as="geometry" />
        </mxCell>
        <mxCell id="6sMWLwifyxSvyEsc5ir4-39" value="给最小价格赋值，如果前端有传过来最小价格，就直接赋值，没有就复制0（Bigdecimal）" style="rounded=1;whiteSpace=wrap;html=1;strokeWidth=2;fillWeight=4;hachureGap=8;hachureAngle=45;fillColor=#d5e8d4;sketch=1;strokeColor=#82b366;" parent="1" vertex="1">
          <mxGeometry x="920" y="1845" width="160" height="90" as="geometry" />
        </mxCell>
        <mxCell id="6sMWLwifyxSvyEsc5ir4-43" value="是" style="edgeStyle=orthogonalEdgeStyle;rounded=0;orthogonalLoop=1;jettySize=auto;html=1;" parent="1" source="6sMWLwifyxSvyEsc5ir4-40" edge="1">
          <mxGeometry relative="1" as="geometry">
            <mxPoint x="899.9999999999998" y="2130" as="targetPoint" />
          </mxGeometry>
        </mxCell>
        <mxCell id="6sMWLwifyxSvyEsc5ir4-46" style="edgeStyle=orthogonalEdgeStyle;rounded=0;orthogonalLoop=1;jettySize=auto;html=1;" parent="1" source="6sMWLwifyxSvyEsc5ir4-40" edge="1">
          <mxGeometry relative="1" as="geometry">
            <mxPoint x="685" y="2300" as="targetPoint" />
          </mxGeometry>
        </mxCell>
        <mxCell id="6sMWLwifyxSvyEsc5ir4-40" value="判断sellingStatus是否为”0“" style="rhombus;whiteSpace=wrap;html=1;strokeWidth=2;fillWeight=-1;hachureGap=8;fillStyle=cross-hatch;fillColor=#d5e8d4;sketch=1;strokeColor=#82b366;" parent="1" vertex="1">
          <mxGeometry x="585" y="2070" width="200" height="120" as="geometry" />
        </mxCell>
        <mxCell id="6sMWLwifyxSvyEsc5ir4-44" value="给sellingStatus赋值”“" style="rounded=1;whiteSpace=wrap;html=1;strokeWidth=2;fillWeight=4;hachureGap=8;hachureAngle=45;fillColor=#d5e8d4;sketch=1;strokeColor=#82b366;" parent="1" vertex="1">
          <mxGeometry x="905" y="2080" width="165" height="100" as="geometry" />
        </mxCell>
        <mxCell id="6sMWLwifyxSvyEsc5ir4-48" style="edgeStyle=orthogonalEdgeStyle;rounded=0;orthogonalLoop=1;jettySize=auto;html=1;" parent="1" target="6sMWLwifyxSvyEsc5ir4-47" edge="1">
          <mxGeometry relative="1" as="geometry">
            <mxPoint x="685" y="2420" as="sourcePoint" />
          </mxGeometry>
        </mxCell>
        <mxCell id="6sMWLwifyxSvyEsc5ir4-51" value="是" style="edgeStyle=orthogonalEdgeStyle;rounded=0;orthogonalLoop=1;jettySize=auto;html=1;" parent="1" source="6sMWLwifyxSvyEsc5ir4-47" edge="1">
          <mxGeometry relative="1" as="geometry">
            <mxPoint x="890" y="2570" as="targetPoint" />
          </mxGeometry>
        </mxCell>
        <mxCell id="6sMWLwifyxSvyEsc5ir4-54" style="edgeStyle=orthogonalEdgeStyle;rounded=0;orthogonalLoop=1;jettySize=auto;html=1;" parent="1" source="6sMWLwifyxSvyEsc5ir4-47" target="6sMWLwifyxSvyEsc5ir4-53" edge="1">
          <mxGeometry relative="1" as="geometry" />
        </mxCell>
        <mxCell id="6sMWLwifyxSvyEsc5ir4-47" value="判断价格控制是否不等于null且值为1" style="rhombus;whiteSpace=wrap;html=1;strokeWidth=2;fillWeight=-1;hachureGap=8;fillStyle=cross-hatch;fillColor=#d5e8d4;sketch=1;strokeColor=#82b366;" parent="1" vertex="1">
          <mxGeometry x="585" y="2510" width="200" height="120" as="geometry" />
        </mxCell>
        <mxCell id="6sMWLwifyxSvyEsc5ir4-49" value="定义最大价格控制和最小价格控制（double类型）" style="rounded=1;whiteSpace=wrap;html=1;strokeWidth=2;fillWeight=4;hachureGap=8;hachureAngle=45;fillColor=#d5e8d4;sketch=1;strokeColor=#82b366;" parent="1" vertex="1">
          <mxGeometry x="587.5" y="2310" width="195" height="110" as="geometry" />
        </mxCell>
        <mxCell id="6sMWLwifyxSvyEsc5ir4-52" value="设置最大价格控制值和最小价格控制值" style="rounded=1;whiteSpace=wrap;html=1;strokeWidth=2;fillWeight=4;hachureGap=8;hachureAngle=45;fillColor=#d5e8d4;sketch=1;strokeColor=#82b366;" parent="1" vertex="1">
          <mxGeometry x="900" y="2540" width="120" height="60" as="geometry" />
        </mxCell>
        <mxCell id="6sMWLwifyxSvyEsc5ir4-56" value="是" style="edgeStyle=orthogonalEdgeStyle;rounded=0;orthogonalLoop=1;jettySize=auto;html=1;" parent="1" source="6sMWLwifyxSvyEsc5ir4-53" target="6sMWLwifyxSvyEsc5ir4-55" edge="1">
          <mxGeometry relative="1" as="geometry" />
        </mxCell>
        <mxCell id="6sMWLwifyxSvyEsc5ir4-53" value="1.定义一个产品id的List&lt;br&gt;2.判断最大价格上限是否有效" style="rhombus;whiteSpace=wrap;html=1;strokeWidth=2;fillWeight=-1;hachureGap=8;fillStyle=cross-hatch;fillColor=#d5e8d4;sketch=1;strokeColor=#82b366;" parent="1" vertex="1">
          <mxGeometry x="585" y="2750" width="200" height="120" as="geometry" />
        </mxCell>
        <mxCell id="6sMWLwifyxSvyEsc5ir4-55" value="新建一个Example（品牌商品规格的clas文件）" style="rhombus;whiteSpace=wrap;html=1;strokeWidth=2;fillWeight=-1;hachureGap=8;fillStyle=cross-hatch;fillColor=#d5e8d4;sketch=1;strokeColor=#82b366;" parent="1" vertex="1">
          <mxGeometry x="930" y="2750" width="200" height="120" as="geometry" />
        </mxCell>
        <mxCell id="zdTmi9DSN5Jlk_BLVy8j-1" value="" style="shape=image;verticalLabelPosition=bottom;labelBackgroundColor=default;verticalAlign=top;aspect=fixed;imageAspect=0;image=data:image/png,iVBORw0KGgoAAAANSUhEUgAABN4AAAEqCAYAAADKyp2OAAAgAElEQVR4nOzdd1hT1x8G8BdBQTYIigKCe+ECN86KuIqrWqtWrbZ1tHXWVmvdo3W0WrFD/bVatNparXvvhRsUQREVBdlD9ggY5PcHzSUhGxIB+36ep8/TJDc3d5ybeF++5xyDwsLCQhAREREREREREZFOVSnvDSAiIiIiIiIiInoTMXgjIiIiIiIiIiLSAwZvREREREREREREesDgjYiIiIiIiIiISA8YvBEREREREREREekBgzciIiIiIiIiIiI9YPBGRERERERERESkBwzeiIiIiIiIiIiI9IDBGxERERERERERkR4weCMiIiIiIiIiItIDBm9ERERERERERER6wOCNiIiIiIiIiIhIDxi8ERERERERERER6QGDNyIiIiIiIiIiIj1g8EZERERERERERKQHDN6IiIiIiIiIiIj0gMEbERERERERERGRHjB4IyIiIiIiIiIi0gMGb0RERERERERERHrA4I2IiIiIiIiIiEgPGLwRERERERERERHpAYM3IiIiIiIiIiIiPWDwRkREREREREREpAcM3oiIiIiIiIiIiPSAwRsREREREREREZEeMHgjIiIiIiIiIiLSAwZvREREREREREREesDgjYiIiIiIiIiISA8YvBEREREREREREekBgzciIiIiIiIiIiI9YPBGRERERERERESkBwzeiIiIiIiIiIiI9IDBGxERERERERERkR4weCMiIiIiIiIiItIDBm9ERERERERERER6wOCNiIiIiIiIiIhIDxi8ERERERERERER6QGDNyIiIiIiIiIiIj1g8EZERERERERERKQHDN6IiIiIiIiIiIj0gMEbERERERERERGRHhiV9wYQERERVQarDpT3FhC92eYNKe8tICIi0j0Gb0REREQamjGgvLeA6M204Vh5bwEREZF+sKvpf1hhYSEehD7BL1t24cix8xDl5ev9M58+jYJXv/Fo3ro/vPqNx9OnUTpdf2paBt57fyaat+6P5q3749btYJ2uv7Jbt2GrcGzWbdha3ptTYfyXj4u+r0kiIiIiIqL/Mr1WvOXnv0TI/UfIy8uHoZEhmjdrCHMzU31+JGnh0eMIfDJtCRKTXgAAZs2YgI8mjICBgUE5b5l6bFsVh/S5AIAmTerD1sZKq3VEx8QjKioOAGBhYY5mTevD0NBQ59tKpZeVnYMHoU9QIC7gNVcJiPLyERgYAv9rgQgKCkViUgqiY+Lh5OgAGxsrONSyQ8cOrdGzR0fUdrCvFN/7RERERESVkV6Dt/sPHmPypwuRnZ2LPr098e2Kz/X5caSl6Oh4IXQDgMePI5CXlw8TE+Ny3CrNsG1VHNk5uVjz/f9wLzgMAOD32xrYtmup1Tpu3rqHBYvXAwDeHtALyxbPYPBWwSQmvMD8Bd8jNi4RdWrXxJafV8C8PoO3iiY//yWOHjuP9Rt/R3Jyqtzr0THxiI6JR3BIGE6f9cfW3/diy88rUL++czlsLRERERHRm09vwVtBQQFOn/FHdnYuAKCvdzeYmlbX18dVGIWFhYiLT4KJibHWVT+vW716TnB1cUREZAyMjIzQzsOtUoRub1rbyszKRnJyKuq5OpX3phBRJZaSkoZFy3xx7vy18t4UIiIiIiL6l96Ct+QXabh+8y4AwK1FI7TzcNPXR1UIIlEedv55CP/sP4mIyJhSVf28bvXrOWPrlm/xLCIa1taWaNK4fnlvkkbelLZ18fJN/O63DwF37uODcUMxe8bE8t4kIqqkcnJysXbdrzKhW+NGrnh/9GB4dnaHSXUT4fkXL1LhfzUQ+w+eQlZWTnlsLhERERHRf4begreAwBA8DHsKAOjdqwvs7Wz19VEVQq4oD6fP+iMiMqa8N0UrDg72cHCwL+/N0Mqb0rYCAkNw41ZQeW8GEb0BAu/cx9HjF4XHEz8Yjs8+GQsT42pyy9pYW6JhAxeMHTMEYY+ewsys8lYMExERERFVdHoJ3nJycnHy1GUAQE37GujZoyMHbiadYNsiIpL18qUYp8/6QywWAwA6dmiNjye+qzB0k1aligGaNW3wOjaRiIiIiOg/q4o+Vhr26BmuXg8EAHT19ODYVaQzbFtERLJEojzExCYKj1u6NYaVlUU5bhERlUZaWgamz1yEZxFR5b0pREREpEM6r3iTHvjeyMgI/by7oVq1qlqtIzs7F3HxiUhNzUD9ek6wsbFGlSqKq5pevSpEamoanj6LBgC1yytTWFiIrKwcpKVlIDomHqam1eHsXBtWluavbXZFyTZEPo9FZmYWnBwdYG9vW+YJD169KkRmZhZeFRaiuolxmddXUFCArKwcREXHIzMzC/b2tqhV0w7m5qZ6rT7TRdsqKChAamoGnkVEo1q1qqhbtw6sLC0qZXsBis+t9Lmwt7OFhYW51vskfS2V5diUF12dW229fCkWzkFOTi6cHB1ga2td6u57ur6+pL9XsnNyUNepNuzsbFG1ql4ntVZI+hzZ2FjCydFB5feRSJSH6Jh4JCWlwN7eVu3yyuj6HL18KUZaegYiImJQrVpVuLo4wtLSXCfff5LfP8k+13aoqXY7xQUFyMrKLvNnlweRKA9JSSmIjonXyW+eSJSH1NR0PI+OQxWDKnB1dYSFuVm5TRx08NApLFu+XuPlFy2chcGDvOWe9924FS4uTjKvHTx0CpGR0Zg+TXZ8UFWfOX7cCLnlNZGWloEZsxZj2ND+CrdP4llEFNb/8D8sWzIH1taWMq+JRCIsX7EBw4b2h//V2/Ds0g4eHq1kPmPRku8wa+bHqOeqeJZdyXaEhDxE7do1sdF3hbCs9PHw3bgVftv3KN3Ofn17YuGCGTAxMVG6jDYOHjqFmzfvYOGCGbh//xH27T8urF+T/ZKwtrZE77e6YsnSddiwfqncMVTFd+NWJCQkqd2vynyciYiIKiud33nFxibiwqUbAAAP9xZo6dZEbpnUtAxM/WwR7gWHAQD8fluD9u1aIio6Ht+v/w3nLlwXuswAQN26dfD13Knw7OIh3ETn57/E0eMXsPHnHYiPT5JZf926dTB7xgR4veWp8qa7sLAQ0TEJ+GffCew7eArJyalyy1hammPi+HcwdswQVK8u+w+Hp0+jMOmTBYiNS5R73/gPv5R53KplE/zy4zLYKPhHVH7+S1y+chsbf96OR48j5F7v2KE1Pp85ES2aN1J6Yye9LXVq18SWn1egXj0n+F8LxIpvf8bz57Fy26HsPChSUFCAwDsPsPPPQ7h4+Sby8vLllmncyBWfz/xQ5jzpkiZtS5ncXBF27DyArX7/ICMjS+Y1Bwd7TPtkLAb276kyyCtrexGJ8rBo6QYcOXZe7n2/bt2DX7fK/uNV1fmIio7Hr1t34+TpK3L7AwB2djaY/NF7eO/dgWqDQHXX0vRPx6Fvn66vNVBURFl7VXdup3w8CoN8eqvtdqeNV68KcefufezYeVDl9TD+/aHo17e7XFsoSR/XV26uCIePnsOm//0ld16l26mu7TtwCgsWF930vz2gF5YtnoEqVaoobGNGRkZ4d3h/TJ00CjVq2AjPK/stMDIywpBBXvjsk/dR076Gyu0Q5eXj6tUA7Nh5EAF37susR0KT71ZpUdHx2PLrXzhy7LzcOZI+PwcOnZY7BqqCn1evCnE7MBi/bN6FGzflx31Ud+6rmxijrnMd4doIDnmE9PRMrave7tx9gEmfLBBmjP7lx6Xo0a2D2vfl5OTiqwXf4/RZfwDAwvmfYtTItwEo/m2qX99Z6Tk2Nq6Gd4cPwKQP35VpE6rk57/E6bP++H37Ptx/8FjudSMjI3Rs3woL53+KunXraLROXRk8yFsuqNIk+FAWaCgK1KSXkw7WpEM5SVji4uIEj/b95dbh5tZUZdBjbW2JJYtnY8mS79GqVTOl233vXigaNnBVGxh5dmmHxUu/lwl0SlJ0DNRtp8Skj0cjISEJw4b2lwn3ACAg4B78r97WWRiUlpaBffuPY/pnE7Ra57OIKEybvgBxCv4NCQC9+4yUe05ZMAsA48YOx4xZi3H//iO5fValshxnIiKiykznwduVqwHCBAPeXl01/of/9Rt3MXPOSoUhwvPnsfh0xlIsXTgNQwb3QW6uCN+u2Yx/9p9UuK7nz2MxZ+5qzPtiEkaNfFvpDdX2Pw7g+x+2Krwhk8jIyMIPG/1w63Ywvlnxuc4H8k9JScPyb38Wxi1T5MbNIIwe9zlmTf8A494folEAUohCHDh4GouXb1S5f5rIzMrGVwu+l5ktT5FHjyPw6YylmDJpFCZ/NFLnQU1p29aziGjM+/o7BIeEKXw9Pj4JXy9ah7Pnr2HZoumwtbVWuFxFaC/5+S+x869D8P1xu8JwRiI5ORVB9x7inaF9VZ6HtLQMrPj2Zxw7cVHh68+fx2Le198hIjJGL+e0rDQ5t0uW++LSlVsqz6020tIysPq7LTh4+KzK5R49jsDXi9fjrz3HsHLZLDRs4KJwOX1cX9Ex8Vi45AeFIQ4g204nfjBc5eeWlWS2TUXHSywWY9dfh/H4SQS+Wz0P9na2uH7jLr6cv0ZhsC0Wi7F33wmEP32Otavmok7tmgo/MzYuETNmr1AYwki7cTMIYyd8gSULp2PQ228p/a0oLCzE8ZOXsGzljwp/o4Di8zNr+gdaVdLl5ORi4887sPPPw0q/Wx49jsDkTxfi/dGDMXPaeJiayq7fxMQYLd0aC6H+jZtB2LHzAKZOHq3VNdukcT106eQuBGjnzl9Dl07uaqsjI5/HIuDOfQCAq4sjunbxULpsIQpx7vw1zF+0TuGxzMvLx46dB/AwLFxoE6o8CY/E0hU/IiAwROkyYrEY/tcCkZD44rUGb+qCFX//W3LPSaqLpk+bKFOZpk3Fmyo9uneCp2d7mdDvWUQUdu8+CBOToj9OBATcw6Qpc5WuY/iISXLPjR83ApM+Ho2bN+/gxMkL8Nu+B56e7RXu54mTF2TWJamKKsnHpw+ehEdg2ZI5CA+PgO+P24QwyHfjVgQEBmPD+qXYvmOvTHDkt30Pxo8bgVq17BEdEy8XCEXHxMPFRXfDVFy8dB1Ojg4QifJkQk3p/QSKj8OWTauFbapf3wV/bN+odWWbqiozZeeush9nIiKiykynwVt6eiZOnbkCQP0/vqWFPgzHX38fAQCMe38IOndqi5wcEc6c9cfps1chFoshFoux4cftaNDABZcu38Q/+0/C2LgaRrzTH55d3PHypRjnzl/D8ZOXkJeXD7FYjC2/7kab1s3QvFlDhZ/7IiVVuNFp0bwR+nh5onmzhjCsUgVp6ZnYt/8k/K8VjSfmfy0Qf+4+gk+njBFuZIyMDFG/njNq1LCBWCzG02dRQhhSv54zzMxMhc9yrFMLVUrc1CUlp2D+gu+FzzA2rob+fbvjrV6dYWZaHTGxCTh4+CwCAkMgFoux3vd3WFtZYMjgPmqrM54/j8W27fsgFothaWmOus61kZMj0uh8lCQWFyA5OUXYRs8uHujds5MwG+qjxxH48+8jeP48FmKxGNv89sK9TXN06timVJ+nSGnbVkJCMn78ZQeCQ8Lg4GAPnwG94O7eAgBwOyAEBw+fEW7wz52/BgtzUyyc/6ncjS1Q9vZiYGCAGjWshUq9uPhE4bPt7GxQ20E2RDAuUaGVk5OLHzb64Y9dB4XnLC3N0aNbB/Ts0RHWVhaIj0/C9ZtBuHj5ptpjk5WVg7XrfsWxExdRt24dDBvijebNGiIzMxuHDp+F/7VA4drb/sd+eHZ2R+tWTdUf9NdE1bkNDLyPw8fOC9VV6s6tpkpes0BRNVKf3p5wc2sMQ0NDPAh9gtNn/IXQJzgkDNNnLYfv+oUKwzddX19JySn4etE63LodLDzn4e4Gby9PNGzggrT0TJy/cB2nz/rD/1ogkl+kQqQixC2LvLx8bPltNw4ePgsPdzcM9ukNBwd7PAh9gn0HTgmVuLduB+PXrXswdHAfLFv5I5KTU9GqZRMMH9YPjnVq4dHjCOw/eEqoCL5z9wH8duzHl59/pDBYEuUWdTcE5K+RglevcPfuA/z9z3EkJ6ciLy8fG3/ajpYtGqN+fcWVN0eOnceipRuE73dj42ro09sTvXp2grWVBZ6ER+LUGX8EBIZgve/vaOnWWKPjk5OTK/NHJCMjI3h2dscgn96wtrJAWnqmzLX4x66DsLQwUxio9ezeEXv+OYEn4ZEAgJ8370LY42f48vNJcHZy0Gh7TE2ro0f3DkLwFnDnPhISk+HkqPr9l6/cQkpKGgDAvW0L1Kplp3TZq9cC8dOmncjLy8fbA3qhV89OsLAwQ9C9h/hn/0nhmr11Oxg//bIT8+dOUVqJHBAYgrnz18pUnUt/NxcUFCAk5BEuXLqpNoTVF0XBirKKN8nzQFG3zC3/24VxY4fD2tpSYbgmCeGkuzlKVxf5bd8jVw1nYlINFuZmSHmRKnx2yotUmJqayry3NF0EAwLuAQD8L+9X+D7prqYlQxrpMMnf/5bw+ePHDsfa737BwgUz4OHeEtt37IWLixMSEpKw+ZdvYWJigunTJmLSx6OxfMUG1KplLxwrScVVyW24efMOhg2Vr/orDelqNw+PVgi4dRwBAfdK3dVUciykQ1ZJt0/JZ0iHspLXPNxbygW1ksBMuu1V1uNMRERU2ek0eAsOCUNAYNFfvdu3ayncOKqzau1mtHRrgp98l8gMlt/Puxv8rwViztxVyMjIQmLSC8yZuwqpaelwdXHE+u++RpPG9YTle/fqjAH9e8osf+r0FTRr2kBpUNX7rc6YM+tD1HWuI7eMt5cnftm8Cz9v3gUAOHHyEoYO6gNn59oAirrhbfllBQD5bnCLF0xT2k0QKOpa9uvWPcINvKuLI1at/AKtWsp2nxw6uA/+3nsc367ZXHTTvX0f2nm0FLZBmb/3HkdUdBwWff0Zhg3xFm5cMjOzYWqqfdm/kaEhZk4bj1Hv+cDC3Ezmtc6d2mJA/x6YM3cVbt0ORnZ2Lo4cOw/3ti20HoNNmdK2Ld+ftiM+IRnTPx2HD8a/I9PdsEe3Dvjwg+EyFV9Hj19Ez+4d0de7m8L1laW9GBtXw9w5xZUC6zZsFbqXDhnkhdkzlFctFBYWYv/B0zKh28gRA/HZ1DFy3bGGDvFGZlY2bgeEqAxoDxw6A7G4ABM/GI7PPhkrc2z6eXfD+QvXhaqUjIwsHDl2Hm4tGlWYqjfJuf185kSMHTNEpq316NYBE8a/I1OZpu7cqpOf/xI//bJTJiifO2eSzPUFAF27eOCjCe/i/IXrWLpyI5KTUxERGYMNP/rhm+Wfy10/gO6uL5EoDz/4/i6EbpaW5lixdBbe6tlZpoti/77d8SQ8El8vWq+0WlAXTp/1h5GREb6Y/ZFMtW7XLh4Y/Z4Plq/8CYePngMAHDx8BmfPXUVsXCKmTBqFKR+PEvavc6e2eGdYX5nlz567ipHDBygNyywtzfHJlDEY0L+nXDfjrl080K9vd0yftRwRkTGIjUvE6bP+mFRvpNw18/RZFH7ZvEsI3dzbNMfK5bPhUtdRWKZzp7YYM2owjh2/gBWrfsaduw/UHhvJNS0J3SwtzfHNstno1bOTzDaUvBb/+PMQunVtLxeCOzvXxvy5U2Qqx8+eu4Yr/gGYOmmUwralSHuPlnB1cUREZAyePo3CveAwlcFbenomrt24CwBqx95MTErBet/f4eTogLWr5sr8fnft4oEx7/nIfB9fuHgDo0a+LbOcRHx8Er5ZvUkI3erUrolFX3+Grp7tZNp6j24dMHXyGASHhGm0//pw63YQ5n31jfB41bfzARQFXkuWrkNIyEOZ5wHAxMQEnl3aYfuOvZg+baLC6jZJQNOhfVEIv3zFBpmwTLrbqeT9JiYmchVK/ldva1SZVDJQKinoXiiio+Pg2W2o8PmeXdrJVWBJV4JJujROnzYR48YOFwIqG2srTJ76lXBsSlaPSZ6TdL2Mi09C0L0H8O7TQ3jdtoYNcnJyIBKJhO2Ni09CZlY2GjRwVbu/mti+Y6+wjaUVHh4Bvx17hXHxXFycEBkZLfP6ixcpsJX6rS85jl9IyEOFVXCS7qqS41RZjzMREVFlp7PgLT//JU6cugyxWAwjIyP06e2p8eDdlpbmmDPrQ7kZKg0MDNC5YxuMfs8Hm7b8CaCodN3MrDrmz5sq949xyfLDBnvj9x37AAAhDx4jKysHFhby/+AeMaw/HB0dlI6XZGhoiME+Xjh24iIiImOKbkQiotSGXpq4FxyGfQeKb7gWff2ZXOhWvA29ERAYgmMnLuJJeCSuXA0Qxs9RJDYuEbFxiVi+ZCaGDfGWuYlTdBzUqW5ijHXfzVc5ppK9nS1Gjhgo3PA/CH2C1LQM1KqpehwmTZSlbUXHxOOTyaPx8YfvKgyMrK0tMfeLSUhKTsGt28EQi8U4duIiunVtJ1cZVZ7t5dHjCPzvt7+Fx59MHq2yG5mFuRl69eiocp0iUR4G+/TGJ5NHywUTBgYG6NG9Awb7eGHHzgMAim6q0tMzddJdUxck5/aDccOUntsvZn+E+IRk3LgZpPLcaiLwzn0cPV7Ulc/IyAiL5n+qtPq0ShUD9H6rM4xNqmHWnJXIzs7FxUu3cPVqoFzwp8vr625QqFAZamRkhLmff4zevTor3MaGDVywctksIXzSF5+BvTBq5Nty58jczBSTP3oPAYEhiI1LFALeAf164KMJI+TCG3MzU0z8YDhu3AxCYtILxMYl4kl4pMLgzc7OBlu3fKuy+1aD+nUx2McLG370AwAE33+EnByRTDfRgoIC7P3nhHB8XF0csWTRdJnQTaJKFQMMHNATL1++1KiLf3R0PHb+eQhA8bkqGboBxdfieyMGYstvu5GRkYWTpy4rDME7dmiNjesX4asF3wmBVF5ePn7Y6Ietfv9g4vh31AZwderURM/uHYXf0KvXAuH1VhelYdqjxxHCH0XUjb0pFothamqC5UtmKgzTrK0tMfGD4bgdEILEpBdITHqB+w8eyy1bUFCA7X8cQOjDcABF50VZRSlQdG7Ko1q3nqszfH9YBgDo43VceD4tLQOHj5yGbQ0b+G2THbOtj1fx94OHRyv4X70Nj/b9lU6K4OTogNq1ayocS04Zzy7thAolkUiEnJwctGrVTKP3njh5QWE4s2XTakycMBKjRw2WqWoLCLgn08VR+rW0tAys/e4XuXXt3n0QmZnZsLKywN49W1SOASdx714o4uIS4bd9j1DpVfvfP9DFxScJ69B0DDpNHDx0Ck/CI4QutaVVw84W6emZCA+PgIdHKzg5OmDf/uNIS8uAtbUlomPi0bpVc2F/JFSN91ZyOxWpLMeZiIjoTVBFVyt6FhGNK/4BALQf+N7rrS5K/1FsaGiIzh3bwsioOGjp26cbOrRTPHCsoaEhOnZsLTyOT0hCekamwmWdnWurHaTc3t4Wbi2Kuw0lJqaoXF4TL1+KceDQaWEA69Hv+aisjjM1rQ5vr67C49sBwcjNVd1ttGOH1vB6q4tOZtkzMTFWO5A5ADRtXF8YcyktPROZmYrHQtJWWdqWW4tGeHfEAJVVWpJQQyLgzn1E/tsFTlp5tZfCwkJcuHgDiUkvAADtPNzw3rvyQYa2atrXwAfj3lEaQhkaGsLrrS7CtZeSko60NMXXUnnQ5Nza2lpj7OjBwmNl51adly/FOH7yonDN9vPuhv79eqi9vjq0a4W+fYpupMViMS7730Z+/kuZZXR1fZVmGxs2cNHLBAsSZmbVMXxYP6UTC9SpUxPubVvILD9m1CClbdLJ0QFuUt04I6SqQqRZWpqrveEzMDCQ+ezExGTk5eXJLBMXn4RLUuNTjR0zRGm4I1mnl5cnenRXfyN+/ORFIdBTd64MDQ2LhiD4NxS8HRiM9HT5a9HAwADt27XE7p0/YPR7PjK/m5Jx/QYO/hj7D5ySa4fSn9XHy1P4rMA795GQkKxw2YKCApyXmhzhrZ6d1I69OWywN9xaNFL6ev16zujQvvj3XdE5lp5oBwA+mviuyvNS3gIC7sGjfX/hv1u3i8ZeTHmRivETZgnPS7pqShw8dAp+2/fAza0pxo0dLrcev+17MGnKXJnnpEMWv+17hOelq6Nsa9jgSXgE0tIyEPdv196SoY4y/fr2hP/l/UVdKqX+02Ywf2W279gLf/9bMDU1xcoVc+H7wzKVXTOnT5uIwYO8kZaWgbPnrmDE8IEYP24Ehg3tLwR6fby64969UADF3R89u7Qr87aKRCJERkZj/rzPylRJWad2TTjUsoOHe0tEx8QDKDo/KCxEalq6sM0dOrRV2u33WUQU3h40Xmg/vhu34u1B4/EsIkrh8pXpOBMREb0pdFLxVjIY0GbgewBo3aqZyi6JNWytUdPeVvgLfof2rVQuX9O+BmxtrZGSkgZRbh7y8xTfYGjCxMQYDg7F49VERWt/015SSmo6gkMeASi60ezZvaPaEKV+fWc4ONgjPj4JzyKikZGZrXKmRE1ugHTNxtYKdnY2iI1LRHx8ElJTM8q8zrK2rd69umg0wYGHuxuaNqmPh2FPkZKShqioODRr2kDr7dVHe0lNy5AZs61/3x6ws9Nstj9V3Nwaqx27SfraS0xKQVp62c+prmh6blu0aFzmcyt9zQJFfyxQNUulRLVqVdG9a3vsO1B0M1yWSlB111dpt7FN62bC96Wu1XN1gouKwexLXi9NGtVD/XrKbwBNTKrJBARZ2Tll2r4attaoU7smYuMShWBZuqIz/OlzPH1adPOq6diSFuZm6NCuFc6eUz5ZRnZ2Lu5pea6cHGuhnqsTQu4/RmxcEhISXyitPq1RwwZfz5uKkSMGwPen7TLbkpyciq8Xr8eho+ewfMlMhd8B9es5w61FY9y4GYSIyBjcCghWWLn7IiUNtwOLqjBr2tdAh/at5ZYpqXu39ip/70q2iaSkFOTl5cuMeXkrIFgILd1aNEJXT83G/CwvkrG/pEkq20pWvAHFY6HVqmWPgFvH4btxq4WJ2FMAACAASURBVNDlVLIe6WWUTa6gqKspUFSJ17CBK8LDI+B/9TaaNWssF+rUqmWv9WyU0uOHnTh5AbVr18SY0cPkquRKdjWVvNfc3Ayenu3h49MHgPpJHiSTFFy8dB0NG7gKXTQHD/JGZGQ07t9/hBYtGsP/6m2kpWXg4qXrAIp+E8pKMuaZSFT0R1CRKA9fL1itdD+B4skVJBWAKS9SkZmZDQBwcXHCzZt30Ne7O2ysrQADA6S8SIWNtRUys7IVViS++De4dXJ0wN6/NwvnS3ostqB7D9DVsz2aNSva58p2nImIiN4UOgnekpJTcPb8VQDaDXwv4eoi321HmrW1BWxtrYTgreQg9CUZV6sm13VOnYKCAqRnZCEqKg6xcYkIffgEwcGPEBObIPwVUlcSEpIRFR0HAHB2qg1zc1OkpqkONLKyim8wMzKykJ2VA6i4eW/aRPvQSFMiUdHA5c+j4xAe/hxPwiMRcv8RnkfFKZ3xr7TK2raaNq2vUdWfuZkp6tSphYdhTwEACYmKKzwkXnd7eR5V1F5sba3RprVmXYLUcalbR+14f9Jhj1gsRkHBK518ti5oem4tLcxQz9VJ43OriPQ16+Bgr3RcMUWkQ/PEpBSkpKSpDN5Ke32VdhtL832pKVcXJ7Xdep2dioO5OnVqyU0qIs3Q0BDVq6sPE0vKzs5FSkoaIqNi8SQ8EmFhT/HocYTMhDiKPJeqjmzWtIHGgbf0xDqKpKalC5VcNe1rwM7ORu1vQEZmNgoLi/4/JSVN5jdBEQMDAzRq6ArfdQvxJDxSLoC7cTMIk6YuUDi2qJWVBby9ugqz4l6/cRcD+vWQCwdDH4Yj5H7RpAVdPT3khosoycHBXqNj6Co13lhBwSsUSnYcRd+9ki6mQNEf7mpUkO7vJambfVKZ8eNGYOWKucI6AgLuwcraUuh6CBRVY2ZkZCIzK1vmeU1Jxl6TVNNJk/yGScK9kgGS9GPJLKz1XJ1lAh9tu5pOnzYRaWkZuBt0X1i3h0crLFo4S25sO8lYc5JgJzc3F+PGDhcCH8n6JHx8+mDhojV4FhGFpYs/1zpQ1ISJiTFWrpgrnDdNSQLOVq2a4ey5KxCJ8mFiUg1Ojg7CebAwN1NYkVjj367KAQH3hHH1pC1aOAsrV8yVqYKs7MeZiIiostJJ8HY7IET4x3fP7h1Rp47qYExbBlWqoEoVnfWKFRQWFiL0YTi2/LobFy/fVHkDpkupaelCd7CHYU/x9pBJat6hnTq1a+r8RiQ//yVOn/XH79v3vdbZ4cratkyrazaWl6FhFZhKVRAmJct3ES2v9pKVlSNUI9Wpba+TcfOAon3WRVfk8qLpuTUwMJCpsFF0btXJyckVrtma9rZyE1qoYmJiLAScygITXVxfeXn5wjba1bCGrY1Vqdbzuhka6v67HQByc0X4e+9x7N5ztNRj2Em3FQcHe40qCDWRmZktdNtOTHqB9z+Yo5P1KiIJ4DZ8vxDBIWH4bv1vCAgMAQBERMZg6YqN+GnDYrkJa7p28RAmWbh56x4in8fKjLWWn/8Sp88UzX6qblIFiSoGBqhiULbz/fKlWKabbeNG9SrMhC8lSc8+KU3RRAklSUIvANjwwzJs2rwdqWnpQsB2+PBpfDD+XUTHxOPipetKx/oqWc3kt30PtmxajQYNXOHm1hQe7i3lQrvIyGiZyRYkFU8lSc/CqoomFW/K9PXujuUrNuDgoVMYPMgbAQH34PvjNmxYv1QIdt4bOVjlOg4fPo2r1wKwaOEsnXSJVUckEuGHDb9i5MjBqOfqrPR8S09qYWNtJTPOW61a9oiMjEZkZLTKbqYSJWehVTaumzKV8TgTERFVJmW+48nJycXJU5cBFHWb7OPlWWH/ESxNlJePDRv98N77s3DqzBW5EMXJ0QEd27fGRxNHoG2b5jr97BcvdN+lS5+iY+Ix+dOF+GLearlQwMjICI0buaJPb09MGP+ORmNVaaoita3ybC+SKiYAqFKlCgz0EEKXt4pUSaeIpNq2NMzMTGGuogJKV9fXf6GdaCrk/iOMHDMTq7/bIhe6GRtXQ7OmDTDYpzdGjXxbZjIFaSJRHuLji6sjdRlUS4fpr4tkgoFfflyKMaMGCc+HPgzH3/8cR0FBgczyderUhOe/FcaJSS8QeOe+zOsJCcnCc24tGqF5c+XjtulSrigPz6OKKxH1FdzqSslx2STjrUmPv6ZojLYt/9uFWrXssXLFXJiYVENmZjZSXqQCKApVEhKS0KJFY/To3glnz12RGc/Ld+NW4TP8r95GwK3jWLRwFsaPG4GAW8dhW8MG74+bhn59eyIhIUkmpElLy8CT8AiNJ1tQRiTKg+/GrUhJTRfGhfO/vB/9+vbElk2rEXDrOM6e3q12uAMTExN8MWcq9u0/Do/2/bFv/3Fs/kX1xCnF2yDC1wtWIyAwGGdP7xaOTcllVq3+Uel4aNqSDkxtrIv++NHXuzsSEpLw9YLVUl1TZSe1KFnlJpl9VNNzceLkBXh2G6pwTD9N6Ps4ExER/deVueIt7NEzXL0eCADo0sld4UxlFU1BQQG2/r4XW34r+geCkZERfAb2wpBBfdCwoQusLC1kBtFft2Er7tx9oLPPl74Jd3VxxMzpH2g1OK+hkSFq1tJdwKVKSkoaFi75QehyZGdng/dHDcJbvTqjtkNNmZvW1LQMBASGCOOxldXrbFuFhYUyN57S56i820tlExUdp3KyEMXvKb6RtrKy0HjWWk2UPLeajAtXkqrgTJ3s7BylY5GV5/X1pnr6LApffrVGCNzq1q2DiePfQeeObWFvbytTtfb0aRQuXropVAq+LsbG1WBmVh3Z2bmwtbXG7BkTNB7cXqJBg7ql+mxzM1NM/2wc4hOShK6nFy7ewMgRA2WqaQ0NDdGjW3vs3nMMYrEY12/cxWCf3kLXYelx1np06wAbzl6olHQ1ku/GrXBxcRKqivbtPy7zmoR0dVRcfBKio+NgW8MGvhu3IiEhSXiPiYkJZs38GNOmL8DSxZ/Dw6OV0ko7oCi0W7Z8vTAjZlpaL8yYtVioyAoPj5Dr2qhq/K/atWWr0EWifETHxGP6zEXYsml1aQ+Z1PpEWPvdLwgJeQiguFpOurpLEUmln3S3Xckx92jfX6jiMzExQR+v7pg2fYHQZba00tIyMGPWYgwb2l+mAtHExKRoEoONWzF56lfYsH4pwsMjkJmZLRxnyTLSFJ0LZUpWvEkrWcGoiL6PMxER0X9dme5uCwoKcPqMv3DT0te7m9rxfCqC2NhEHDl6DkBRiLJ04TQMGdzntXW7s5HqAmZiYozWrZrprPugrl2/GSSEAq4ujvBdv/C1zB73uttWbq5IpmJIuttVebcXZ6fiQc1T0zKQnp5ZoW5yTYyrwbFOLdwLDgNQNC5WYWGhxscnLy8fSUnFXfrs7Wx0WtlY8tyWZtIR6WtW23MgEuUhJ6eoysHBwR42NsXv0+X1Jd1OsrJzkJ2dU6HayetQWFiI02f8hUCofbuW+G71vFKFrcbG1WBvX/y+9PRMvHwp1kkobG5mCitLC+H7rVnTBqWazKW0LMzN4DPgLSF4Uzb2YEu3JvBwb4EbN4OEGYGbNW2AnJxcXLxUNOFLTfsa6Nmj42v7PqxuYoy6znWE7xtdj6lZHvYfOInvvt8EADJhlfQYcXM+n4Jffy2ugpNWz9UZf2zfiBmzFsPDvaXS0M1v+x7Url0Te/dsEQIma2tLbP7lWyxfsQHrf/gfkpNTMGxof5iYmAjVWdp0NU1NS4eVlQXOnt4Na2tLuZlagaKJYMZPmIWQkIfo17cnTEyqCYFgv749YWNtJUxUIBlDTnqfn0VEYfi7kxEXlygzgYTEwUOn8L9fd8rsp4SHRyv4X96P5Ss2CKGnh0crfPzRGCxZug4b1i/Verw8oOh7fu13v2D6ZxOUBk3Tp02E78at2Pb7buE4i0T5mDz1KyHwUkS6a66i/fXwaCX3mdJdjCXHEEC5HmeO+UZERP9lZbqDkJ7RzK1FI7TzcNPJRulb6MNw4cbMw70F3urVWelNQ8lQQBdsbCyFwdajouOQkJBcIYO3ly/FuHHzrvB4sI8XGtRXXmWRnp6pdoBwTemqbcXFa9ZFMDomAc8iigY7NzOrLjO4d0VqL3FxRZUP6iYkeZ2KZiEsDiqDgh8iIyNL44ArLT0TYY+eCY+bNKmv0ft0cW41ZW9vC2fn2oiKikNUVBwin8dofA5iYhMQH58EAHCoZSfMRKnr68vc3FSYnTQhIRkpKelqu3EBQFRMXJm60lYkWVk5uBUQLDweOWKgytAtLT0DiUquVwMDA1hZmguPY2ITIRLlqQ3eSg7+r4j0hEFlmUW5LKTDZGVjD0pPspCSkobLV26hWdMGiIqOR9C9oqBAk0kVdKlkIBoe/hw5ObkV9o9+JUMR6fBC+rVR78mPnyVfuaZ8jC1ra0uFM6QK7xzkrXQcOEXVVqqel/5M3x+WyTxXz9VZ5rmS+y9Zn2RWV2Xbp2qignquzjhyyE/ueen3K9tXQPF+SWbolIyxpinpdXl6tle7vKJQVNV5U0bV/gGKZ9KVvK88jzMREdF/VZkGR5Ee+L53ry6lqiooD9LdvuztbFXOolcyFNCFWjXtUL9e0V8Hs7Nzce36HZlZ2yqKgoIC5ObmCY/t7W1VVjVEPo9BVFSc0te1oau2dfPWPeTnv1S5TGFhIa5dvyNUnzRq6Aonp+LAoiK1F7FYjDPnrqndp9fJwMAArVsWD5AdEHgfd++Favx+/6sBwoyj9es7qwyfpJXm3Lq1aAyXunVUvkeRmva2aNq4OBA8f+GGRudAegB6AGjTqpkQ5uj6+qpVyw51nYuq3jT9XsnPf4nzF26o3Y/KQlxQgKysbOGxuu+N+w8eQywWK31dOgQOuheKJ+GRarchKSlFbjy0kiwszGWCtktXbr32azont7h7bclKTGnubVsIYwvevB2MzMxsXLx0Q+jy3L1re7WTKuhSye+bG7eC8PiJ+vNCpM70aRPZLZKIiIj0otTBm/TA96+7q4ku5eSKlA7sXlhYiDNn/YVQQJUqBgYwkuoep6oax9zcFO09isfA2vPPcY1u6ICi4KW8QrpsJeNUAUBmVjb27juhk8/RZds6c+6q2pvgJ+GR2PNP8V+Ge/XspLSLnq7aC1DUbVUiKSlF6SypFhZm6N2rs/D46PHzuHlbvvtOeWrTphncWhQNri4Wi7F67RaN2vST8Ej8uvVv4XF3z/Yaj3VVmnPbpbM7LKWqmDRlalodfb2LKzQ0PQeBd+7jzLmrANRPEFLW68vK0hxtpAbh1uR75ebtezh6/LzKZSoz6XCppPj4JBw4dEbl+5s1bSC06+zsXOz88xBycpSvs6CgAHv3nVBb8Va1qhE6dmgjPD55+rLG13RBQQFevZL9DUhPz8TefSeQmyvSaB0iUR6OHivuvuZSt47SkLKeqxO6ehZNshB0LxR3g0Jx83ZxNXKbNmUbhL80pL9vMjKysGPnAZXnhYiIiIioPJU6eJMe+P51dzUpqxo1rIX/v3HzLgLv3JcLs169KsTRYxew8ecdGq3TxMQYzs7FYyypqsYxMDDAgH49hLGcYuMSsWDxDypvkgsKCnDx8k2sWrtFaUCja1WrGsl0Fzx56rLQZU5aVnYOfH/cLowXVFa6bFsZGVlYtvJH3A0KVRhYPgmPxILFPwhd7Zo1bQCfAb1kgj59tBcAMl0Vg+49RGKi8kHz+/bpio4dWgMoCgDmzF2FI0fPy92AS7x4kYoDh868trZib2eLwT5ewuOIyBh8NnMZLl6+KTdbIlDcnqd8ukjoxuvq4ojh7/TTeHw3XZxbbXh2dodnZ3cARedg/sLvcfbcNYXnoLCwEHeDQrFs5Y/IyMgCAAwb0hetWjYRltH19WVoaIi+3t2EYFHV90phYSFu3Q7GkmW+r31iAX2qVrUq7KQCpEOHzyqc2CIx6QVWrPpFbUBWsl0fO3ER631/V7jO/PyX+H37Pmz57W+51xQp2Z6WLPPFrdvBSv+w8upVIYLuPcTCJT8gPSNT9rXCQuzddwJD3/0U+w+cQnp6psJ1AEUh3fc/bMWRY8WBq9dbXZQG0tWqVUU/724wMjJCdnYuDh05K/xxobwq3Wva18CYUYOFP14cO3ERX85fq3TikVevCnH5ym08CH3yOjeTiIiIiAhAKcd4kx743sjICP28u73WriZlJaliCLn/GNnZuZg+ezneHz0YfXp7onZtezwIfYK9+07g4qVb6Ni+FezsbHDw8FmV6zQ2roZWLZsKyx06cg6FhYXw7tMVhoaGePYsCoPe7i3caDs718bHH76LRUs3IC8vH8EhYRgxajr69+2Ot3p1RpNG9WBkZIiIyBgE3n2Ao8fOIyIyBm8P6KX34yNRcla7wLsP8MHH84QZAgHg2o072PXXYTx6HIExowYh6F6o0EW0NHTdtnr16IjL/gEYN/FL9OvbDd5eXWFmWh35L1/C/2og9vxzXAinLC3N8cXsj2TGKwP0014AoEnj+qhpXwOJSS8QERmDL75ajfdHD0YNW2tERcfBrUVjNG/WEABga2uNr+dNxfRZyxERGYOMjCx8OX8Nft32N4YO9kbjRq4AgOycXJy/eANnz11F967t0c+7m6pN0BkDAwMMHdwHIfcfCfv+/Hkspn62GHZ2NmjbujkaNSwKmh8/icSdoAdITk4V3m9sXA2TPx6lVciqi3OrDSsrC8z9YpJwDpKTUzFt1jJ4uLthsE9vONapBaCou/Ghw2fhfy1Q6Mbo2dkdH00cIRMq6uP6cmvRCOPeH4of/w2AJd8rI97pD88u7qhWtSqyc3Jx6swVnDhZVFU6/dNx2LvvxBsxzpuZWXV4dnbHufNFIeXxk5cQE5uA8WOHoU2rpsL18efuI0hOTsVHE0fg2PGLSvfdwMAA/ft2x5lzV4VJMHb+eQiX/W9j1LtvC9ddVHSccJ6aNW2Abp7thFmQlbGyssCkj95D2ONnSE5ORWxcIj6cPB+end0xyKc3GjV0gZWVBSIiYvAg9AmOHDuP+w8ey4S3JT1/HouvF68HFq9H/XrO6NC+FWz/Hcut4NUrhIQ8wu3AEJlAvq93Nwzy6a0ykG7evBHcWjTC3aBQHD1eVClna2uN7t3al1ul+9sDeiIqKhY/b94FADh3/hr8rwYIv6Fm/4759uhxhHDs/H5bUy7bSkRERET/baUK3mJjE3HhUtG4QB7uLdDSTfmNQEVU074GZs+YiJlzViIjIwt5efn4bdse/LZtj8xyDRu4YN6Xk3HwsOruSBJdu3igYQMXPAmPhFgsxv6Dp7H/4GkAQKuWTfD2wLdkln97QC8YGhoKVTF5efk4cOiMyu5PxsbVXuuNTudObTHpw3eFm5vnz2OxZPlGueXeGdoXH4wbhs+//LZMn6frtjV2zBA0a9oAP2/ehSNHz+PIUcXd6iwtzbHo68+EqjJp+mov9Vyd0LNHR/y99xgA4F5wGL78qvjGsORNYsMGLljz7ZeYv3CdUMX06HEEVn+3RaPP0zdT0+r4+qtPYG5uhp1/HhKeT05Oxemz/jh91l/h++zsbLB00Qz07N5Bq7ati3OrrYYNXOC7fiG+XrQewSFFsyoGBIYgIDBE6XsG+/TG3DmTFM6Up+vry9DQEBM/GI6cnFxs/X0vgKIJP/7YdRB/7Doos6yRkRG++nIy3Nu20Fk38YpgsE9v3At+KATA94LD5I6bkZERpkwahd69OuPY8Ysq12dra43lS2Zi3vy1CLz7AEDReVJ03bm6OOKb5Z/j/gPN/vjQvl1LrF87H3Pnr0VsXCLEYjEuXr6Ji5dvKn2PsXE1VNHgOnn6LApPn0WpXEbSNi3MzVQuZ2NtiR7dOuBuUPHYjR5tW5RqvERdMTQ0xEcfjoRYXICtfv9ALBZr9BtKRERERPS6laqr6ZWrAUL3MG+vrhrPXliRdOzQGr9uWgkPd/nZMo2MjDCgXw/8unmlxgO9A0VVbOvWfqV4nYaGcjdLki6ne/7cCG+vrjJjfpXk4e6Gn3yXYOH8T1UO7q9rhoaGmPTRe1i5dBbs7GzkXre0NMfcOZOwcP6nOplVTtdty9DQEFMnj8a3K+YorHYyMjKCt1dX7PlzIwb066E0+NFHe6lWrSrmzP4QY8cMkTv3RkZGMDSUvzzdWjTG7p0/YO6cSUqrt4yMjODZ2R0jRwx4rW0FAMzNTPHVl1OwY9ta9H6rs8o27eBgjzmzPsTBfzahVynG8dPVudVWwwYu+P3XVViycJrKCjoPdzf8b9NKrFz2ucLQTbIPur6+TIyrYfaMidj803LUVRKMeLi7Ydf27/HeuwNRVcU5qoxMTatj0defYea08Qrbv4ODPVatnIMpH4/SeN+dHB3wv00rMXPaeIVdMo2Nq2HsmCHYsW0tmjSup9X2eri7YffOHzB2zBCV12vjRq5YuXQWNv24TO570cbaEt+v+QqfTn1f7Wy7xsbV4O3VFX/v2qCybUozMDBAzx4dhUkWgKJKufKeSdTEuBpmTBuPv/5Yr/L7xs7OBjM+G4+mGs6YTERERESkSwaFWo7Un56eiZlzVuLGzSC4ujhi80/LZcY2q2xevSpEUtILRDyPwauCVzA1rY769ZxhYaG6AkCbddrb28KlriOqVlV9kycS5SE6Jh5JSSnCc/b2tnBydICJiXGpt0dXXr4UI/J5jLB9mu6XpvTdtgoKChARGSOMpWZhYY6GDepqdWz10V4AIDMzG0+fRSEnJ1fjdRYUFCApKQWRUbF49e+EDxWpvQBFbTopKQXRMfHCc6am1VG3bh1YWVqgShXNw7DUtAxM/WwR7gUXVZr5/bYG7dsVTVKii3NbGq9eFSI1NQ1Pn0UL3UotLMxRz9UJZmbahRL6uL5KtlcjIyM0aFAXNtaWlXIyHG2JRHl4Ev4cmZlF4+w5OTqgTp2aGo8jqEjJ86Sore3YeQDfrtkMoKiqbMnC6RqF4C9fihEfnyRzvZSmPYlEeUhNTcfz6Djhu8HIyAj1XJ1gY2NZqv0PuvcQkz9diIyMLLi1aIQfNyyWCeIqguzsXDyLiBbOt5GREerXc4KNjbVW3zWqrDoAzBigk1URUQkbjgHzhpT3VhAREeme1nd0wSFhCAgsmknQvW0L1Kplp/ONep2qVDFArVp2Ot2P0q7TxMQYDRu4CJMuVDRVqxrpdfv03bYMDQ3RoH5drarSStJHewGKZi5t3aqpVu8xNDSEg4N9mcYt0zfJpCP6Dud1cW5Lo0oVA9SoYYMaNeSr1bSlj+tLX+21sjAxMRZmv9QVdeepoKAAz6PihMe1a9fUuPK0alUjnVwvJibGqF27JmrXrlmm9UgUFBTg5KnLwkQhXTq5l8ukCuqYmVXX+fkmIiIiIiorrYK3/PyXOHHqMsRicaWcVIEqLrYtInoTvEhJQ9C94rHQtA3UKyLpsTfNzKqjh5bjMb5pNhwr7y0gIiIiospEq+DtWUQ0rvgHAKickypQxcW2RUSVXWFhIU6f8Rdmnm3apD6aNmlQzltVdtJjb3bp5K71OHZvEnaDIyIiIiJtaRW8mZlVx7crPgdQNFhxZZxUgSomti0iqoiSklNQWFiodjyzwsJCnL9wHRt/3iE8179fD9S0r3hdMrURH58kzHprZGSEYUO9y31SBSIiIiKiykSr4M3J0QFOjg762hb6D2PbIqKKKCIiBpM+WYD+fbtjyOA+aOXWRGYihYKCAoQ/jcKfu4/gn/0nhUk22rdriSGDvCpVl8yCggLk5Ihgbm4KAIiIjMGylT8i9GE4AMBnYC90bN+6PDeRiIiIiKjS0c10lERERG+ovLx8HDh0BgcOnQEAGBtXQ/16zsjMzJaZgVSipVsTLFk4vUJOQKDKy5diLP/mJxw5dl7uNVcXR3w4YUSFmTGZiIiIiKiyYPBGRESkhKmpCezsbJCcnCo8l5eXL1SBSTM2roZ3hw/A1EmjYG1t+To3U69aujXBqpVzUM/Vqbw3hYiIiIio0mHwRkSVQhUDAzjWqYXCwqLHxsbVyneD6D+hRfNGOHtiO0LuP8LVa4G4HRCCjMwspKZlCBVtLZo3RJfO7ujYoTUszM3KeYtLz9DQEPXrOaNZ0wZISk6Bq4sjhg7qg359u6N6dZPy3jwiIiIiokrJoLBQchtLREREREREREREulKlvDeAiIiIiIiIiIjoTcTgjYiIiIiIiIiISA8YvBEREREREREREekBgzciIiIiIiIiIiI9YPBGRERERERERESkBwzeiIiIiIiIiIiI9IDBGxERERERERERkR4weCMiIiIiIiIiItIDBm9ERERERERERER6wOCNiIiIiIiIiIhIDxi8ERERERERERER6QGDNyIiIiIiIiIiIj1g8EZERERERERERKQHDN6IiIiIiIiIiIj0gMEbERERERERERGRHjB4IyIiIiIiIiIi0gMGb0RERERERERERHrA4I3K3dFjpzBl6mykp2do9b7IyCi8O3IC7gYFa7T85i3bsGzFWohEeaXZTCIiIiIiIiIirRiV9o3p6RmYO28JfHz6YeAAbwDA3aBgfPPNOqxdswwuLs5Kl1Pm6LFTWL1mg1bb4eXVE1/OmQ4TE2O1y4pEeVjznS9iY+KwetUSWFlZavVZkm308/tTZh+B4v1s27YlJk+aoHIdm7dsw85de7X+bGljRg+X+xxNjvXdoGBMnzEPvhtWoU3rlmXaBmU2b9mGO3eCS32MKxJJmwGgcTtT5W5QMA4dPqGTdRERERERERFRxVbq4E1fmjdrolFgIx2IvC4iUR4CAoPg1rI5atWqKfPas4hIPAgNw5QpqkM3CUWB4d2gYGzatE3l/ut7vyXh3YPQMLXLanquJGGfOj6DRyl9TZuAtSJ78uQZQoIf4Oy5i2qDaCIiIiIiIiKq3Cpc8PYgNExlAFOSl1dPPW6NrISERIQEP8D88JDpeAAAIABJREFU+bORkJCIL75chPiERJlllAVM6kKq9PQMbNq0DY0bN9T5dmvDysoSm35ZJzzevGUbzp69JFfhJyES5WHZirWoVdNOaaVfm9YtcenCUaWfefTYKRw+fOKNqJBTZ/g7g1C9ugn8/P6EW4tmCo8pEREREREREb0ZKlzwVpEr3k6cPANbWxvUc3WBlZUl/t69DYB23UwVEYnysGHjZjwIDcOD0DAcOKg4pPLdsApNmzQu0z5oIzIyCmfPXkLv3t3h4uIsHPNBPv207qaqSdWbssB17pczZLozl1yP5LFDrZqYP382Nm3aprJi78yZCwAUd9d9Hbp6dsLhwyfgt+OvN6KKj4iIiIiIiIgU0zp4KzkO24PQMKxeswFjRg9Hx47tNFqHSJQHv+278N7Id+QCtopa8ZaenoE7d4Lh49NPbpvT0tKRkpKq8f6X5Ld9F86cuaBy3DYAqOfqUrqNLyVJ0PjeyHcAAHl5eYiNiVPbHVYRVVVv2lS8Sa9H0hZLjlcnXbEnIQnslHXx1aQrrCSwU0TVmHklx7yzsrLElCkTMH3GvFKFmERERERERERUOWgdvA0c4I2BA7yVTq6gjqRq6syZC+jYsZ1M6CBZd0V0xf96USjo00/utZD7oQAAG2trrdaZl1c82cMf2zfjm2/X4eixU8IxkA7dJKGNJjNyrl6zQe0kFYqCJunKMkm12/z5s4UwTDowuuJ/XaNzFRkZpbBLriLqAlfp7ZOMt6cJkSgPhw6fULmMQ62aCrvTqptcQbJ/2mrapDGGDB6IJ0+eCdfA5i1FFZTlUYVHRERERERERLqn866m8QmJGDt+ivB46ZKvZF73274LsTFxOHzwT1hZWZZqJlNlNB2AX11VXcnurpGRUfDz+1N4XVmYJL3fipSsaAsNDZOZYfWrebPwxZeLEBAYBG+vnvhy3hKNu95Kkw6oSkOyf717d5erxmrapDG8vHoKY5SVnGSiJBcXZ6FLroQkUExJSVUYdkVGRuGbVeswf95spWOgScbb08TDsEcAgCGDByIrO1uj95SVdJWbIiYmxpg96xPhsaSi8kFomFwgTURERERERESVk86Dt5KVQ+npGdi9ex+A4ooe6a6A5VHlpm2YdeLkGbi1bA5bWxsAsmGSJKQaP36U1vvRpk0rbOrUXnjs4uKM+fNnY/qMeThz5kK5zeR54uQZxCckYueuvdi5a6/K5caPG63xehVV8Cl6/UFoGKZPmwxrayul6wq5HyoEn8q6kErWuWnTNkyZMgE3btx+LcGbSJSHhMRktG3bUuM2Jh28Hjp8Ak2bNObYb0RERERERESVXJmDt7CwJ/Dz+xPjx4+Co2NtpcutXrNBbSXW5i3bVAY9ipSmIkwbd4OCcedOMOZ/NRvffCs/dpikm6lbi2al/gzpwAkonkRhzXe+8O43DEDZq9i0MXnSBLXdHY8eO4WAwCDk5anv+grIVwkqqzgcM3q4wjHapEm6mQ4ZPBDXr9/C1KkfYvfufVjzna9c+PbX7n9Qx7E2mjZpjBs3bmu0rWUlqcYbNH+2Vu9zcXHG+PGjsHrNBo79RkRERERERPQGqFKaN0VGRuHjSTPwIDQMWdnZ2O63SW0opGlw5OXVE6dO7MOlC0eF/8aMHq7w+blfzijN5mslJiYOU6ZMUBrsRUfHwNbWRmV1ljI///IbuvcciLnzlmD1qiXCfrVp3RImJsZYtOALXLpwFKdO7ENAYBC69xyII0dPKl2fZJIHXbsbFIx3R05AZGSU8NzAAd5YtOALGBtrVpUlqRKUPn87/DbB4d+uqpLzO3nSBIhEeVi3/meZz5P2MOwRQoIfoG3bVgAAGxsrrF61BLExcVjzna8wDt7doGCcPXsJ48e+91qrx0Luhwqz32qrq2cnNG/WBJs2bUN6eoYeto6IiIiIiIiIXpdSzWoaEBiEjb5rsHjJt/Bwb63TUOPMmQtKZ49U9HzzZk109tmKSE90UJKkS6EmM7EqCh4/mfqhMM6XSJSHZSvWCvsovbwkhFu04AuIRHlCZZwymkyuoGwygddBusLPy6sntvttkmtDbdu2wtjxU+RmC5VMlNC7d3fUr1ccbEm6av6z7zCAf8eJ+2Ydxo8fpdE+lhybUBFVs5pKb19AYJBW3UylWVlZwsenH1av2aDxBBZEREREREREVDGVaVZTfVA0VtfmLduQkJgs9/zRY6dwWM1slfokHYgpIj2mWVfPTlqta/OWbejec2CpArKSYVVJR4+dkpksQpr0rLMllQymvLx6Ysa0yRpv192gYGE21ZJdSkt2t5WYPmOezP48DHuE2Jg4zJg2GWlp6TLLurg4Y/asT5CenoFvV61H797dNQ6udDWr6cOwRzhz5gJ8N6zS6HMV6erZCRc7XUWNf8cUJCIiIiIiIqLKSeeTK2hKMtFCybHEKlrFW2mVnLlTWfWTdNAlPV6dJuOslZSalgYAsLG2LvV2KwoT7wYF45tv1ikNpjRRcvZaRRM3KAoMJcdxypQJaNO6JWJi4uDj0w9WVpZywZv08nUca2s88UOb1i3lZl7VVMlZW2Ni4tC8WROtu5mW3M81SmZDJSIiIiIiIqLKQ6/B29FjpxSOOSbpolmrpp3M88rCJmUVb+VNUu00f/5sue6QGzZuFkI3VdVq0kHX3aBguS6rY0YP1ziAu3HjNtxaNketf8dNq0hUzV5bsmpMmpWVJUaOHIYnT56hTeuWKivYpEO38morpZ2lVzI+X0xMHCdVICIiIiIiInpD6CV4u3X7DsaOn4Ixo4fjvZHvwN//hszreXl5iI2Jg4d7awDy1VDKqBpjS1EXVX2ztrYSxrp7EBqGuV/OQO+3eggVbL4bVmnVRbRN65a4dOGo8FhSDde950C1k1Okp2fgzp1g+Pj0e63HQBIcakqyT6pm7ZR0IZZU//Xq2VWj9W7YuLlcQ7eySE1LQ3xCosqZgYmIiIiIiIioctFp8BYTE4f4hET8/fd+7PDbBBcXZ4VjwUmqeyQhg7oqoYpa8WZlZQkrK2DTL+uEaitJgKhunDVNqBtDTtpfu/8BoH4sOV34P3tvGxzFle55/rnTEUp9QVnaGfRyr4RKhGgkBIOQiFiQ7s5tSXc2hmrixki4N0DY0Y2RsY3bYwftF9p22+62Lwaaa19ABhu5mKVBimgjdmdwKXanVdqIaQnHXSSkMaJwi0AlpHslxEaosvRFqU/sB/EkJ7NOZmW9SbL7+UV0tClVZZ7MPOfJc/7nefns8wu43HHFFBrrBqvAuuGH66XPc906LwBg19/tce3xl6gAuJT81V/9JYLB/w5Ni9req3/6p4GkQlQZhmEYhmEYhmEYhlm5JCy8UVjgg5mHyM9bg8qN5QCeVHO0CiVilUZRdGnZuxtb/u0mQ8RxQ7yqko2Nf4N/u2kjTn7cFvdY8aqQAvJKpHbk5KzGubP/YNyfc+cuOIpSTrns3NCyd7fx38P/4xYud1zBqX/8KKlKmnaIzxp4Ulzh1D9+ZCuGURhx4V8WICtrUVQTBTeZkGbNTbfhh2U4d/YfjN9d7riS0LNwalfemn+95OJtQ/2/w+DN/+FYNZWKO6Tz+TEMwzAMwzAMwzAMs7wkLLxZk8kTTh5HTh5tyRQRiMff/d3OtB4vEej+BLr/G1qf+0+2Od6SDY0Vq2zSv//rtf/LEDJTRaw82tj4N7j4v5+L20bxN8Spf/wIipJlCLLW67V6v73x+n+KuU++nf/eCN1NBquoW1H+w4SqsKaLRDwXGYZhGIZhGIZhGIb5/rDq0aNHj5a7EQzDMAzDMAzDMAzDMAzzfeMvlrsBDMMwDMMwDMMwDMMwDPN9hIU3hmEYhmEYhmEYhmEYhskALLwxDMMwDMMwDMMwDMMwTAZg4Y1hGIZhGIZhGIZhGIZhMgALbwzDMAzDMAzDMAzDMAyTAVh4YxiGYRiGYRiGYRiGYZgMwMIbwzAMwzAMwzAMwzAMw2QAFt4YhmEYhmEYhmEYhmEYJgOw8MYwDMMwDMMwDMMwDMMwGYCFN4ZhGIZhGIZhGIZhGIbJACy8MQzDMAzDMAzDMAzDMEwGYOGNYRiGYRiGYRiGYRiGYTIAC28MwzAMwzAMwzAMwzAMkwFYeGMYhmEYhmEYhmEYhmGYDMDCG8MwDMMwDMMwDMMwDMNkABbeGIZhGIZhGIZhGIZhGCYDsPDGMAzDMAzDMAzDMAzDMBmAhTeGYRiGYRiGYRiGYRiGyQAsvDEMwzAMwzAMwzAMwzBMBmDhjWEYhmEYhmEYhmEYhmEyAAtvDMMwDMMwDMMwDMMwDJMBWHhjGIZhGIZhGIZhGIZhmAzAwhuAoeER/PKdY9C0uaR+r+sLOHHyHE6cPAddX0jot+3+Tunv7D5P9Nzt/k7X16Zpc/jlO8cwNDyS0N9WMnR/At3BtHwvEyznueP1M7f9MB1o2hxOnDzn2FcD3cGE79PQ8AieP3Rkye9veHwSr/7ifdsxE+/vmSbQHUzJ7iUL2ZJ2f6e0TW77Wyp2e2h4RHp+O9r9nQl9n2EYhmEYhmEYhvhBOg7S7u9EJBLFzw/9DIqSlY5Dpp1AdxCFhXmo2lIZ87fBm7dQ6i2Gqq5e0jZp2hzGwhOo3V5jum92n8u48+1dTE3P4OWX9sd8VzyO3bUNDY+gJ9iHnx/6Wczf2v2dKMhfA9/OBkS0KBQlC96SYsfrOX7yLGZnNcc2E+tK15r6TKA7iGuBnpjv/NjXgM/bOzA/r0uPk52t4OWX9sNbUgRgUcg63XYBHk8O9u1tctUWGbL2AEBurorXD79guqfh8UmcOuM32mj9Tru/EwOD30jbXZC/xrEd7f5OVG/dhKotlbZtcoP1PqWDRJ85AOzyNcK3syHmc1VdDY8nB8dPno25v8BiX70W6MEuX2NC7fuyKwAA6P96ALU7ttmOhWSuRaSmejMO7N+T1G/tsPareMj6Zqqk0ucI8Zlfubr4PHY3+Vz9dmh4BBcvdcXtuzTu743dj9sORcnCWHgCge6gtC8mg2h37PqB1Q5Yx4LYB930p6HhEXx2/nJGxjbDMAzDMAzDMOkhJeFNXESsK12blgZlkouXuqCqOabFSXh8ErdDo3hmX/OStyc8PoH5eR0VFeuli9trgR7pgvdgawtUNce0ID924lPj77SY679+A7OzmvQ4JHrl561BRXkZLnVcNRbC8/OLHlgeTw62Vm0CAIRCo8hWFFfC6sHWFqnAKRLoDiJ0527M56IYR8Kf8vi8soVleHwSn7dfNn02/eAhpqZn0NhQ59gG+u1zB1psxS83C1oSRxrr6+Db2WAswEUB6cD+PaZFtKzdVmgRPj+vo6J8vfG5VbCk79Vur7EVEdycLxXcPHO6L07sbvLh+MmzOP9Fh+kaSWBwcx4REnnefO1FfP5FB65cDcQVM6znCHQH0f/1gKOglUlvKLu+b2VoeMQQGdOJb2eDozhF/X9jxXpXQtHt0Chefmk/VHW144YIPfN1pWvx7tuvxm2nomThtcPPG7/9sisQI34T5RvK8FSzD5+dv2x7frdYBb+a6s3S77X7OzEWnsBHHx6Bqq42rg9AzP31eHJwb+w+wuOTjs998OatpNvNMAzDMAzDMMzSkJTwRgutZ/Y1GwvllQ4tbM5/0WFajIVCo5if140FkIxMeRMM3ryFjRXr4S0pgrekyGijGw/C8PhkzIJcFDY0bQ79Xw9IhQo6PgAUFKyBr6DB+M3i9T5ZwNJxQ3fu4t7Yfbxy+D3TsWQeNk73UsRJrA2PT+Le2H001DuLZzKCvX0xz/Te2H2T+EjipRPTDx4iO1uBx+F7ur6AK10BFBbkGW1VlCzsbvbh1Bm/K6FHhig6/OqtVxwFTxKXandsS/g8KwGZp9nsrBbT1wBz34rnERToDmJg8BscbG1BSUkRWp/di1Nn/BgaHnEttITHJ9HT24fG+rol94gldH3BJKw7kZurZrg1sQR7+1BYkBfXuzQ8PomLl7rQWF9nsqXWDRGyMzXVm3Gu7WjMMawegG++tfgdUZCempqBR80xxo2uLyASiZoE9qotlaip3ozBm7diNjLsoI0m6nuiNx4AnDrjl/5uaHjE6IvUj+j8Pb19qHj8HiCysxUAi/fWro+Tjazc+ENHLz+GYRiGYRiGYZaXpIQ3b0kRPv7tuwCw5PmBUqGhvg6hO3cNMYQW1U5eNOTt4iS+JAOFgT7V7LP9PJWw3f7rN+BRc1C+ocy+DdE5nPrQHxNaZxU3GurrMK/rhqcG8MRjTSYOpuLxRoRCo1hXuhbekiKExycdxQdapAJPPBipDSRGVpSXxXiVhMcnHdvoBsO7rr7OdB8K8tegsCAPY+EJaNqca9FGFKHsQjJFRK9TEiBESDT+LmDtN07PLp6HGXmQisf0lhThmX3NUs9XGaLIY+d9monwUivL7fEW75xj4Qm8fvgFR3tFQnJN9WbTs/TtbMD0g4e40hUwwt2tHp2A2d7Qu0fm1UZMP3gIjycnpk2FhXmmf4vPjo4rg/qb9VlXbak0+peTPRm8eQu5uWpMqH711k0YGPwGodCoWXhTFJR6izE4dMvWfgR7+5DrUVGQv4aFN4ZhGIZhGIZZwaQlx9t3BfJE+t3lLmjanOGpQeKUVUwiT69M5H+jMFA6r3VRH88Db3ezfX6kiBZF6M7duOKdmrMaf/+bNwCYw6WsAgh5yEW0qHEf7Ba28douYufxRvddDBV1G2o6Pf3QyIe2FIRCowCAior1ps8VJQseTw6mpmcQ0aIIj0/E3BdRMCT6r98AAJPIaYcoulmfmRh+SuKlHTJPRivWv1tFQbfPHAAqyu3F4HQgE90I+vepM35HMUsU3eyEoP6vB1zlKYt3b6x/t3qRJuvx5jY/nEywJWTXLh7/4qUuzM/r6L9+w1Ek9pYUIzdXxcDgNzG5Dp/Ztxv9128g2Ntn+3sneyNr172x+3juQIvp97MRzdHLNTw+if7rN1LKCymDNlNk7xFVzUF2toLpBw9jfle7owaDQ7ek91bcoJmamrE9L3mjpzvvH8MwDMMwDMMw7vmzEt6ARa+XX731CjRtDlPTM3i6pdl2MXfn27uGEOUGJwFDXExr2hxCd+4awouYQ8nOs8KKk5DiUXPw9795A0PDI7bJw8VFLC3QHj16hOxsxfBMIa/A24/FJSvWvGiq+kTISwXyhHPy1pOh6wvov34D98buo6//hulv1lDT7GzFMUk/haaJ4WoyZAtmoiB/DQYGv4GmLYb12iW+Fys4xsunRdwcWsyV9cZrLwJ4EuJWtaXSFAruRoB0Elfcko4cb3YClfXZEdZcWnT8qekZvPHai4aoFugOoqe3zxDaqJ3HTnwq9Sqcn19ATzBg5Cxr93fidNsFU+7BSCQaNwSYSDQvnYjoXZzu37b7O418a4mG0VOI9S5fI3ocBDMinm3Izs5CT7APpd5iRLQodH0hJky0orxMWqSEhMPcXBXPPbsX57/owLrStfCoOfjlO8eMDY6a6s2GCE2CpDWNAIX/p1O4j2hRW/HT81h4i0SiMZVcVTUHpd5ihO7cRYPFo5YEem9Jsa3wpihZ8Kg5iDy2PwzDMAzDMAzDLA8rWnhzU6XODbJwMFVdjV+99Yrps+kHD02LvsGbt7CudK1rAcitgNF//Qaqt25CpNe8IBKrkKaD+fkF9PT2OSYPF0PAKF/fU80/Rv/1G0Zxg7od2x6HTEYBFBkL4eqti4UXZIvhRKmp3mwS8qamZzD94GFCgoCYXJ1INdTUKqbK+lK8PHAAYnJOAbG5zewEJkIUgLdWVWLH9mrj3y+/tB+nzvjx2fnLyM1V8e7br7r2cHHrSZRpUgk1JTGlsCAPRz94M+71VG2pxEcfHsHxk2cNL1fCmuOQxDfqB7t8ja7DSxUlK24uQSupVlclnEKVaQzPz+vGuE6ESx1XUVFehq1VmwzhLV71UbGYgJWa6s147fDz0PUFjIUnYrzwcnNVoyKteO+tGxXt/k6UeouNf8vEPhIkrd6y3pIiNNbXoSfYh/INZWkfE/GqF8uo3roJn52/jDvf3jXGBuXvjOeJLbOHDMMwDMMwDMMsPStaeMvEwkHT5nDlagD79jaZFlbiQpRCKjORuyk8PonBoVt4piW2iip5RljzENlhF4JGoXw7tlcjEtHwZVcA3pLYRRotlMk7SCyu8PNDP0O7v9NI+t3u78TgzVuo2lIZE7ZFFTvFKqHWgg9W8USWnynQHQSwKCqF7oya8j65zfGWLmR9j4SDeIUv7LAKXOQFJN6jhvo6W7EJgNS7xSp8zs5qhnDhJk/cd51kK57S/Q90B3Hk7Y+w/6f/W8x3ZOGalO/NzoMxVahdJMA91ewzrstJjEwEXV8wPKFoXLuFxC7fzgZTjk/Rk9Au953snokiqhubL6YEsEKbB88fOiL9bbw+UrtjG/q/HkCwt29FjJvyDWVYV7rW9IyoGnYyhWcYhmEYhmEYhll6VrTwlgn6r9/A7dBojDcViUnrStfGJLpOJ5oWRXXVJqkXjPZYeHPKCUULVyA275kslM9aUEJETAxuDccDgJde/Knx3eqtm9AT7IOuL0DToli1apXUy8tOIJN5czlVYGyor8Pn7ZeNUE66Vk2LmgQ7q9cKXYv1XNbz7/I1xuRli0fVlkrs8jXiWqDHtDAXxVor2dkKVDUHgzdvxeS3omcpinGKkoWK8jJpeJlIu78TI7f/BGBRTJCJHCRI9fT2OYbVrhSSDTWt2lIZU/0yESi8l0SksbEJI3fZutK1Ug86GmtvvnU0JuQ13cjuS6m3GCdOnpN6A7upwkyhij/Z/WP09Pa5LgAiVlyWQc+i3d+J5w8dSVgMtSvaQt63bsUwu5yH8VDV1Xiq2YcvuwKGh126cApLJ1HeGm5K9qCntw/h8UkU5K9BT3AxN2kyHnQMwzAMwzAMwyw9f1bCm5G0v74uZlEaCo0i16Oiob42I4sugsQuWTVYJwGBPG8ovMht3h5FyUJjQx0uXupCeHzSdN0ybx5RNBO9U1Q1B7MRDdMPHmLw5i3bMCc7MdDO480Oj5qDVatWQdOiJpGSqgKGxydQtaUS3pIivPv2qzjddgGNDXXGYpvCfgGYzh8vz1g8KirWo6e3z1hEF+Svsc2BJ0JegQQJDDJhraJiPfqu33AMtT2wf4/x2/D4JF79xfsxhQDE/uQUVitLeG8lnudcOoorpLOqaSqUlhajuWmn6VzWIhZWzyy79rgpjBDPc068L3RPFCULrc/uxak2P55uaTb6CY0rp9BnsWgMhYrGK45A1+jW2/PA/j1oqK/DqTN+9AT7jLEoemOK2ImXZKM2VqzH1qpNxuei9yj13+xsBc/si/UkTpTyDWUoLMizFdMThfK4JQvZnGBvHxrq6zA1PYNn9tnnJmUYhmEYhmEYZmXxZyW8UdU8a4gO5cx5qtkHb0kxshXF1UJ0qdC0OZz/ogOFBXlJVdyr2lKJwZu3EAqNoiB/jZGo3FtShKMfvInTbRfg8eQ4CkMF+WuQ61Hxeftl6PqC7QI3XR5vlBh8amrGJLyp6mrUbq8x8jBNP3hoLMzz85beA6SwME+aJ4vEjWQ8U7wlRVhXutYItY23wBaT6Ae6g3jl8HuuvJ4ovNpJVHPrKZRKcYVkinJkIgzc6VwH9u8x7oVYfMQJTYsiO1txzLdH1VGdkImaFeVlUNXVKCzIQ7C3z2iLkyhOBHv7MDU9g93NPmM89X89YLvZQNftUXMSCrEW7cvptgv4d//L/xw31JSgvhLRojH3z+o5Jj4L2YZGoihKlsnbNx3H86g5RgEF8f6FxycwO6vhKYcq1d6SImysWI+x8AQiXQFkZyvGBgTDMAzDMAzDMCufPxvhTRTXrAvHK1cXPUQooTZ5iFF+s6VC5lGi6ws4/0UHAKD12b1JeznQwtQaykSVW8VQRLpXtdtrjPPRffns/GXbghOyKorJ5qSiHFSyfHeUh4mS3SdbNZKEATqfG0KhUczP60ZhCW9JMXJz1Zg8WdMPHmJqegaNDuGiduFlwJNcVU65pmRJ+GuqN7sOuzTa2LA8uaLcFk+JV3QiU3nsrCHLbsRMkcGbt+JWxXWDzOON2N3kw6k2P8Ljk9C0qFGl1I6h4RFcC/TgYOuTPIxO4ehkf8SCBYkgegYODY+4+s29sft4/4OPpfeaxOJ7Y/eNMSgjEQ/MeBgVjj2JFckgxHBRqxfr4M1byM1V4wpp1Vs3YWDwG8zOaqip3pwRb2yGYRiGYRiGYTJDRoW38Pgkfne5Cy8f2r/sC4X+6zcMcU0k0B3EWHjClGuLPMTcehylA11fwO4mH/qv38Arh98zxIRLHVcxNT2Dl1/KzD3Mz1uDmurNuBboMXIrUf6n2h3bpL8RK79S2+MJKE7iieixIlYRJYHP6uFCeZicKiimiqzvkmhRU73ZEEKoLZ+dv2zkoNL1BVzpCqCwIM82AbpTvqdLHVdRu2ObcVy7qrQyTzHKrUU4iVKh0Oiyes/ES6SfrkICyUK53whraLZTiKhYoTiT9kNVV2OXr9HwMt3la7QdD+HxSVy81IVdvkZTf6Kw1eMnz6Ld32kS2NJd4MZNqKmsOjR54D69rxnzuo7KjT/ExUtdUJQsrCtdG3O8ZHO8EbJn3frsXte/t0Li5vkvOow+MzQ8goHBb3CwtSWubSeBP5GiCqJIu1TvMYZhGIZhGIZhYsmo8OZRc5DrUXH85NmMVP9zS3h8Ej29fTF5cdr9nYaHiLVt+/Y2GSFSS7FoUZQsKEoWfDsbjMqWJFSJ3impYvUkKyhYgwP79xjXK3qRifeEFu11tdtivGOcFueJiieyRbeIps0Zea2e2deMYyc+dR3mSMnoc3PVGFFRrPJIRCLRGJFAdq6qLZU42NqCz85fNp6ZUyiiKMqYzqdF8ct3jqHUW/z4eRcZx3Xr1WXNJWcHeTXGC0tkniDz6LSj//oNzM/rCRfwsIMKZRDfA67PAAAgAElEQVT3xu4bxVCo0m12tmJ7PvLes+tHqrp6MWfcGT9OnDyXMZvnNtTUyvSDh/B4cjA9PQNdX8C+vU3ov34jRsy3C1u2fi7eTzFUl0jkWbtBURYrRVNBDmDxeVFF6XhQSHDozl3Xoetk0zIt/jIMwzAMwzAM40zKwptTfiZVXY2XXvwp2v2dyy6+ieGRoveDXf4lcaH06w8/weuHX8CVq4G4SehJuLLDjUhEQhZ5XVA+M1llRVk+Nbvk9cBiTqH5eT2mqiqFHRLiOcUE5/v2NhmL1uqtm1C+oSwt4YI11ZttF5SaFkUkEsWxE59awv2eCFOi0CV6KlEYp0wctIZqioJcogvveJU1rcLJutK1hucKLZDJs1FciIuiHomloldgIogJ3q9cXSxssbvJPreUE9YwzERC+6gvxBNZl4tkwxTJa4uEflkRF7eI95f697m2oyYhmwT6qekZvPHaiwBgjFMx59nxk2cxP6/HFXnEnGyi1+1yQ6GeFeVlphx24iaF6OUZj5rqzRgY/AY11ZuNkO5fvnMs5fdTPJvhxnvQ6X1q9cCM93nkcZVsWbg+wzAMwzAMwzBLx5LkeDuwfw/a/Z3SHEJLgbekyEiWTSJSY31d3EUlLZRE4XAp208LuXZ/pyH+iQtDuwqihF0IqBiOJoZUiQvtQHcQp9suoHbHNly8dMUkbIli0MHWlrSFogW6g9LPFSULhYV5puqNRNWWSnxy8j2cbrsgXTw7LXaTSeqfLM4VaycA2IvA4m+npmaSEqzC45P4vP2y8d+3Q6N4Zl9z0kKD3WL/+0AyOQNFr61gb59jmLEb4t3fiBbFrz/8BKXeYlP//vi37yLQHcTzh46YBCa3dssq+vd/PZCRDROr6H2wtQVAbP5GgkTxm0O34PU+CY1OJhRW1xfgUXPg29kARcnC3//mDQS6g9IQWDtWqmgsstyh5AzDMAzDMAzDLLLq0aNHj5a7EczyQF5Ydp4ttPh+Zl+zVIgYGh7Bl12BZfVkZBiGYWIhMXg5NrsYhmEYhmEYhnkCC28MwzAMwzAMwzAMwzAMkwH+YrkbwDAMwzAMwzAMwzAMwzDfR1h4YxiGYRiGYRiGYRiGYZgMwMIbwzAMwzAMwzAMwzAMw2QAFt4YhmEYhmEYhmEYhmEYJgOw8MYwDMMwDMMwDMMwDMMwGYCFN+Y7SXh8Ekfe/gjh8cm0/0bXF3Di5DkEuoOpNpN5TKA7iBMnz0HXF9L+m2T6AsN8F4lnm4aGR/DLd45B0+aWuGUMwzAMwzAMs/LQtDn88p1jGBoeWdZ2fKeEt3gL8UB3cFkXHeHxSbz6i/eTEmzs2p6uaxIXZMmIIES7vxPt/s6U2vJ9JNAdxKu/eD8l8WdoeCTp52Kl3d+J5w8dyYh4+F0RJtv9nVIDKxPq3AoWge7gir7udAgvge5g2sf40PDIstuN78J1xRtbipKFxoY69PT2SW3N1NQMPGoOFCUrbW1yi/W9stJEwKHhETx/6MiSTrrivb+Xe86SDlKZ92SadPRBGpPpGufiGE9mIaBpc/j1h5+kdaNJ1xdw5tP//L3bvErHvCxR2v2djvO4eH8XobH1/KEjxnUMDY8Y/+1m01G0y+3+zrSNU2pbsuNrJduNZEjX+y6dzwhIbWzTM0rXOzNV25dplqtN4fFJ/PrDT9I6D9C0OZw4eS7pY6ZzbpLIfXWyC3Sc5V5LpMoPkv1hoDuIa4Ee02cHW1tQtaUy5UYlS0N9HUJ37uLK1QAO7N8j/Y6s3W7Y5WuEb2dDqk2UousLCN25i1JvMVR1ddzPU8W3swHTDx7iyNsf4eWX9sNbUpS2Y6eT8PgkTp3xY35et/3OsROfSj/PzlZW9LXJ8JYUI6JFcefbuymNo3Z/JwYGv0FhQR56evtQUbF+Se6Dm7H1yuH3pJ+vK12Lnx/6WdoEA11fQKm3GBcvdUFVc9Jy/eHxSfT09qGxvg7Ak/vsRE31ZsMW6foCTrddwL2x+67Pme774gaPR0VPbx8C3UHXNi/QHUTozl3btqpqDm6HRjE0PLJs74jvy3WVbyjDu2+/Kn0nTD94iIrysmUR3pLFzTgSsdp22biyfkfT5vBlVwAA0BPsQ/mG2HuUzPgUydRYlbXLbq5ltcGi/SGGhkfw2fnLjseid29jfV3csRIKjQIAKirWu78oCdSu5bB5TpDY/dn5y6jeuimt41xVV6P12b04dcaPwZu3bOetVnI9Ks5/0YHXD7/gam6oaXM4fvIsnmr2SduvKFlQlCxc6Qpk/N5TW2ZnNde/sfYJ2TFyc1XT/aD39fy8jmBvn/TeJtMWEdn4SgXr2JTNY4eGo8Z/e9Qc1GzdjGMnPpW2hdYQHs/iZkxDfR1OnfFj+sFDHNi/R2p73cydyT4oShbm53XHNZcdydoN2TNzYzPod/Pzuun6yGYu9/oVeDJv/f2Vr1BYmOeqPZkc296SImysWI8vuwLwlqR3HZqs7VsOrOPSLW7XodmPn8n5LzpcP6Pw+CQ+b7+M5w60SI9Px3AzNoeGR3DxUpeprdMPHrraxHW6N6SbhMcnACyuceMR7O1DYUEeGh6vs0TC4xOYn9elfyPc2HSnZ7kUdiAp4W1oeAT9Xw/gow+PGAMx0B3EZ+cvp/1F5ITThF383PpCtv7bCXqImWT6wUNMTc+gsaHOthPLrjMVMfDA/j0YGh4xJiROnTWR+5VOvCVF+Pi370r/Fs/ofBdR1dWo3V6T0kuu3d+J26FRvPHai/CWFCHQHcSpM35b4+/GaLrFt7PB9vvxBIx0oyhZqP9RLcbCEwktUOzQ9QVc6QpgY8V64xoP7N+TlK1ze1/pntlBuz7JtMGNSHot0GP7nUT7Bk3g7ESPdLHSrsvuHZXIy93NBkRN9WbsbvJhLDyBgcFvYq5vpYkZVtzOG8juy6BnNzQ8gi+7AvCoOcbfrlxd/PfLh36GU20XEOzts33O1j4gm5RaiTdWk4Xeyx41B5+cfA+KkmXMtax9yGr7qd+0+zuNexsen8TFS13Gb8n+i8eS2Tr63EmYtNsEE7FbiIjC6HLhRgDOxITdW1KEox+8iXZ/J8Ljk/CWFLkWhN5866j082TmbCTKpLrx5xa398tpbNEx6Dtk38Q+TNfltDlibUugO4j+rwcc72EmvC6qtlTiXNviM3WydYSqrkZz005s3bpJeo3TDx5iNqJhd7MPwGJfe/ml/fi8/TLC45Mxcxg35yS7srFivWntINoZkXTajYL8NTj/RQdqt9cYtonOH8+R4MrVAGZnNWRnK3HPl2mW2tY4je3lsDWEzPalC6e5YKL3TxyXVtr9nYhEonHnV27mcUD6nBNow+jipa6493bw5i0UFuShIH+Nq2NbsfYBGvPE1NRMXAci6/Oi+yCO/Z7g4kaKzGbQvE1VV+Pvf/OG9BzxROqlIinhzVtSjF+99YqpA5AX1e3QaNoHkNVIvXL4PaMT7tvbhEsdV7G7yRfjLXa67QIaG+qWfRcjHqHQKAoL8oyFGw1wNy9/wq0iLzOeY+EJvH74BaOz0sJlOcQ2K/GMlWwAikZA9nv6TU31ZgByURMA7o3dx7VAz5IKj+S12X/9RkICgCgQi94wdIxjJz6VvmxkLxSr0UyEeMKH7KUiLrplv6ff/GT3j9HT22c7QRCfKx1vd5MPp9r8iGhR9F+/YTq2rO/Q+JB5qnk8OSt6V46YndWk49zaj5MRY9z0jXgTbWsfSPcO00q6LsDcl5LZyHHagBAh13xxQywVcdYOp4n6utK1pn/b9UWZ0KZpc7hyNYB9e5tMz06cLKmCmGbH4M1bqN1eY9oUvB0axcsv7Ud+/hpjl92NRwEJQhuXyGvYypWri2JU67N7jXtCcy1xg2ZoeAQDg9/gYOuTjShvSRGe2dds8tQK9vZhY8V647rLN5RhXelaDN68ZXwW7O1DRIui9dm9prYoShZeO/y86bNAdxA9vX0pe5f3X7+RtNeRG09Fu0Wj1fYks3FsHdNuPSdpfiEycvtP2OVrRO2ObdL2uYHmb/G+YzdftH6eSdF+aHgEU1MzMXMdcQ4aD/LqamyoM9p4qeOq0YdVdTWe2dfs2vtd9Gxf7vmvDFXihWL3jgiFRpHrUVGQv8ZkR49+8GZS56b5mbg5oaqr8frhF3D85FmcOHkupq+k027o+oLxTAnRc8rOszE8Ponbjz3sUmGl2RoZiY7tp/c1S9vnBqutSYftS1dkmcwRYCkcaZxQlKyk3pVuNvac1l7WtY51TjoWnkDt9pqM2Hiyz/fG7kvX2vR+Ef+b2iFuBNz59i4iWtQ0v6X2W59pPDFZNj6WMkouKeHN7mVUkL8mLcbNCu3KyLxmdH0BipIV46JJk8eVusNPUKe0hgfR5+ICIh5OAlF4fBK/u9yFlw/tT3gyIRvQqXpxuMVuQuHW4038vd3L3vryk00u6JzJhr7aTV7pmM/sa0bVlkrTLoXbEFF60dq9yH07G1BRsR6nzvjRE+yLGT/t/k74djaYQrciWhSFhXmOO3P08hSvzc7rza3HG/1eFELE39T/qNb0ffre1PSM1Giq6mr86q1XACz2hUW359i+Yyc2i+3Yt7cJ4fFJBLqDOLB/T9K2xcnjyopVyHBDqkKx27Ele7mJmyJ0fxLZQMgky3FdgzdvST+PRKL45TvHbCcGMtHfasMvdVxF7Y5t8JYUGe+L+XkdES1qak+yu5h22O0oyiaHifRFXdcxNT2DSx1XTXas//oNzM/rmJ9fgKo6HyM8Pol7Y/eNUASZzRcFKad3ltgPZme1uJPGdEMTYtlOcfXWTRgY/Abh8QlUbanE4M1byM1VY0I5vCXFyM1VTcKaiKJkweN5ImZq2hz6vx5wNe+g71pFyUR3lUnoqKvdlpLXoGzRZvfeWYoFmNMist3fiYL8NbZ/j5dXx62gbp270YLjYGuLseFG90L0Iloq5ucX0NPbZxLBdX0BPcE+KEoWdN3ZOwR4siCjvt/u7zQ2k6kPV22pxNTUjKP3P2Ce49m9p5cyqicVrGuLVHIHi/Ms8qgVoXdCu78Trxx+L65dTdZuUNikFY+aY+vJRt6PhQV5yM5Wkk4lIJJJW+PW8SFdYzsT+UVTsX3pQtPmcP6LDpNQG9GiePToERQlCydOnrPtC3Qvl2qs0/iqKC+Le1+sa7JjJz41RCP6rXVd6QRtetnZOzsPPNkzpvfSvr1Nxmd3vl0U3USbkGjEmq7r6An2udZD7Oao32mPt5WEomRhd5MP7f5OTD94CG9JEYaGR9KyC7sUUKesKC+T7lTIdgZEEhG7ZIsyN1jFEKvnDw0iN94IbnG7c+Lkpi4ulGkSEg+aFNhht2PhtIOXaBhS+YYyFBbkQdOiAIpsX8RizgrZZEiEBEiaGFl3LMX8D2I8ftWWSmneEOtLIlU3asBsyCn8urAgz/F4NH4yFT4Q7O0z9fdgbx+mpmcMwT8ZEg011bQoTrVdSOvLwiks2Anr7jW93Ozc7WlR/cy+ZqPvatocTrX58XRLc9rt83flujyeHOnEwG4CRpNIGg+6voDCgjwjjLr/+g0Ai7t2ZDd0fQGRSBTVWzfFnIfGa2FB3ooJQc3PX4OnW5pNIVNkjxvr67Bje3XcBNGh0CjWla6Ft6TICL2U2eSqLZV447UXceqMX+pxI4puMvGQwk93N/vi3js7rz8R699rqjejob7O1p6qjxeaU1MzKN9QhkgkKv2eomTBo+YgEolKF97URyrKywA8Ccl1yqFCkCDq5rt2iIvixsfe3jKsi8xMbPId2L/HSP6dyOK8pnqzbWiLE9MPHtr+zSlcJh5VWyqNe0P20GkhJnvmge6gkQcsk+zYXo1IRDN5b9759q6xkZbvYtOAPFxpMR3RolLRwrezAYWFebbe/+IcRrZRShstu5t8cdt0b+y+41wHiJ0LNTbU4ebQSMxmjN0c1+5zEgvEtUUq0Nirqd4c47lm5cD+PUZYo514lA67kQg0Z3v5pf0I9vY5ftcqamQqt3ey40q0C1VbKtMytumYlNQ+3hxe5GBrS9ptn4idE4RbsrMVU44z8gD1lhRL+3ImhRkKq00GcV5Ljkh2KTDEMHtrKgqr4EnzK5k9dBtCGw/afJ6amkn6noZCi5sr5AnuRKph3EsR4ZY24Y2EjexsxZRbJVPIvLBGbv/J9G/xxZTJ4ghWnDxarCFs/dcHjB1nMexvKXJiJRtSmm4PChky93Qnz654Hn0k5FB8uF1/6L9+A4UFeRntw+LiWpZY1nrt8/MLMQlsrbl5At1BV7kyDra2YN/eJpxuu2AIhbubfDjddsHwNBErI9qFf1mReSaSAZQZ9XgT+1BoFPPzOu6N3bfN3UE743/b8NcYuGk2tKLxTWXXyurxeG/sPp470LIknlviounRo0dpFbaB+O7Y8cK4xeOMhSekYyb4OGRHfP79128gW1EyZke+b9el6ws4/0UHSr3Fpn5MOQxPtfmRrSj4sa8BXwWCxgSH8vuku99kEm9JERrr64ywMFoouZlw6foCxsITaGyoMyaNdTu2OdrFutpt6P96ANMPHpp2aWnB8qu3XkGwtw/HT541+gctwO0KXFhJdiKnaXOuNhTIay2iycU3keqtm0w5X0jk2N3sw9DwiCFUxptziIJoKuK5uChWFPm1kgeTGGLS9X90x82DahdN4IRs3rEU2Anu8VI3uM39S+9TK+HxycX7f+jJM6dn+1RzfIEpHVB6jfNfdODplqaEQrsjkSimpmdQu6PG2BT2eHIche6/bfhrXLzUhampGcOuzM8voCcYMPKWtfs7cbrtgjH/JntiTbFjR7LhuaKoZ+cV4kYcoLlRKoje/p+cfA+6vuDopU2sK12Lox+8iTvf3sWbbx2NCWtLh92wEh6fwOyshtrtNZbPn4QNxzvfZ+cvY5ev0ViDtfs7cS3Q4yolQTK2Jt5mtawPy/pVusa225QW6cbJ26uw0Hnj3QlVXY19e5tw/ORZo6DW9IOHRqGR8Pgk+q/fML33lwI3UURWZGsou2iKO98ubl6J12WNBCCuXA2g1FucMe+v8PgkZiMa6mrN8zdNi2LVqlWu19lbt25Cc9NOU5SHFeorsryVdpvMmXQCcCJtwtuljqu4N3Yfu3yNS7ooJVaKCyHgXuS78+1dFOSviTGa1kpEbpHtrJMLqkfNwapVq0zeED3BvoQqplII4lIjSzAttul02wVEtChedgj5IU+If5l6gL9t+GvpC1XT5jA4dAtPNfvwVSBzJc5pQey2mhPtCvf09hkLJmtutkQ9fayLi93NPpw648eljqtGiPOi8LY4sXVKRm6FREFxEkOIiXl3N/mknmO6voDw+CQqN/4Q8/M6Sr3F0gIJ9IKpqCiLEd7I+KYrATLtItU9NvqJVGK0Cn9ud/sIMU+L7LyydjgtPKwvceu/7Sb8drmDIloU8/N6zEt0aHgEkUg0ZgLQd/0GnjvQknEvq5VyXQOD30ifkduXvmwiRezb22QKFe+/PmD0L6fJTaqTbLv+7zbHm5PHEi3ESTA72OpO6J7XFz26rRXSmpt2xv0tAJNHmPh7snti/sdEdvndVAaTQd5qY+EJaNqc6R5YF1sF+WtMoaeE1XOY/kb3VpwfnP+iw/WCmHLPuRFE7bAuimUhT5SbaWPFetP1N//H+M+Urp2815Y6jFK2AUvvgoL8NQjduWu8/0QB1IpssS0LNXXKUyl759A7zTpnz/RizIqiZBnzj/d+8zFyc1VXXmXAovAWiUQxNjZhmtPE22gjm0B9Ljs7K+b3FB0ALM7pE9m8S3TungyiB4k1ZQh5u6WCVYRWlKyE7J4sf3A67IYVKhiTm6uajit607rxrqup3myyEQ31dbgdGrUN0xdJ1tbIImjsHCLsImdW4thOl+1zKmrgBlVdjaeaffjs/GXo+gJuh0bxzOOcdsCieGX1DBNJpNK522geIHZN4BTpIAtTJk91K5o2h2uBHjzd0hxTaKbOIlhp2hwikdhcrumE8vYB5n4qOne4heZnbovlidqAbJOUIiKeO7B3SZzFRFIW3sSOua507ZK4D7f7O1G7oybG2wBwV652JUAD5KnmxUp0IiRwJeoibp2gkSsq8GQSTzgZu3iksguRKNY8O1bjJlY8oSIbsmMMDt1C3Y5t+JepB/B6i2OS7ZJXSXXVpoz3IVFIcSvC1O5Y9MxIpiS4G8jT5FqgB9nZiiEKUvjX5+2XXeWcE8OlZS9f2g2dfvAQX3X3SMWEO9/eNQS3sfAEfDsbENGipjyO4fFJ/P7KV3juQIur63MqsiEiigSiOEAbC40Ni/bNrqKpUwVEcYHx/KEjrtoNPOnjipKVdCXVTEIiwGxEw/GTZ/Hyof0AgC+7AtIxKyaAX8mk67qciivketS4Y5pCx6xe0EPDIzE5G6u3bsKXXYFFm3fzVkIbK4kg64ep5ngjxHHiNCm24lFz8FSzT1rFS5YmgWxCY32dY/4bq/ckCamZTsZL+T4/O3/ZZPuGhkdi7Cq9H8R3GoUnWzf2ZIsZKsxRu2NbjK2UVXkdGPwG60rXGlVWZbv01nAO8X6JodNu5owUKuv2vScuun/sa8Dn7R1LEjopYq0UK4pihYV5xlihTdBMFfAgz10AuPZVjxFaHeztw72x+zGLykzmLbRDnH8sFlFxZy9KS4uhKFmLeQl3bJOm4hDzW8mq+FqRzRVoLrOUhbZEaKMjN1fFy4d+Bo+aY5o70vxkevohPGoOvuwK4G8b/jpmbbGcpMNuyI5J3xfTPgCL9+SJN218u2FNyUB54+LZnuW0NSt1bK8U2wcsvu9qqjfjD8E/mvKgUq5XMczdihsP6HSFZCYCCb0A8Hn7Zfxk949RtaUSV64GMDU1Iy2mYJ3jqOpq22sjYS/VDQSx0nz/1wPGBqLoeSgiC9Enr39KK3a67YIp+suu/aJgarf5e2D/nsdedMqS2vSUhDfxBZXpJISikba+NMlDLFOLjEwQ0aIo9RZLRR7ytHAKWbW+jKamZmy/JwpuU1Mz8JYU48uuQMLu3uHxCczP6zGhS5omzx+TDqy5TuhFaxUZdX0Bpd5iU0gQQeGjXu+Te00JqUOhUXhLioyQpkwLx8m4pAOL96F2ew2uBXqkJcHTAXmaRLSoqc94S4qwrnStIRA4YV3U0YTRunjzqDnQtLmYEvT0Im5sqDP1aapOOv3gIQry15h2cOLlfaJrIA+fRIor0N/cercl0o50MDQ8YvLwsQtRdyoKYZfvwC4kU4RE7cqNP8TI7T8hEoka3qmzs5rx3EWRg/ouLfYz5Ymy0q9LDIVw41FK4sqRtz8yJozWzRl6n9BCTNzd/S5BomeiVdIpP2YoNApNi5pE8IryMtPkL/S4EJTV8ziiPSl84bTQbvd34tiJT7GudC1KvZnZrBFz0dGENDdXxcHWFly81GVsglERmdNtF0z9+5l9u9F//YbjBFrMVwjA8HwT+zd5h1OVV5FEow9okwswV2uVUZC/BoUFecaE3G00AVW1pGf37tuvmqouytrk1rPBDpoDO0UGiGHokcfzpv7rN6RVZAmnfGGy95LVJvRfv2G8z6emZzAVmDFCj8T+TSG99ExkyckzhZiDtyfYh/IN7udHZBfD4xOYmpoxFbwp9RYjdOcuGuoXK57aFSEZG5vAxUtdRn63ox+8KfXEP912wQifzBTWvkg56cR5ksfzJG/jpY6rplyW4fFJQ9AeezzOlpt02A0rNLeUCXOB7mBMledMkaitEdH1BdtUCHahpiLpGNsRLeoqP7MTtCZPt+1LF7ubfEbaEHFcl28og0fNiSvkpBu7KIh4Od2JYG8f1pWuxb2x+4hEokYKJhK2qd+JheEA8zrgUsdVV+sap+8cbHXn+OAtWdwgob4xFp6Qhjs7VTUFzJuylAdYhlUwpXlMdrZims/p+gI2VqxPqNBDOkhaeBN3GjKR6JYQXTB3+RoRunMX5RvKbENd7DpJJtuYDN6SIsPTSvY3u8W5GHZpzSXkNLlWlCxUlJchdOcuwuOTrhMoiwzevIXCgjxpDqNM5vYTvQ5qqjdLhR0Rq2cUhYBZEfOlUb6zeNWfnF6UgHNVUyA1T0OaYA7evIXyDWUpLxSsixgxPMH6IrIKX05YbYPV28eaI0RM+EkCaPmGMpPwJlYnpTCbZEXSRPIL0LX8ZPeP0RMnMW8iOAl9biv+iN51TtBLR5ZkH0gtJDM8PmHkNZuf1/F0SxNOtV1AY0Od8eKTeRmQ105d7baUClU4sRKuKx4UCtET7Ivbn0VxhTYfdjeZk/vTYpMmYOUbUkusnWmsyf0BUQhaFI0S8fKlfGfTDx6iob7OEOG8JUWoqFj/OFx/AuUbFt+FsveZRzUXvhA3/USbKXr9kdgqw02idaeNS9l8IDw+CUXJMm2CyXbnaXFjZ7OtiZhFzzc698aK9Ua4FeW+q67alLQ3jfiekS0uyZuUJuGtz+413hu0GWknwIn5XMR8XKq6Gq8ffgHHT57F6bYLeLrF7Gktu3cyIcBt7l3rs7FCwk+wtw9912/EeOuIpBJqSoJW9dZN6Ontw8HWFkxNzSB0564hLlFBCQDGPSNxdDaiYfrBTFqFN6osKN6fYG8fIlrUEJQTSW1B0RyUs41EuKotlUZOw+kHD42wbdkGfWlpsSkkXZxXkn239hGnNBZ2C2sRax+2VmgHYDsPKMhfg9uhUbz/wcfQ9YWYqs0vvfjTtGyGywq+JQKJP+mwG4Q1ykqWt4kKpDltvpFglyzJ2hqRVEJN0zW2yzeUxbxfrG1IpOpmOm1fuqDKnbOzmsm2kJDzu8tdGanuakcqoaaaNoep6RkjgkssGmKtZivmBSaxlVIIOUXPJFJ8a2h4xPRv2VxDUbKQrSgIhUaNzcJkI8toTkIbNHZY7YS4mSLztnUbwpoOkhLeKKY+06EWgHlCJE5uqdPYVXRJtnDASsZpp1gmiFi94AoL84xQQhKZ7EN06YIAACAASURBVMpNi7l5cnNVPNXsw+3QKBof7xwuFdYXv3VCI8sjNjQ8YiTGBWC4Mcs8o8TFs5t+nGpV06mpGVvx0g5xsi8uCGVuwomUkRYhT7Oa6s0oyF+Da4EeVG/dZBxDFL6cJnRWIVR8dnb2ot3faSQ/BRare9n1Mdq5e/3wC0n3w0RC8AZv3nrcN4rTKrylitt+K+bbS7dnmcw7UbWIFpRHQay66ybcZzlZ6usSqxDGWyzRBgqFkci8X6u3bkqbh+ZSIwpBO7ZXo6BgDU6d8Se0EKcQfrpXFIZG3lNTUzNQ1RxMTc+4ep9Zq3pfC/S4Tp4+/eCho6jmlJfLCTFdQbzzO+UTJcFD9DiwegVQTp4/jd4zknVTao9ksMvbI24qiveWckuJGzeyHK3xRDlxQezGlssEIjfQrr64sWP1BCGx6A/BP6KmerNJ2BM9tlLFyINaXmZcs+hpJOZcFYt+UZ989+1XMz7fEz0uq7ZUYmpqBj29fa5SWwBPxHbgycYDLcq8JcVGpWdNi2J2VnNVNILWF9Tn7Ip6WaGNBKf3rV3eJpmXhh20ibBq1Sojf1Ei4ohb7MZqIuF1YpL/VOwGQd7cds/DqSKwrNI1eT4nQrptTTJkcmwnk4MLWFm2jyAhdpevEdMPHsbYFm9JkbG2WUrxLVlkEVziOJDN+WVCnBPB3sXwXwCuI6x0XUckErUV3qifKkoW1pWuTekZi44gAGLe09Z0AdbNT6sDj/GbNr9tgcZ0kpTwRupqpkW3eIh5QkTlk9yaa7fXfCdFNzsDJOYskFXfs3q00C6f1XjKQkx/8IN/ZSolbX2htPs7XedjSSd2L36nBUv5hjIM3rwFXV8wPAtlJLpQTrYctPgyTLQIAuA+GT8tWq3VFtv9nSYRTYa4AKMYfKfcB3bY7aJYXYZFGurrjAmZ070RRbdkxzWFjbp1kRZ3i1LBzkPXqQiC1XuS+qmbfivunovikIxkQzJ1fQGlpcXGYklE3DGT7TQthej2fbwu8qgjbzBrP6BNMQrPS0SwSqQNdvfWbXEF8oQAFifrtAtKYTskBFHuJ5osU94daseXXQEj9x4h2kvRy61qSyU8nhwjsXN2tuKY5Ft2nQdbW1xXvaT3srXSXqqIleniLYwoJEU2/uk48eZJlI/lh+vXGQuU5YAW1Ha5odxsLtAxNG1OmqhcJNjb50rcBMxztlBoFNmKYno2lD7Emh9XVkjAOmdLJdQ0Eolid7MPsoqxsqrjduJnOhE9zmkOL+ZypJQX5Okq5oQiLzPxnpHYRc9J9HIryF8Dj5pjVACM5wVs7VuJOhdQ7iXKBZsJxDYWFuQt6UY4sGgXrZufTqksRGEjVajYSqZTG8UjXbYmlVDTTI1t8b0Qr29Zc6em2/alA/K2pLXr6bYLGcuV7ZZUQk31hQXsbvLFhPTazfllAqwTge6gMb6BRU8wp3UgbRxr2hwiWtRov3WeRN7IAFwXz7FDdASRbVA4RQ3aeSp7S4pQ6i1GRIuuPOGNXnJuvXba/Z2mULJ0QoZtaHjEmJh4PDlG3O5SV7FKF1urNqGwMM9UitspZ0F4fNF121tSbFrgi55t4iJCVPxpV3f9+nX4X//930jbI+4SyQyVXX65RFV2J+JVAAx0B42EppSE3glaoK5UrxsikSSXwd4+eDw5MeELDfV1OP9Fh5F41Yq440wGh3YUkjVCssTvYptOPw7bq9pS6SiOEuLLIKEqvI/vHV3nxUtdyxKCZxUkZaFChFOoKW0q2PVbKplOtsONSJBsSKaqrpZWF5R5f4pu39nZiq0XiSiopzoxWinX5SbsyA3Uf3f5GrFjezV2bK9Gu7/TCAO0TrBogWb1DKJjuQ0lsGK3GZJMcYXw+KSxWzk0PGK8Z8Tviwvxp1uaoOsLj6tzm7EmQAee5Aije0Q5uE63XYjr9Wq9TtH7BYi/KKecqG6rV8sYGh4x2W3xnWqtyH3lagD79jYZz1LcqJBhXZAAT4RKEmxpobtcuQLD45Pov37DVIRn+sFDaZ6udBLoDjrOeewQc7hOP3ho2nUn7w5rDi8xrYMs6XQqoab1P6oFYN44EvuQ2L/FOWKpt9j2ulP1WBa9aS51XIVHzTE9XzGPT7C3D4WFeUZOKCvUXrGwG3m5UYj5a4efN0V2OD1P68ao1XMinj0LhUaRna1kpG/Sfc/OVvDGay8CAE6d8RseKbq+gHk9NXsTDyoKZ837R6lvfv3hJxmNMtIeizh2aTO+a6QSapqJsU1RVcmkIsqE7UvV1ohzCjouhZZmKsWJG1IJNaW5qSi8ibmGxTm/KNK73UCiOa6xFmz2ufIEI+cJShcAwGJLJ4w0Q/3XbyyJPmNda1qxrlNlxf4yQXLC22OXbbtdODHJLO0+AZlLok0TZFF0GgtPGEmUrdjtwq8UCgrWoKBgjXFNVAFxl68xpvNQWBTtWss8jqwJ7tv9nUY8s6ZFbXd1rTknZAsMp8IWkTS9JMl4ZGcrmJ5+GNMOXV8AVq3C7dAonj90xJWRdlLEqY8vRfVW8uAQS8OLuN1BHRoeMVVSsqvMBSDGsFMybfH84o6CFacEquKLtbAwD5oWRb6lb2naohj22fnLrquEOXkKynK2WQWR8PjkYsUvT07chN6ZJpXFrF0YhRiGta50LT45+V7ca3QKyZAhhkQ6YX1WYkGUT06+h0sdV42E0TJ7FtGirnZb7Vhp1+VU1dSK3diy86gTc4xZQ1/o/1dyWC+FTHrUHFzpCuCZfbEbK7QQ/7z9ckzhF3GHXOaFIMvdlaxXSiL9it7LiaYVsEJFgMQqyLJnqaqrUb11U0w4hV177YQlb0kRXn5pP06d8dsWs1pKvCVFCD1+rxPrSteaciqlEzEJM4XwiRQW5qH/6wHToo3mQB41BxOT/7Jovx5X2JTl5qPjf/ThESOxeaA7iIb6OkQiUVO/TMRD3k0FPiC2H4vvyoOtLVDVHJw64zeSw1vv89TUTNLCp3VxTiGIMi+pxseCO1UuJcTxZDcWrP0+WRE8kWJI5CmUiSJvstQGwGL0ClUypiJnmcq1TIUcxM1vmSe/rMBZuqBNfjuP66VIf5QuEo2gcWMLUhnbNIeQeROKuVNFaAxXlJfhzrd302r7gNRsDW1UWucUTh6YtGbNJIk4obidc1jtFM0z5+d1vPHai9C0xQIMdtV2xXmp9b3nLSnC0y3NeP+Dj21TGFnTBQBPxqhvZ4Np/mr9W6rY5ewWNyrGxiak7Y5Eooho0YQKN6WDhIW3RCafipKFqi2VxmAH0i++2S042/2dePOto9KFfSIlwa0LJbsE8SJO1UgTPf+B/Xuwu8mH4yfPSkumTz94iHldtw2ZIU+hjz48YvyOvCFIfNzla7T1SgJgCqmSCTrZ2Yq0WAB5JSSaI4UQzyVLREvimKJkwfcf6uH7D/Vo93cmJOgQ1hCDpfKKEquV2vUZMQ+CDHrBzM/rpklQbq5qMqL0TEXje+VqAKXe4rjj0jrBEneYCVEgtU4QReNIAjH1a9Gz0w2yCnS7fI0x1xnRovjowyPov34Dx058il2+RtsXrlvxJR523p+EKJCkej7rM1nKF4cbrDv01B8O7N+D6q2bpLnn7MISVhKJXJe1TztNjAnr2KLiL3YhwxR+KluE+nY2oLAwz1iciXlN0lldNxmsoY5OooG4SOm/vlhgpiB/ja0nsJuk4OLfD7a2GPY+3vvbDjEMKNjbZ2xYpSoQOSVBFrHzRJThtIhLpG8EuoP4Q/CP0r/J7r/TwthubplMegYZsncYPXOaawDOKVSoCp5s4/ZgawsGb96yDd0VN7noesQqiOStmUlPPhHR9lhz3hz94E2cbrsg9WCyS2HiBrG4VLwQRHrumjZnCHaRSNR2I9cuBFmEwvqoH9JiLdkCAmJ10ytXF72mUwmjss6va6o3w1tSZDv+yb7TdYnzoGRwKjx1qeMqRm7/CSO3/2T63PoOHxoewfsffOw4jpK1G6naAtl9tDtmoht4Ik62ZilIZGz3X79h5C112rBtqK/DqTN+0yYIsLjOqN2xDVeu2qd3Stb2JWtr7NLuyL5nnX/FW2/J7MzB1pZl3cwnRH3CPC6L8NGHR0zVdqnQBl2/0/qB5gS0vramNyFvO/qsakslfrL7xygoWIMTJ8/FhL9SpXZroSJZWgVKLWLH4M1bpj5iLcZo9SwUi3nV/6gW9T+qNZ6pXZ72dJN0VdNEoF3Uz9svu06YKiIasV2+Ruj6An794SeYndVsBRaarAa6g3FfAomQijFO9Zyya3E7eXH7OWG3e5rIpNypCqobQqFRUyiU1UjKXmYH9u9BQ30drnQFoOs6ALNyb7fDlK7JfTKkcu7w+CR+d7lLujtvhTxHAt1BY8ferdgVb/FHE2PReFsnkdZJodivKZREfHnZ3Zd4O/uKkoXqrZvgfbzz7NvZgIqK9SYvDje48fSQCdE0WRYRBXxRBE8U8aXv1rNtqbHutsnsbtWWSuPlK4ZCZjJUJ1VSuS473HipxBOF4wku6RKV0w2lSHDKsyaDBHvy2JKRiAhFUChbMgK2GAZEgqIsl+r3Dd/OBlM1yOXAraeX0zvM7bwm3rmcxpnd3HE55pSid4tsnNB1UnQEzcHEvIXJvHcGb94yil25hSo/k3dx+YYyadhpMvMoCtNLxqtTzBUkerGnInwlsyGSjK0jZI4EMvGOUga5OQ956S5uvMuf80qwG8mQDluTaZIZ227GTby+6XS9ydi+VGyN2+fk9nsiy7lWdMIa2WaFophOt13ApY6rAGB83+09oH5NAlxd7TYM3rxlElSJHdtrjPx/1uOLQt6Rtz8y5nHWtArW3OB2jj/iBifNK8V1lqghkVAs4tvZgNod23Cqze/qPqTKqkePHj1akjMxf1ZkosISwzDfb5xy3zEMwzDLh1P+UYZhmHTBtob5vsLCG8MwDMMwDMMwDMMwDMNkgL9Y7gYwDMMwDMMwDMMwDMMwzPcRFt4YhmEYhmEYhmEYhmEYJgOw8MYwDMMwDMMwDMMwDMMwGYCFN4ZhGIZhGIZhGIZhGIbJACy8MQzDMAzDMAzDMAzDMEwGSEl4C3QHceLkOej6guP3wuOTOPL2RwiPT6ZyuoRx2z5C0+bwy3eOYWh4JO532/2daPd3ptpEhmEYhmEYhmEYhmEY5nsKe7wtAbq+gBMnzyUkAtodw40oGI92fyeeP3QEge5gwr8Nj0/i1V+8n9RvM0WgO5gxEdRONNa0OZw4eQ6aNpeR8yYq7DqJ2+3+TtfPy+150yk8JyJ4EyuxHzIMwzAMwzAMwzCMlR8sdwNSJdAdxLVAj+N3Xjn8nvTzdaVr8fNDP4OiZGWiaWlFUbJQUV6GnmAfyjeUJd3mdn8nBga/QWFBHnp6+1BRsR7ekiLXvw+FRgEAFRXrkzp/phgY/AYAcGD/niU7Z3a2gjffOoqDrS2o2lJp3Nt40PeXgnZ/JyKRKBrq6zJ+Ll1fwOm2C7g3dh/A4v15+aX90LQoPjt/2fheTfVm2+dkPYZ4HOqnur6AK10BzM/r6P96ALU7tkFVV2fwyhiGYRiGYRiGYRgmOb7zwptvZwN8Oxukfwt0BxG6c/c7I67Fo3bHNvR/PYBgb5/tNTvR7u/E7dAo3njtRXhLihDoDuLUGb9J1CBkAojIsROfxj2fVTBJhaHhEZN4I2Ng8Btb4etgawu8JcU4fvIsZmc1099yc1W8fviFhMQbVV2Nl178KYaGRwwx9MD+PY7Cn6bN4fjJs67PkQrW52f3vA62tgBAzL11IyCK3zvY2oLyDWXGf3tLinGqzW98j0TuYG8fph88BADDY253ky/muLt8jfDtbMDQ8Ai+7ArAo+YYfwv29iGiRfHeO6/id5ev4srVwJIKrgzDMAzDMAzDMAzjloSFN5mHGXmU/WT3j9HT2xcjbBC0+HfyeEmGeF5vMo83agOJIWKbSYRYV7oWpd5i/CH4R9tjDwx+k1aByQlVXY2nmn34siuQkJePKPi8+/arxu9IvDt24tMYLyxFycJrh583HSfQHURPb9+SXKuMZAQymdglXisJO4lAv3n98Auo2lKZtPdaeHwSp874MT+v235HJoDRfQCAK1cD2Le3SXrcxvq6mGcIPBHlIloU3pJiqOpqnGs7CuCJGBZvfMq+l2wYtRODN2+h1FtsPPNAdxD9Xw8Y/aD12b04fvIsAt3BpMRohmEYhmEYhmEYhskkCQtv5GFGi3cAJo+y+h/Vmr5P35uansmYYGPn9ebG401VV+Pvf/MGgCdeVVYRqrlpp+k39D2rgJhK2Ct5+FihUEG6hvINZfCoOa69fOzaSvh2NqCiYj1OnfGjJ9hne680bQ79Xw9goyU0lYStp5p9SxY+mQluDt3C7698Zft3UTSu3ropbedVlKyYcUFjpqK8LKZPiEKhruuYmp5B8HHIMACEwxP4Q/CPePml/fCoOThx8hxan91rCFf0vObndbz80v4VHaKpaXOYmp7B0y3NABavPXTnLn711itGHyXx7dSZRe86Ft8YhmEYhmEYhmGYlUTSoabTDx5ianoGhQV5jt+78+1d3Bu7j+xsJdlT2eLGYwiwF7sAs+A1ePNW3HPq+gJ6gn22f5fljbMTKa1/c4OiZKGxoQ49wT7Dw0gm0ogCC4WW2uEtKcLHv30X7f5OvHL4PakI2H/9Bubn9SXJFSYjWc8yUVh1KoSwtWpTjGgMLPaxz9sv47kDLcY9tBYBiBcGm6mcbvn5a7DL14gvuwIoLFwch15vMY5+8CaAxest9Rbj/Q8+NuVaW1e61iReWXEK2RWpqd6cvouREB6fQLaioCB/DQLdQfRdvwFdX7Adz9cCPZh+8NAkMIsej4l6SzIMwzAMwzAMwzBMqiQtvIVCo5if13Fv7D6OvP2RbZ6wnmAf/rbhrzFw013OqEQgwUiEEtzLxI5AdzBmYU5o2hzGwhMA4OghdufbuwCAyo0/TNdlxCCGMsoQRSgS38RCCVbPvUB30FVOtoOtLdi3twmn2y6YQkrJ262xvm5ZQkzj5Ztzw7rStXh6X3MaW2VGFgabbE636QcPMRvRXBWwKN9QhsKCPEQi0Zi/qepqNDfthKJkGc/fjQjoJhQ8U1VkRQZv3kJFeRnufHsXoTt38e7brxpioZ1XYLu/EydOnjMEbkXJgkfNQUSLvT8MwzAMwzAMwzAMk2mSEt50fQHh8UlUbvwh5ud1lHqLcf6LjhjhgUSqioqyjAhvIiQ27fI1GvmqCPKM21ixHrubfND1hRhvn/D4hJHAvbG+Dj29fTF5o0hIbGyoc+UdlyzWvFZOKEqWkecq2NuHA/v3oGpLpekeOBWgkGHNC3bl6mJoY+2Oba6PQbit9OlEvOqzTqGZIuTxZvVOy81VAcAolLDcxThCoVFEIlHbwhciipKFl178KcLjk6bPxdyF2dmKyevRbR635UTXFxCJRI2KrG49Bq3XJMtVyDAMwzAMwzAMwzBLRVLC251v7xqC21h4Ar6dDYhoUZz/osMQLcLjk/j9la/w3IGWdLc5BjHU71qgJybP2rrStTj6wZuYfvAQX3X3xCSjJ0Gteusm9PT2wePJMfJGFRbmGYv+Sx1X4fHkoGpLZcaEN/K8e6o5ttKjHaq6GrXba3At0IPqrZvSGtY4NDyCgcFvsK50LRQlyzaPnVXMooIT8Sp9JgoJSrXba5LO52VXXEFRshDRoklVjZ2d1fDmW0fjfzEO4fFJ9PT2YZevEYC88EU8SOy0yxsYj2RCTcUxKHomip6WYojoWHhR6PZ4nlQrFVGULOxu9uHUGT/ufHv3O50/kGEYhmEYhmEYhvnzJWHhTfT6mpqaMT7f3eTDqTY/ph88REH+GlzpCqBuxzZ4S4pivHHSjdXDy0548Kg50LQ5tPs7TWKQ4ZlXXoae3sX8bd6SIjTWL3q2VW2pxNDwCMbCE7bhn+kiPD7x+PzFCf2udsc29H89gJ5gH8o3lKXFY0vT5mIqflq955a6uEJEi2J+XjdymqWT8g1leKrZh4uXuoywXbekI9RU0+Zw/osObKxYb9zjwsI8w5PTTkTT9QVc6QoYYcepip3JhJpWbanEJyffw+m2C2hsqIO3pBin2vx4uqUZmhY1PAmDvX1GuHe8cFVvSRE2VqxHT7APY2MT0urC98bum4TgZCrfMgzDMAzDMAzDMEymSFh4Cz4Wpso3lJmEN1VdjV+99QqAJ4vypUzEL3rcHGxtMYQDMeROpCB/DXw7Gwxx6almHxTFXACChI7w+CQuXurCM/ua4y7o743ddyzmYPe3ivIyQ9R0G2YqQl5vPb19GJ/4Z1y79oeUcqLt8jVi+sFDeNQcVFdtMvLfLTfa41xdqhrrKSXzdgTcCUkEeTOGQqNLms+OPAmtAlvVlkocbG0x+rZMcLzUcdUoYKJpUfzynY6Y/i6DvNoyVfwhHVRv3YQvuwJoqK8zVRd2G17MMAzDMAzDMAzDMMtJUqGmjQ11th5V7f5OwzNsqfJkWfOIiWGPFPJoFVHa/Z0IdAdRvXUTKsrLUL6hzPAYEqH8cI0u80ylUtVU1xcQ0aJobHAvWIoeZ6I32obD62yv5Zl9zXGvJTw+icGhW3j50H70X7/huj2ZZvDmLWRnK0Y+PpFkQyutLGXuM11fwLETn8bkYRMh8e3ipS7UWfLs0Xg72NqC31/5CqqaY1RxvdRxFbWPvU6tvwEyc53Z2YpUFPV4clK2B+QR2PrsXtOxNG0OV64GsG9v07Lm5mMYhmEYhmEYhmEYKwkLb07Chii6LWWol11oXXh8Ep+3X5b8YtEbr//6DeTnrzFyvlmFN1F0cyPoJFrEAIhN/k6iiVso9DIeFI5oFRDb/Z3SvHDekiLDg3GlQPnvZmc19F+/saI8nZLN8aYoWXELKABPKtkODY9gcGgxv2B4fBJT0zN4/fALMVU7dX0BhQV50qInVmR5+9wWxKDv1VRvxu4mH2YjsZ52omdsokxNzcCjLop2wcf5F1V1tWms6rqOqekZXOq4uqILRjAMwzAMwzAMwzB/fiTl8SYj0B1MSnRz8gZLFKeqlHSexoZF4clbUuQodpB3jVvRbblwCr0UIdHCWqW1ob4O57/owNTUzIq+TuBJ/ruf7P4xfn/lK1Phi0Swq2qaCsuRW0wUR63Cm6Jkof5HtRgLT5iKnshIRjCWQbkcrd6IlPfRihgObkUMGz7Y2oLpBw/Rd/2GtFhLfv4avHxoP46fPCutRJwu+8IwDMMwDMMwDMMwiZI24c1p8a5pUaxatUoaHkjhlbXba5JeFNPi+t7YfRQW5kHTosi3LPQ1LQqPJwefnb/sSiRR1dW23me6voBIJIqK8rKk2psIBflrMBaegK4vSO/P4M1bKCzIkwobxNDwiJHQHnjiySd6ypHIsVLFN8p/V7u9BvU/qjWe5brStWh9dm9Cx7KraipD06LSEGQR8kZbiezb24R2fyemHzxMKGedzHtVLBYhGz+h0CiyFQWKkmXcM13XEYlEUb11U0LtFsOG6bx1krBZQlVXSwtjpMO+MAzDMAzDMAzDMEyypE14ExGFMGKXr1EqdKVapZLC5GQ5skTBT1VX48D+Pdjd5MPxk2fx5ltHE0q6LxZvABY9nGot+bYyAVUrtQtjpBx2dqICFYaYn9dN4YO5uSrefftV45nQMxMFOiuB7qC0siQQ60Umti0dRQqCvX2LAsrje06VbNv9nca9sVa4FCGx1SqmWkUzmSi5y9e4pIUWRGTFQezGkgxFycJLL/7U+LeTaGwtULJvb1OM6Pirt16Bri8YbaKchgAQunMXFeVluNRxFQOD32Bd6VpEInOIaNGEq/SKhMcnUOotjvFks3r5VW2pxNTUjKkwRiar4DIMwzAMwzAMwzBMPFIS3uy83Kx5y5wIhUaRna0ktTDX9QWE7tw1ecdYhROrSEGebIHuICKPvZlItHLyciOhZ6lxalM8wuOT+N3lLpPAZoeiZGF3sw+B7qCtd51vZ4OpsuRSER6fNMIMrddhl98vWbwlRfj4t++m5VgyAbqmerMh9HlLinD0gzcdj5HK8yes4l12toLdzT7j7yRe11RvjunjYj+ge68oWUabwuOTOPL2RyhZ+1eY13XU7thmiNzAoudc7fYahMcnTKKe9d7k5qq2NkAUR8V8dDLx22qPUrEvDMMwDMMwDMMwDJMqqx49evRoORuQyQqLDMP8ecP2hWEYhmEYhmEYhllOll14YxiGYRiGYRiGYRiGYZjvI3+x3A1gGIZhGIZhGIZhGIZhmO8jLLwxDMMwDMMwDMMwDMMwTAZg4Y1hGIZhGIZhGIZhGIZhMgALbwzDMAzDMAzDMAzDMAyTAVh4YxiGYRiGYRiGYRiGYZgMwMIb851haHgEr/7ifYTHJ5e7KcwSwM/7zwt+3gwDhMcn8eov3sfQ8MhyN4VhGIZhGIZJE//qvffee2+5G5Es7f5OXLnajeqtm6EoWa5/Fx6fxK8/+AR5a/41CvLXxP08He28OTSCrVWb0nbMTKDrCzj3+SX8m3/zP8Gj5iT0HV1fwMf/2A5Ni2J9Wan0t0PDIzj+27P44fp1tseP177JySmE7txF9dZN+MEPfuDqd4HuIP7zxS+l/cRNu+3a8vE/tuPOt3eX/LnG609DwyM43XbBcVwEuoO4ezdsuuZM9f9kSfZ5t/s7Eeztl/5G0+bw6w8/QW6umtA1LufzXmk4jSc3f7fjz+F5O7U1kwS6g/jvf/wn6bW4sRcE3ZfrXw8kfA12174c9yTeOZfrOQHAKqzCP//zNP7p/x1KaAzFs9+B7iD+y3/9bwlfU7LjOVXi9ctkx3Yy7bh581ZC8wMrbuZWIuHxSRz/7VmsK12b8Fwp0B3EP3xyHl91B03/W7VqVUrXwDDfZ8h+/p//5f82jZsHM//fipvz0Xv4d5e7TG0N/j/9Sa+vGOb7gt078C//Mn9FrG2TnlGGPXuEEwAAIABJREFUxydx6owf8/M6ACA7W8HLL+2Ht6QobY3LFKHQKLKzFXhLil19ngmGhkfw2fnLCf9OvM/WZ5AoubkqXj/8AlR1tfHZ/LyOYyc+xcHWFlRtqYz5TbC3DyO3/wRvSVHMs25sqMPFS13o/3og5rgAkJ+3Bo31dY7Hd8JbUoTdzT6cOuPHnW/vuvq9ri8gdOcuSr3FRnsC3UGE7tzFzw/9LKHzp4KuL+B02wXcG7uf8G/Xla7Fzw/9zHHRMzQ8gi+7Anj98AuujunxqPiy6ysAgG9nQ8JtImTXlcyzlZHM89a0OYyFJ1C7vca4X+3+TgDAgf17Um5TMgS6g7gW6AEA1FRvTrodQ8MjuHipK2E7K54/UZbSrn9fnncyJPs+EKFnpWlRwxaINvh2aBTh8clleUfLnpPT5yKp2E7Anf1cSajqauzb24TjJ8+i//oN1/bZOn8Jj0/i8/bLeO5Ay5I+83Z/JwYGv0n4d7L5iBVNm8Pxk2fxVLPPcZ6WzvE0NTWDnt4+VFSsh7ekKKFji+9CVV2N8190xL3GdOPGhtN9LfUWf6fsph10PR41J+Gx3+7vxO3QqOM9C3QH0dPbt+Rrnni2MJm5F80P3Pw2lftqB11TRIumNDaobbOzWlLzFm9JEY5+8GZK7xoR67NK17zYDjfvOVozNtbXpTTvXynQ9WysWJ+Q3XLbj9v9nRgLTyy5zU4VNzYMyIw9cXtu4Ml7epevMa390bezARUV61PSRzJJUsJbeHwSge4gjn7wpmmxk6ygspSIQgwA/PKdY5id1UzfefOtozG/I6MW7O2TLmIT7ThVWypxri32PID7haO3pAgf//Zd02fixJSeg9vjKUoWfn7oZzjddgGfnb8c8yzD45Po6e2TXquiZKFqSyXKN5ThdNsFXLn6/7d3brFRXWm+/6c1kne94Co/ALYGsI1gsLkMxuYB7JHOYPe54ORIB5M54tKom0AgIZ1JRNKBkHSS7qQJoVEyBBKIjRmlwZYm2PNAyi/t8nkYQx7A2ALH5ICwjRnZwINrGx2pyk+cB/Ntr71qrX2p2mUX5PtJLXVMVe211/Vb3zWKwvlztRd+WXANhQzseXk7Ll78q6dDz0nwFds3dv8hRsceoK62BsD0+Eci+TCMPCSTk9rf8Xrh010yVAeh33lCSkI3eq7dQCSc71kQWr+uEoWFc3H8RDOA9JRv1D8A8MWxD2EYeYh2xJRzx+n7QY730PAIEokkysuXArBf7L2+T6bjLe8RoZCBd95+NW0BXbzohUJGWr8hz0XaJ6rXVWnHni7uQfGsjncQlw+n80CHThHb2zeR8tn6jbUYu/8QF9qis6KEEsdJpQi+GO1UnhV7dm9D2bIlAFL3Ti+KaK/750zjVTml6xfArsRXGZgGBm7hueee8+T94EU5r5KLALVix6+BgQxHbtA8Cru8U5DrqaR4AcbuP0Ssqxu7dm5x/W0a26rKVdYZaBh52LypHl+ePIvGMy0zugZ3bG9wPXsuXb6C8XETLzbUz0ibCLo479jekNP3BhHTfIRLP1xFUeG8rHpPNDW3Ih6fUM4VL0rqnxOiIuX3h95Ie20ZRh52v7TVUuD5QSVPLC5dZMnG2aSgIIzdL211fU6sqxsALHlppkjXaDybDA3fw48Dt7C8fOkzv86exf2kpHgBdmxvyNgAlw3SUryVFC/Aa6/+2va32g01+HHgFnqu3cjpA3Ts/kOMx01sbqhHODwHf/rjOwD8CQDihUtUPnhFtMw4oRPMxUWiE5hVk038PZ1FiA6exjMtiMenL3DJ5CQutEVRVDgPtRtqtG02jDy8vX+v9d/ypT7aEdN6xAHAsv2LbZ8lzzTdgeK2oQ8M3EJR4Tzr8pZMTiJuTliKOCfkdxGhcY9E8n1dMJwuUjoWly5K+RuN5a6dWzx5jaigjann2g1f7SFiXd0YHXuA11/baT23dkMNBm7exndtUZQUL3TcyOX+DWK8e67dwPInngkAEDcn8PjxY0+CRlDjXb+x1pr39E6igO62/unSKj7z1MnDliUpCC60T11yq9evDeT3vPCsjvfTwuZN9fjs2NeIdXXPuLVbHKeS4gXW850ul4TKOGKaj/BdW9Q29k8Tu3ZuseaV6K2s2y/d5BNRrhH/JirinBD3LBm3M1vF1Z7rvr3eCgrCKX8bHzfx2bGvrWf3XLthKTycjGZBU7uhBsdPNKO3r9/qf9l4QWMUChn49JODKX1lGHnY3FCPb5rOW4o8tz46cvQrAOl7HovKPx2ktF1cusiSk2aKgYFbWfFIEGX7oBkaHrGUlNlSqJBMxyGD3qAx8SsDqwiH56B6XZVvOV2UJ0h+KC9bYmuPm7dsuo4rLz65zzpBc2o2zsx07xhuqJxPgmLgiaztdN9lcpuyZUuwuHRRIB6sQRJY8pJIOD9tb4yZZGDgFgoiqTlBZAWNX5LJSRw9dspxgK/2XEcoZGDnr/83AP0m6+ShprIMi4pALx5vsieLzvPjzuBd/NuF71Pa8Mb+6bSA2QzjKS9fiu7LVzB2/6H2oBgdfaC1PJJAKR5+dEDLh9+dwbu2g1Z8r96+fvRcu+HpAm6aj9B4pgW7X9qqPAgzcant7etHZ6wboZCBxaWLMDg0YiXgHh83U5R6soeCaqwqVq8QLhJTilY3bwJgum/lvjeMPJSXLcHFaCeGhkd8CRGZjjcJFqLVfmDgFuLxCesCQ8jjL3poBDneTqjWP61VwFkxlAmit43Ki4UuednmWRnvdMLaxD0UyH4YCjB1oXixoR6dsW7UbqiZMY8b1TjJf/fTFlFxPT5uKpUXtNc9DUyHhur3S9OccEyDIcs11Leq/hHnnqjQ8buXNTW3onLNSmWbMwmpN81HOH6yGcvLlqKgIIxIOB8X2qPYvKneeifxHVTe80F7VpQUL0DlmpVIJOzKvtf3/QbHT57FxWinp+dSOBtgV77KBBEmHAoZni6NN3+6jTuDd/FCfd1TE449WySTk+iMdaOgIDwjKWmY2aF6/Vpc+uGqb683L6i8i+hMSwevCvPZ8mp9Gpkpr1YmuxhGHupqa55dxVvcnEAikczpSUqLKRLOh2lO4PjJsykbq3whEqmqXKV9P6dLsqz4Ms1HAIBEIlVZ90J9nfX/5QtdVeUqVK4JPsmnU9u9egJ6sdr7pXD+XBREwk8UQqnCp0qxJkICZXnZtLdbZ8weKitapnQKMcPIw+DQCJqaWx0vE+KFUHeJ8qKglaFLTM+1G4hE8q02bW6ox4W2KBLJZIoiQTcWlJDaSaCQlRYidKG1QngVF/iionkAppQmfpQJmY43CRYErXdRqaFSTMtkMt46JTbtK6GQgR3bG1z7IluISjdZ2SN6cFAOSR3j46Y29IyQ/12+jD8L4w14D2ujvncyVmTLIk6IivaZQhwnlYe20/tSCgJCHAPVBYY8JDd7UObdGbzreN4DqfJA0LlIgCmFaGnJQsf9sufaDa33mijXEJcuX0kJu/LiYRoKGTYPMx3iPqJrs99cb7QuhoZHkExOWmfdr7ZtwoX2DpxraQcAy5vMy9oOcj1t37oJgN5jmfLjirjNl3Mt7ahevzYrHiheL409126goCBseT+LYXvP19fim6YWyyuN9nA5v7BK0Sqvdaf8xDRG8u/Ic0j17z8O3MKO7Q34ri2K8XETVZWrLO9eOYeTauz8KIlFuUdcH6pz/5e1/4DBoRFl7jJ5Xop7mfjOpGSmvvN7v3IaAzfkviooCOPll7YqP6t6f3nu68aK1pXq2ao5qHI0oDaS8dnpM4D7mNOe7Efxpsq5LRr0F5cuykqEgU4+ElF5tYr50SrXrLTNRxo7eZ6q9jOnOSZ/n/ZH1R1MN3fEuVC9fi2+PXcBwNTeHQ7nK3O8qfZ9P3u9zqtVflf5N72sA7c+c3tnep78G6o5nUwmU+6bmciQ8n7sJ0TVjz4jk/1E7oOS4oUoKAhnRYmeLoEo3shS6haGmA2cLoDyZL50+QqMvKlFFA7n28JMvVoXox2xjNssusGvX1eZ8u+kqNNd6HIxlDeRmEQknI8Dhw4Hdjkh76nOWDfKlqUeLjd/uo3RsQe28BqClGwiFI7jN79B2bIl2P3SVhw/0ay9nIsWK1WYifhOKiXn0PA9/OV8G17ft1P53WRyEvH4BMrLlmDs/kMAU9ZzKmjxq23elDlOIRhOCYPlkGrziaJd/Ywp71dqp1cyGW+6fIoMDY8AgG/LdCbjrQo3AJAi/M8G13r78ePALbzz9qsAYOX3q1i9wneunSByQjwL4+2V3r5+xOMTWLH871xDq4K2iLsxOvrAV35IwFlpJbbfNB9h4OZtyxteDGn0mntUDCm80B61FEqxrm6bkohCIj94701P45NLRRcq16zEd21RVK9fm9J2yjWjU9iTYpMUb24Kax3h8Bzs2rkFX54866h8I+HbTYBXeXSRN9uvtunzjk3Px6k5YxiGVWyiel2V77WXyXoSLzeyF6X4/rKxSz4vxQuLmEoAQNbyLlIeWyec8hjdGbyL76PTuZypL672XEdBQdhaZ+KFisab5GSSX6k/qLgEhYjpEvuLCfdpv6UzSt6jE4lkSjoC1RlL9xRxLlDbC+fP9SSzqnJkqc4G8eIoh1DL70yfpTW3a+cWreLQa3i1qv/o2UeOfuUqo1NfFxXOs5T3ogJLVPKLSgLKZybOCfE5qrFyeqc7g3fxl/Pt1lyjdn158ix+u+83ljyrS9Ku+ju19933jzjKMH6VnGLYo66IAUWoBAkZup1w8mqlfYnWalNzq02BKeZvpr1QTKUiflde53SH1SXc9zN3SAkj5sxTGYcpgkG8Ozc1t+Lbc20Ih/Nd7/g6r1YqtCCup7Z/77BS6nh9F7c+E+ej6p3p86NjD2y5o3v7+m2pEBKJJP7ly2bs2b0Nb+/fa33Paz+IqN6N+uTAocOusgDNHXEd6oxime4nMoaRh0g4/9lQvMmdNltFFbxeAE3zEcbuP8Ty8qUYHBqx/ZufJMSA+tJRXrbEmth1tTWeK26qtLqESkOsuqSo2uMlx1uQrF9XifXrKi3lTXlAeQTKy5eis6tbWeVQzu8kQgeNSKyrWxlm7IWS4gWo21CDuDmhFBTo0u9lLjolddeFh4pKQ1Gh5dQHfhm7/9DVSi4L814OfT+kO96y9xMdnl5zHMkEMd40B1U5+maDNRUrbIr+11/bieMnmnG68bztIuUFv4oaHc/SeOsYGr6Hf7vwPV7etQ2xru6cq7I0dv+hp0u6iFel1aXLV1C5ZiXiXfaCD36KYIiI5x8JYLRnVlWu8pXXye87ZxMS8FVVTJ3SYKgU0E4KazdET+pkMgkg1WN6cGjEs7yn83qTPcNIjjOMPEtpGApNjw2tv5nMSQlMK4ozLdJBSkg5lcDzG+vw2bGvPVdxDhrKsabyPAiFDJvnqBh+J+aUojw6g0MjMM1HCIfnKItv1dXW4HTjeU8pKMT8sfQc2qMvRjtTQpzrNtS4ykDh8JwUoye1feDmbdfwe5r7sox0oT2KRCJpa6uYpF9ELFBmK7zxpJr3hfaoJ+87lcOBuCefa2lP6T9gusiOk4xO+ZxDIcOWsD8cnmMZqEQoX6z42YrVK1BVuUr5HC9jRVAbxDmwvHwpfhy45ZiiApjq62/PtaGqcpVtPorv4dTfmci2uXbO91y7gVDIUDodFBSEsXnT9FlB+doBKNe/uFYyXede5g7dy+X9SIfKq5/eaWDgluvcI69W0RihM1A0/K+Nvt5FzG9LOPWZ6p1jXd24M3gXe3bbHYVUfS3vM/QcuR+c9hMAaDzTkvJuwJQXeDw+4ZjTm/Y8eR1WrF6BF+rrUiIggt5PDCPP8p7PFdJWvIneWKRI8FrNcDagKpsqxu4/9HWRdCquUFg411NiecBbDicvIUyq9jglBQ+6WqGI6NHglEReXuQ6CxwJW7JXTG9fv2VBkaHE2+TqD0zN0dKShYisSf+yJbZPvpynE8Jlr86Y6vFGOd0Ae24YkaASv4sX4Zs/3fac8ypo0hlv2tj/afPz6Oya9nIsLV2INRXph2ZnOt6UUDaRTKKpuRXbt27KmapB8oVYPHizEU6n41kabxXkZfFPm5/PySIAoidt0AwN30NP7w3sUHjjUmqKdC83qrOFEvpnI8dXtqH8e7LXG831HdsblOcWeQBWVqy0zjrDyENNdfrhiyXFC7RySTpJ60WDocrjjc4+ajs9W/QOmY0QaTdUxk1ZrnFbV5TI3avMGCRuRRVU+VvpEix6gtDFJm6mVlMmRCOyWwoKUiarjC6qNBY6hYIbsldaMjnpKBuqws90yjhgur/Efol1TeXolRXIlCM7HlcbfmScHA6c2gRMedde7bmuVUKoFA9yO6f7ZEohIYfeAlMeY1d7rttSSfgdK9U7qH5XhZNSuXD+XBQVzrMpi4OC+h+Y6p9zLe3KcNqZwq2ogmyspDGOhPO161+Hn3Xude7QM9PNtyaGAHuJwnEqqkDrU94n/K4DEac+k9/ZTyEc1VrTRSM57SdDw/e0+4GXnN5O61CW/7K9n+QKgYSaGkYefrvvN/jy5NlZESDcoIOsev1aXLp8JeXf4vEJ13wvXi6jhjFdMt7JkuI394kKEmblamRerN2iEsfJ+0rEKU+KzvtBJaSnUyGNLC3nWtqt/CLfnmvDju3qcJW4OWGFPQ8+0dQbRh42/GO1p+eJbfVS2chpLJ3mjarCqcrq4IQf7zmntgwNjyCRSKK8fCmSySQGh0Zw9Ngpm0I3bk6kWA6cDlc6MFTz3aktfsfbNCewvHwp1lSstBQxhpFns0Z5IcjxFoXf0dEHGB19gMYzLVlJ+K6bA7IRpKm5Ff0//l/r33TFW043nres8jPBszDeKsScebmmNCDSDb/3gmlOoLJipbJYC4WqO50rohcUMLWvv/v+EW1+N6KpuRVHjn6FxaWLUFry9CRAL1u2BJFwvrVPJJOTaDzTgroNag/6ZHISyeQkNjfUW5cF+h0/RaJUuYlUOOV0dPKAVFU4VXm8ueG1gvtMhRD7CTV1giqBq7wds0k2iyp4nVMqSCmfTmVcN9KVvXXhZ9TW0pKFnvJsxeMTjulxgqhi6tamcNi5EJ7pkK9bVr7QZ1Wy7Gwzdv8hQiFDef54URanC8nSkUi+JW9FwvkzXkmcyGZRhUzWebbmjpPDh5fvqooqkKKW9ASy3OfnXTLpM1EpPnPFsZzz97sZT53WobwX5fJ+EiSBFVew8vV0dSNuTuSU4s0w8rRKMDevM4pN93oxIbfxv5xv01pSnKpZeUkYDLgn6XdKkC9SVblK+/7ihd6rJ2M2iiyIruHnWtoxcPO29jICTCkWX3v11zbLodtmLFc1BaYEa53HISkovAr5pLgqKpqnnHNuOd50qH7L7xiQUEmHjWHk4Xf7X8Fnx762cmkQtPm6CW8iTvNdhd/xJm8IMa+L2+Gmq4SnE478jjclNy8tWYhQyLASBJ9rabe59QeB1+qnu3ZuseXGePOtj5BIJG3vJHoyOxVX8JKY3mvS6mdhvGV0OV5mE1Uid12V7yBQjZP4b7q9lfqOLPG0j0eEvKyAXREjCsLifuOUk9XLxX4mvT/F8LSm5lbr8uxU9Oe1V38NADbFm5tyQV63VZWrrNxEMnRuUiidl/w4ogelvPd7yfGmQzYyepWVch0KASIP6aDQeWcQclGFoCAv30QiaVOQ07r2SiaVcVVEO2LWuhDXNeVuckJXVCEdvKTH8ZrLLVeYyX1yphgdfeD7OyRL16xfi8GhEdQ8WVsXo52Bp2UhnIzffjyk/BLUOnebO35yIpOxanzcTKnY7SWnp66ogng2j4+blmJIbruXdwmiz551gtxPSCbJJQJTvD2L0EEtx1K7UVK8AL8/9EZaz/SaIFy+bLuFmOqSjzpBFtFf1v4DLkY7PXky9ly7EVj+JxExv0c67qW6EBkvVU1V36HqqMBU+ICX7xpGHsLhfMeLkcoSGkQieyfEfCpiPo/f7X8Fx082W27JolIjonFZBqYvgZl40WQ63mKiW5F0Lmt+x5usZi821FvCW0nxQrz+2s4nCvnZPwTE/ol2xGyV07zkwHC6FPnx9hDb87SOtwzttemmXfBSMdYP4h4nJzamnE2zlWNKRizU5BaeQ4oYej+5mp0OEsS8eCvONBRySoriPbu3+f4NnaHDS1VTGTIg/GrbJkQ7YjblvRNFRfMcPUpVhsFshQgHvZ6IIEJNiWyE0lK+StV4ORVVyBS6vKZ7eZLDLoOQJUkBka4spSqq4Let5GU1OvYgq84Jbm0yXcL8nYpjWZEPT7xX0i2kNRM4hfjRGaC7q9B88cvNn24jbk6gen2VpcylNdBz7Ya2imMmOPV9dr1aM1vn2Zg7pCBPR2mv82ol6A4pOnGQQtXru+Ti3uiG27uNjj7QerQBzutQLtKXzTmRSwSmeKONimLDnxZ01fx6+/otjXY2LiRuHlg6QVEnOJxrabcSucsLki6CcnJDt/Z91xZFVeUqNGzaCKMjzwqB0S12sfpa0BsCCfE7tm/GpctXPFVmyhbnWtoBTOcAaGpuxdDwPccLA7m009qQDwbR421oeASdsW78dt9vcPOn2/iuLZqtV7FyCKnyP4TDcywFMnk/kbBG5dblHBm0D6Sbj4F4mseb8i6VLVtis5qSQn62qpoC6n2nqnKVp1yS9P10kuK78TSPN6GrNuWXIBXtThW7aZ4WFc7zbZTJlKbmVsTjEykV+3RJfEVU1bCocpcXLO+V2pmtwO4F0UA2dv+hdW7PRr7N3r5+W5XrwcERVyV0MjmJRDKJcDgfo6MPUhShoscbAOvMi5sTWcs7my3DVVChpipMTZEXP4yPm455dwB1HqOgkBU7lOvH6TPAtGzhJYG+X2RFi5iPS4dTjiynttI+I0YGuOVXI7zk09Lh1n/k6agz7jvlPyPFAbUtm7nSMoUKN/Vcu5GyBkQPRtU5k85lne5MU5WX7WMnVnIMGqe+z5ZXq4iXdV44f65VsEH8W7bmjnz3oHnrlHrCq1crKeBEw5Lfd/HSZ7pnZ2tv1OH0bl7ue07rUPbyzsac8Nq3M8kv/H6BQhzlDYQUP2K1I9N8hD988oVjyNJsEwnn4523XsF3bVG8+/4RmOYjbTUcgsKs9u47iDf2f+iaH80JCmc8dfIwqipXWZfgUycP44X6Oquc86mTh7XW72RyEps31eOLY1MhJNQ2+p9f4V0s50teB/UbaxGJ5OPLk2e1AuHAwC2EQoart54foh0x7N13EAM3b+OLYx9i/bpKvL1/L/bs3oaL0U7s3XcwK4eZDgpLoIshVfb5pum84zwfGLiFkGHYDnkK99u77yCOHP0Ko6MPcODQYZxuPI87g3dx86f0q6h5wY93iWyZAGCFTDaeabHmBHnPeak+pOJpH+9kchKRSH7a759tSGigPYYUbuJ+4RSeJ+YCDIKnfbzF93hj/4eIRPLx+Z8/SFsgqli9An/64zuBCBzfd3TiQlsUH7z3Zkp7xPd87dVfo6pyFS5GOx3HPijovCovW4I39n9oPZMq8YlV7FRQmCr979NPDuK7tqg1f9986yP3vTiAc8o0H+Hd94/YKlWmS29fP/bum3qPTz85iPqNtdi1cwveeftV/Dhwy3VdBg0pAMU8i5SLzG1/SCYnU/JAvfv+EezddxAHDh3G6OgDHDn6lXXmyXl3gyTI9ZRtmppbbTKbn+qPOjpj3SnyWlDGMR0lxQtRUBC2PZsM2TLk4SBfwEgh2HimJSWlwImv/tW3UpJS4YhylRiW5gRd2nXeStTWqUrAU+0SQ8pEqIrqxWin7VxLJidx4qt/tfYt0TsuHe+PzZvqEQoZKf1HUTziPU2GQp/Hx02rwuBUP0zdi3SfFeVAYGrMg9gb04W86K/2XLftWaLcq1M8p1OVNJlMorxsSVaV2SrGx03lHkoK43QrvbvhZ50XFc1DIpG0pUTIxtwhxc2lH65a8141b1U4RepQkQyRsfsPLQW213fx02c6aG0fP9Fsk3N6+/qzIitT+qxEIpnybiSzOd13qBLx1Z7rtvaJof/is4KcE6qq77mAb483sZCCaHUmBZHc+cvLluL4ieacrTI2tSFNXUZ7+/otT7PFpYu0yginqqYylktzFsvZ0gURgGX1l8MZr/ZcTynBrkL0jpMVdbt2bkFTcysOvvdpynjSBA9ikxdzy+m8cejyJXo/ZNMzgDwjiwrn4feH3rDN85LiBXh51zZtTicSdOtq7dY1chsuKpyX4klIFU2zZakSQ6mcvEuo/SoXbApH/ezY11beoIKCMD54701fc+BZGm8/Sf51ieWrKldl1nifeM3BJ+cCTJdnabyB6Tygbl5uM5VrYnT0geWVIJ9h4roXvYCoX0kAzKbnm6jQrN1QY4WJAvCd1gHwV2kzyHOKkphnEj5E57ROfqIQapqfXsNp08XJa1OU/XQhqz3Xbjzx+JgjfG86CkL2PCNP72zlPwoCuhhRCExJ8YKU+UahouJ+JXqaiHteKGQoPWj95kL1wp3BuyleitkMPwPsOTtJLlhcugj//Nud+KapxfZZMcXA1Z7r1h5PBcC+PHnWFv2Rydyv31hreZESe3ZvQySSr/V6cws/o3d4/bWdtvcNhQy8vGsrvo/GbAn8KUVMtCNma4cqzHrzpnoMDo3gyNGvrH/3eu7SntjU3Grrv4KCMD795KDr3lexegX27N6G043nrXvE4tJFeOetV3Bcuu9UrF6BTz85aJMDgeye116p31iL8vKl1t5JOBcau5fineWF+fPnWuetk2I4G6HvnV3dKJc8MrNZVAHwt84rVq+wjHtibrSg546Yi436uKAgjH9+bSe+OdOi/Z6uqAJRUrwAA08MYMTi0kU2WdHLu/jpMx3i2hZTNmRzvYn7sfhui0sX4fDHB1z3Y2qXuOe9UF9n7TEiQc4JWgO5xnOPHz9+nO2HRDtitpBRdJviAAAgAElEQVQFv9/NtLqFuMl6yXNCwnC6OXpkpZcq1EGVe4i0uWJiaLGtbknzxb6SD3KxTaoJLCZ3dBsn+mwoZFht6e3rx7fn2qzvpjNuFauX49Gj/+ermAMhhtDReHvJ3+b2GfF3vbSJ+lmcc/K4yePshGrM6fubN9X7rt6zZ/c2hMP5lpJBtQ5UoVzZyL+TTvEOQjXeXvJ5uX0miPEWUe03Tm3wMze8kskeKo67131cl2/y5zDeIqpqs0GuI/JaE/cGp/eleeAkwDQ1t6Jw/lyM3X+YcUVB6k8v4yQqPuU9yWvlbR3iZV3VZyrEirROBTjEM88PfuaRiKy01skKKtw+Q23yIuCqio/IYc1+csqpQqLFs+9Ce9TXfExHSFfNDTFf4+joA1yMdvreu0Rl5uuv7cTAwC1lYu6gkPd7lSzoZQ0wmRXJEY3yM1Fll8kc1VmTbr4w1b1Cd4fzm4tW1U6dQwjPPXcyzcvL5B6qgmu5Mr4zUlyBNp4LbVHfm4BcyWom2LVzC2o31OD4iWaMjj7w/fxsWC5VyBPrhfo6ba4mahNtyG++9RFef20nIuF8X1XLgGkrPHkIkmJRTG4+0+Pmx+vBK+lcjnbt3ILtWzdZXhykTHRy7ZdRjavqu+m8sxdB0qniYJB4rcapIlfHOxesvCrS8RSgyzAwbRHMJPzp5zbembyvCpUCVd4bVP1Ee37cnHD1dhDfZSbnMZ0pTc2t+MMnXyiVAukoKkj5A9hzkAahcOi5diNt7890ZYSg5xRgV6KpvO5U0BlBIdYFBWEs+NtC1EhVc52Q801WVa7SfjcbMpWX9dRz7YaV57di9QpUr1+Lz459rfVWVlFVucrKJ1hSvAAlxQus3/FjEEn30pBIJHHk6FeW0S1bRRWeRXRFFbzglkeMyS3c8m7nOncG71pn59DwSFa9Wp8lvHi1Mk8XKueRXGJGPN6YVPxYOEQBMVcv9gzDMAzzcyCdatgMwzx7RDtiGLv/MKVYllNUAcMwDPPzhBVvDMMwDMMwDMMwPlF5WMxWVW6GYRgmd2HFG8MwDMMwDMMwDMMwDMNkgV/MdgMYhmEYhmEYhmEYhmEY5lmEFW8MwzAMwzAMwzAMwzAMkwVY8cYwDMMwDMMwDMMwDMMwWYAVbwzDMAzDMAzDMAzDMAyTBQJXvDU1t6KpuTXon2UYhmEYhmEYhmEYhmGYp4q/me0GuKEq0724dBF+u+83MIy8WWoVwzAMwzAMwzAMwzAMwzjz3OPHjx/7+cLQ8D0cP9GMRCKZ9kP37N6GkuKF+OzY1xgfNx0/W1W5Crt2bkn7WQzDMAzDMAzDMAzDMAwzG/hWvOkwzUc4fnJaIRcKGXh9306Ew3N8/U4yOYkvT55FedkS1G+sDaJpDMMwDMMwDMMwDMMwDDPjBKJ46+3rx3dtUfxu/yu40B4FAGzeVI/Pjn2NFxvqUbF6Rcp3SMF2Z/Cu7+dxqCnDMAzDMAzDMAzDMAyT62SkeDPNR/js2NcoLVlohYNSYQXxv+PxCU+KMtXvMQzDMAzDMAzDMAzDMMzTSFrFFchbLW5O4Hf7X3EMJ921cwuGhu/h4HufoqhwnqMCbmh4BIlEErUbatJpFsMwDMMwDMMwDMMwDMPkDL493pqaW/HjwC3s2N6A79qirsURVPz9qjLc+8+xtL5LhEIGXn9tJ0qKF6T9GwzDMAzDMAzDMAzDMAyTLXx7vFEIqGk+AjBVoVSVw01EzAGn847zE5LKMAzDMAzDMAzDMAzDMLlOWqGmQdPU3IqrPdcBAG/s/9DxswUFYdfwVoZhGIZhGIZhGIZhGIaZbTJWvJ1uPO/pcwUF4ZS/iZVNvSjUyHOOYRiGYRiGYRiGYRiGYXKdjBVvfkJNRYaG7+H4iWYsL1+KPbu34XTjeRw4dNj1eSoFHsMwDMMwDMMwDMMwDMPkGrMSakpKtx3bG1CxegV6+/rZ441hGIZhGIZhGIZhGIZ5ppiVUNOS4gX4/M8f2P59fNxkjzeGYRiGYRiGYRiGYRjmmWHWQk1l0vV4M81H+OzY1xgfN7nwAsMwDMMwDMMwDMMwDJMz/CLdL4bDc/CnP77jqnQDgIrVK/CnP76TFYXYhfYoSksW4tTJwygtWYgL7RyKyjAMwzAMwzAMwzAMw8w+vj3eoh0xXIx2ZvTQF+rrUL+x1vY3DjVlGIZhGIZhGIZhGIZhniWee/z48ePZbgSFkHoNNRU/x6GmDMMwDMMwDMMwDMMwTC6SE4o3hmEYhmEYhmEYhmEYhnnWSDvHG8MwDMMwDMMwDMMwDMMweljxxjAMwzAMwzAMwzAMwzBZgBVvDMMwDMMwDMMwDMMwDJMFWPHGMAzDMAzDMAzDMAzDMFmAFW8MwzAMwzAMwzAMwzAMkwVY8cYwDMMwDMMwDMMwDMMwWYAVb0xWiXbEcPTYKSSTk54+b5qP8O77R9Db1+/62abmVjQ1t2baxBnHNB/h6LFTMM1Hs90UhmEYhmGYrBHtiD2VshozTVNzqye5nGEYhtHDireA8aM4YrJDb18/3n3/iFax1dvXjzff+ghDw/dmuGVTDA2P4M7gXTSeafGskCRofu3ddxDRjljGbaHfC+K3Zoum5tYU5e7TqpRlGIZhmFwiCJnpx4FbaX/fTaZzwsn469cw/HPFNB9hcGgE355rS2sMm5pbsXffwcD6emj4Hv7wyRcZGa+TyUkcPXaK72oMw8wofxPEjySTk/jy5FncGbyLPbu3oWL1iiB+1kZTcyuu9ly3/jsUMvD6aztRUrzA9bMv1NehfmOt7TNDw/dw/EQzEomk9beqylXYtXOL7XOm+QifHfsa4+Om9bfFpYvw232/gWHkpTz70uUrAICS4oU+3zCV3r5+fHuuTfueBL3Lju0Nyr4Xx8cLTu+nItoRw8Vop+Nn3tj/YSDPCoKK1SvQc+0GLrRFtc/28k4qVHNN9fw9u7fhdON53PzptuN6UY2d+AzV/ASAgoIwfrf/FYTDcxzbEg7PQfW6KnR2daO8fKnjPEu3TwjV+gLU87epuRXx+ITr3CCBsHpd1YzOIbkNnx37GpFw/ozP5WxA41G3oUY5l5uaWzE4NOJpfgXdpqLCeVYfNzW34seBW677o19onmfrLMsmT3PbRbzMsVxcd25rJ9tka01kQi6OE7WptGQhdu3coj3b3M7RaEcMnV3dVn+rfsdpLcpyqO6MBOxyrU7+lWXfoPaBnms3sNxFPnCiev1aXPrhKmJd3dr309Hb14/TjeexY/tm629kKFStMZKZ6mprUt59aPge/nK+Da/v24lweA7G7j9EedkS5ZzUyVZAcP3qF+oL3fPp3QF4Wmte94tweA5+t/8VfHbsa09jKK+DxaWL8MWxD632yPOU8NqvhfPnImQYaDzTktGeUlg4F9+ea0M4nJ8z+yXDMM82gSjeYl3dnpU66RDtiCEen0jZuI8c/SpF0UEC+6efHEQ4PMc6qADYlBWNZ1psF30SgN59/4glaCWTk2g804LqdVUpio6D732acliZ5iNc+uEqxsdNHDh02PP7yconsc2hkKH9nkp56ISTUEdEO2IYuHnbY8unqN9Yq71k0O/NpsDtpDASFYKyMOtVeQVMzwv5v1VCmwiNsww9m/rMTaEnCiy9ff34ri1q/Zs4n5w4cvQr7b/R83VtoPd9saHet0Aa6+pGKGTYlNWVa1Z6UkxeunwFiUQS5eVLfT1zNtEp1ElojkTyfV9OgiTW1Q0Ayj4dGr6HHwduYXn50hlTuuUCuTI2Pwee5jnmtHaCxKtRjlFz6fIVjI+beLGh3vqbkzFXBcl7RYXzUDh/Lnr7+nHph6uW7AlMyR6nG88rZS+VkjzaEUNvX7/tzBMVlyQDm+YjXGiPYvvWTTCMPGt/ipsTKbKvm+ygUpLsfmkrGs+0pMj1srJElJG8yDzj46ZS4aLre1JsvvP2q9a/JZOTGLh5G3cG72Ls/kPlfry5oR5/OT+lUCGu9fbju7bv8fKurQCmjXaVa1Zq20v9IcqvNKZejKwybkby2UanEBPRjSFgl0PdjOrimpDlZyITo35BQRgb//sGnGtpd/w+4Cz7Pu1GLIZhcouMFW8kfGSTNRUrUw647Vs3IR6fwKUfrqJ6/VpL0Ljacx17dm+zBJ+K1StQVbnK5tFjGHkpCpWS4gXYsb0BpxvP49LlK9bzdr+01fa5cHgOdr+0FcdPNKdYfi60R1FashB/+uM7Ke9AYW9Olzbxcnfq5GHLGqWCPIIOf3wAsa7ujDyRgsDtgFQdjnTwqgQ2UhQtLl2E0pKF+GvsP7S/fbXnOkIhA5VrVqL70hXr7wcOHbYEw/qNtTjX0o7q9WuVVuLC+XOz4qGQzqEtK84ypWL1Cpw6maoIluckPXcmPZlUa5baXFW5Cp2xbpQt01ukL/1wFYlEUis4qQTE2fCyFOm5dkP597H7DzE69gCRSL7y32cCuozovBsGnuxHtRtqZrRdJcUL8PmfP7D9LVsKMJWCORfGxgtOyvGnhdmaY5nitnaCRLeHsFLYHVLcLC5dhLJlSwBMre9QyEAk7H19Dw2PWMo7w8hDSfFC/P7QG7ZzpX5jLcbuP7TCLGle9Pb1pyiU6PNyWxvPtFieeUQ4PMf23zd/um1FnMiyrygj66AzMdbVbTO8OimXdHJKOgopGdFz6/DHB2x9ahh5eHv/XkvmlD3jp8ZiAX5/6A0A0/vJmooVWL+u0tb+8XFTaZR8ob4O1evXKttWu6EGAzdvY+DmbdRuqPElRwwM3PJsKJ8tvBjoZXSKsyDIVF6rqbaPo9jWmZR1GYZhgAAUbxfapw7emuq1NqVHkBQWzk35m2HkIRLJR9ycsP7Wc+0GCgrCKWGelWtW4mrPdQwM3LIUb6pNPBzOt3mY6T4XkT4HTB3iFBqTLiRQeCHXBGzdhc+Lx1s4PMdSVupc6Rs2bbR9hz4nCwnbt25SKpCSyUkUFc5D45kW2997+/rx48AtlJc9PR5TInFzAo8fP7ZZdp2IdsRQVDTPVRnY1NyKyjUrlaEaTl6WKiFWZ80eGr6Hb8+1oapylbI9tRtqLAW3am7R3iN6GIjtB3JvneQ6Kk8QQvbwYJigeZrnmNPaYXIHUlK9UF+X9mU+mZxEZ6zbJm/qLvCF8+faDKj0XS8K2ps/3cbo2ANsdplTo6MPHJ8dNydmVcHgx6gnG2J1Hk3EncG7+PLkWUvG1BmB6XdIHum5dkOZtoO89t3yh8XNCSSTkzkROv00kUxOIh6fQHnZEl/fi3bEcOmHq/jd/lcQNyfwTdN5vLxrG0qKF6SEjjtBcqM8F53ClxmGYYIiI8Wb6K2iO/hnCrI2l5YsTDnYSaE2dv9hVp5NCoQd2xty2npytee6qxs5MGVh8orXcFcn4UkUfnSWfBESXP1gGHnY8I/VGBwawdDwCCpWr7CNW9Cu5KIy0WtuNPLOq1i9wmoPJaK9GO20/QZ9dmDgFgoiYU+X1KHhe+i+fAVVa9SKLiKZTKK0ZKE2l4hh5CnDrFWhpkPD9/BNU6oyjsK9QyEDmzepLxWiF6qsLKRwtKDWHI1Rptb6oeERfNPUYq0HMRRHDvklL73/8d/+C27dHrLCemid0nfj5gSOn2jG8vKlljJS9fuEnBdQ1QaVVVvlCSK/m+jhISKHqKjaJeaTiXV1u+bhtD/7ntUH1G45P40YkvV8fa1tHGSrufh7hfPn4mK007qQDQzcskLAypYtsfWlPDb0fvL7y/0rhpX1XLuhzNXklsNJ5Rns9By3PU3el1Rzws+4vrxrK76PxlLmnWHkaeejjG6Oye9eUBDGyy9t1b6bl3Z77Qf531V9q1o74hyj0HndM3TPkueBbg+h9aPL2ST3n2p+yb/tJ9WC7jlu4+T2vk6fTWecgGkDrc6jyQvkAVu3ocb3+WN9t9bdo7Pn2g1PSuiionkAphRw4jun48kXBHKO1nA4H4lE0pK9xM/JuRxF2Qlwz1tGxlNCNALTnFbt/3I0iVcjZjI5ibg5Yd01nEJ6aQ8oXvS3GL77n9Z5ROtMnsNu50g60LrYsX0zLl2+gjuDd63+kKFn+UljQ+tMjvS5M3g3Re6f8sjMx3jc9BWOT/sr9fnQ8Aiee+45a17TnGlqbrWlC5IR90fVv9P+wco3hmGyRdqKN9N8hO/aopa3ykwr3kjRFgnnwzDyMHb/ofaQIA+1eNzZQkVu4CTE6KDLQfW6Kut7U9bLhXj3/SOOOS5Uiq8gDlcvZCPHmyoEjIQHleAb7Yhp83LQmALQKgeAKSswAKxY/neu7VPlN5PHwMuFKBPcwr9IGJDDmkV0Ql1nVzd2bG+wzWmywB84dNi6yADwnFvEMAxs+MdqJBLJrCSepctZIpHUCkCEWIhCnE+qeTfb3Bm8i7+cb8cH7735RDicEl4pATCF/OouxyrlEgDLq/dqz3UMDo1Yv0/9+Nmxr1Py7JSWLLTCi03zEWL/pxsN/8vuNSrj5Ami8vCg35bzDwFTc/rAocMpewCFBb9QX2e1T7wwByHw6sZB9IogrvZcR1XlKlso9oBwISMvZN3YqHIr0WebmltT9hKax2KIvag8OXXysPWbx08025SKKm/d043nfYfJ0++Pjj2whbr19vVb+aXSGddvmlqs9lIfUK7TPbu34e39e5VzVmyXao6JhTUolE9U8IhKBT/t9tIPcs5YAGj79w6UFNsNfE5r52rPdVuOWvFMovmhmkfA1NoQc9m67SEqRGU7XY6TyUlEO2IonD/X5iVE/UPtUY2TDj/j5PV9gx4nVf5A8sAhWdILXnP5kcJAVH7R/mIYeTh67JQtj5o4P0Vj8s2fbtvkFFmRpEqpokvj4BeVDPVCfZ2jnFy5ZiW+a4ta8jbJ4KJiUGUsd8sx5mTA7b50xSa/0ZwuKpyHO4N3bXmZY13dyvuCm5KSQn8BWAbDkuKFKCgIK0NPaaz/5wv/1VZ8Q94//Z4j6fDtuQvWPuyGm3wlKht18qQqRJTec3HpItu+FQ7PsYy9QKq8O3b/gU1ZPTr6QLlenfrJbc+k57HyjWGYbJK24o3cdXXeKtmEDj+VZTzd8JTevn5cjHZqvT0I8pISLaaiqzqgtrT+HELfxMNYzikmXlw3b6pXKkCHhkcsoaduQw06u7oR7YjZDkC6nNXV1njyjpPzm9HBX162ZNYPVlHYIiWBV+giXrchtXKXbDEWK+358eyj/pEv/MnkpDanmi7UVG4LgBQBSLdGROVbVeUqbN5U76lwBaBWdAOp3hxB5MYKhQyb8rSkeAGWly/FjwO3MHb/YcbKS/n3xXyTF9qj2LVzizLcLRyeYynddPn+gCnvilDIUF4myUtDvrDSJWT3S1tt65lycH7XFk25/FZVrrL1NeVB8lJZ1wt+xqGgIJzRGRbr6sbo2AObArmkeAHqNtTgYrQzJVxbDKumisJ07lBOM8PIQ11tDU43nrfSI4TDc1IuTGXLlmBx6SLfuYaoGNKe3dtsfSEqpNIZ17oNNdbvUZ+TYlP1zrL3i26OXWiLWmNKbRHnPuG33W79oCvyoFJgO62dgoKwrT00boNDIzDNRwiH5+BcS3vKPAIyXxtkIF1cugjbt26y/m4YeVb6BjLgiJdow8jD5oZ6297ihJ9xAuDrfYMcJzKuqhLqyx46OiMcKYy8eKKda2m3FLJi2xKJJP7ly2abIqSpuVXpZS4rbnWGhF07t1hFx4igEsPL3qtuyB5upFgR9yrRu5XYtXNLigeYSlkihh3KcpOsqB0YuIXQTQPV69daxsd4fAL/tPl59Fy7YcmipjmBkGGk7KN6z63pc5j2NLEYFCldvcwTv+dIOuhSevglk8rZVOhA3IsIeexF4vFHSCSSKfKlkyJWVPxFO2KWLOhUSIFg5RvDMNkiLcUbbWKZWtLSQbSgBn2QhEIGNivCqAjR8pfrYaUzjdg3clgkMHUIHv74AMbuP8T3HZ0pBy8p1CrXrERnVzcikXxLYBfDDM+1tCMSyUfF6hWuirfvOzoRCefbDk+vOVOyjah0SyfBqyjs6cJY6eJAHpmyEKFScMnriS5C4iVZFWpKIaWUc0P+OzE29hCRSD5e32e/cNHlKRQyrMuo3LZPPzmIz459jQvtUWUBk9lGJWAXzp+Lqz3XYZoTADJTKKlyAhXOn4uiwnmWNy8hhxy5kU5RBZWihDCMPJSXLUlRsIRChjJpPuXhDKKf/IyDKjWBVygfmarPdKFf8oWfPldeZi8gIucblRHDiQsKwp5zDbmFEwPpj6usdKIx0L2zjN85Juda9dPusmVLXPuBcPOUd1s78hyj/LSjYw8sb1YnRY6co9YPTuHhBFWVlkMvvUYKAP7GyU1xJb5v4fy5gY2Tbu6rcuuSPCMn7ge89am4PkWlOgAr5Yksv27eVI/BoRGroFDcnEAikUyRS0WFDCl6RG9DWUHXGeue8WJCdC71XLthvWPh/LkYHBqxxmh09IEyJzOhUrqJueLG7j+0vMnp3cQCZTSmYnGFUCgPPdduWF7Mf439h2WM6bl2A5FIqheV7LmlCl8tL1+Kzq5u2/vSmpAjEmTSOUfSwa16qxcyUboB03l7nSqRquRhsTCGaT7C8ZPN+NW2Bs/7oV/Dam9fPzpj3b6LZzAMw7jhW/FGnmFOLsbZQlTu6HICOeVxkw9V+fLipAAhF3i/JedziUy8AWVLkyrUQfSkof6SxykSzodpPkpxn6fw0fKyJeh8EsZBAiYJM14KWIhtlZVugPecKdmGQlXkKmg6ZAUb9T/Nd1X4G71j/cZaJJOTKWEtbpBwFaSX5vp1lbbKYgRd/pzWoOzJx0xDiZ7pAnAx2onOrm7Pe1U6RRXMJxdD3VpyC9lXEcQFY6agi7HX3JmZ4haG5QVRQaJXJAU/rm6kM8cohC2ddnvpB1IekMeLTubItKgCzaPSkoWeij75gTzxdHmrKMxyfNy0woJlqI9V84/6xM84+XnfIMfJT1GFitUr8EJ9HS5GO23FfXTh0CJifiyn1BWyIoS8wsgzl1DJK6Kip2zZEqW3oZgjVVegKFtYxc8EZWhR0TwkEknEzQkYRp4tZ5eMrHSjPhVlBPLw+8MnX1h/E5WoYtoF+ptoXCycPxcFkTBMcwLJ5FzPCf/FuUGKT5qDohfrwBNDom6eEDN9jqQL5QiWK/HqkD0F6e60Y3uDstAGpbmR16Z8bxsaHsHo6AOt55rTHU2Xi5jej4zHKiM0wzBMEPhSvIlJ7XWeNqT0CMrFnRC90lSbqqrSqBOy55xOOJItlzNtOQwCSgbr5B0lIhdXcApPExGVXpTHCFAnBQdg5SaicJgpC7J9DElY9FLAgkIV9+zehu/aoqhev9a1wpVMpsn1xbZ4EaKcXOWrKldZnoG6dlEuFdFL7OZPtxE3J2weDKJAGu2IaZUyYo4knYeBU6ip6u9u65K83dJJVO1XGfG0rmGviJctyqfmZizIpKgCMzM5OsVQGXEvoNxWTzu5OMcMIw+7X9pqnV10fsr5x7x6ZOUyXgopOIWCzSZexgnwX1SBlFuiEsytqIIsA6lkYK9GP68yrZO3oVP+saAhBRIpuKmiKnmUkfLXfOLlqSowIcofFCHx5lsfAbCnpiAlzW/3/QY3f7qNA4cO2wqMiDLB+LipLORDysGeazd8J/ynuUGGIjE9gOhR68ejeqZyPetQGdhVOIVq0j4C6GUt05yaB6LHNBle5P1fdqSgO2hR4TwUFc1TFgOKxycc1xgV+2AYhpkNfCneVC75RKYuyE6Ql52TcEhWVVW4gZxLQswR56ZooRwdukNRriAIqPNcETolQTYPXRKIvFa681NcgZCFHbEPdBf/puZWRDtiqFyzEuVlS1C2bIktXI7wmqOM+q+3r9/6G7mYk0BXva7KNt66EMlMcbukiIKjkzCs6g+RsmVLEAnnW3l4vCgoKXxUTN4O6JP7i5BlV86RJ4aAyCGkqqqm4vtdaIuiqHCeLRyHctg5FZwgvK6ddOd2LkNKdTHRMCnKSZBOJJIpefpE0imqALhXix4dfeDobSN/FsiON1W28BOKlwmk3EmnyqSMlzYHOa5eSHeOiXPfb7u9jh152YrGo4vRTiv9gR8vKh1ubTElhYYf3ELd5bDXdOeWn3Hy875BjZMuD5xfnIoq0NnrZuhwCx+kBP+WTGvq3322PfdlRKUGKado7okFFmgtqgr1VK+rQnn5Uhx871OEQoYt/61oSH3h+V/CNCdQsXoFvjj2Ib48edbK+1a5ZiW+PddmGwf6fXEd0efuDN71XB1eByk5KQWK15Qmfs6RcDi1SIWIWHHV737kZmAPSlamNCmUb9Mw8tB4pgWlJQtTCk7IXogUGfPyrq04fvKsVVyF2keV7unddYZ3J+Wh/G9BGeMZhmGADIorzBSiUO506aAcLmShFA8GsnTSIS8Ky04bKm3kThd7J2WkyGwWVzDNCU8u75mgUzQ5KV5qN9Tg0uUrmD9/ruXZJSuaRKVbuoefmHRbtHaT0keusPQ0IVpaS0sWorOr21MRhV07t1gV5H5Z+w8YHBqxElg7fVf0LiDFIQB0xrpRva5KYXFfgMMfH9D+nphUWBYUQyHDV1W9pwXyBJBx83AQw1gIscKy3H/ihYRySalw8gRx8vBQhdcQusTSiUQyJVeVqFjK5h6VCaqxkUPDsr2HyFXcxCrQXvHS5nTGNRPSnWM090mh46fdhpHna+xIsSNf5Px6Uel+26ktsvxC76raQ2RUuadkMskhJ7bH6zj5eV+/a0w3Tqr8gW7IhRjccvmRUs4tvF/nhaaq8qnKpyi+T3n5Uk99rzof/CCHIqtCMk1zAs8991yKgpXmHo0NGatlbzA5lQRV1RwavoePPv7cyncnV7Y9fvIsfrf/FUsOpzuDXKH00uUrAGBbR2XLllhhyv+0+XnPfURzQ1Ti0VwdHBpBPD6h3CNVynM/c5zG+tIPV1G9fm3Kfjk0PIJEIp6VBasAAAjkSURBVOlrns8G1evX4tIPV60ifUBqwQVSIlKfiZEx8+fPxYsN9ZbyDpgqAra8fKltnci53Xr7+lMUskS2jPAMwzAiv8jmjw8N38MfPvnCqvaZDqIFx+3yXbuhBkWF89B4psV6JpVUf7Gh3vo+Wdvc3MrJ8hpEUtLZgoSQTJKI+6G3rx9Hj51SempRnjHySCspXqCsbkSIlTszsTiRcnT3S1vx0cefY+++g3jzrY/w0cefA1BXWMpFoh0x7N130PpftCMGYDrnyL9d+B6lJQs991XthhosLl2Ev8b+wwql9hIuRQJyedkSvLH/Q7yx/8OU0FYvUDU9sRqi+Awal8YzLa6ef5lCfUt9mk0o182AdHEmDwe6QMmMj5u2viAPCzF5d7QjZvP4lPfP3r5+7N130DIEqC57IuIFT4YqH5JHnThGVLVQVazmYrTT1kbyKqY9mvaJN9/6CEPD95w7c4bQjQ31u3jmAFNjc+Krfw1k3pJR6c7gXcviL3ptO2Gaj/Du+0fw7vtHrPZt3lSPUMjA8RPNtv7t7etHb19/2uOaLm5zrK62BuPjpu2SRnNf/qyfdrv1w9DwPasKHzF2/6GlFHJbO36gtsjziEKMRfkF0O8hMpQn9WrPdWvNA1Pzp629A8nkpFVlVV6XyeQkTnz1r57WoJ9x8vu+mY6Tm7JYJadSlIVYAIGUWCp5kLxzvCikw+E5eLGhHncG71rKOgBWv4lVlumMpnQS1F7x3BTnvdj3pKjwohimfFy6VCQFBWF8+slBnDp5GKdOHlbKGD3XbtjWghyFQpCiXSdX0/5Pcs6Ro1+hbkMNTp08jM///IGV8+3Ntz7C6cbzeH5jXcpv1NXWIJFI4sChKc9vCmVUGQcJ8rp2QzU3iNoNU8+9M3gXdbWpob1hQRkpfw9wP0ec9jjycNcphmeDoeERvPnWR9ZY0t2Aqh3/OHALg0MjKVWogalIncePHyMczrfOO9ErrmL1ClSvq8KBQ4dx4NBhRML5jrK8GKaaa56iDMP8fMiqx1sknI+CSDgjrxUviUfFnA2/3fcbfHnyrGWdky1kwNTBT/mPVJB3HR3EutDRp6HQAnn37dm9LavPEUNui4rmwTQnMF863ExzApFIPk43nvcUNuWUTF/lhu5GSfECfP7nDyxreCKRRDI5qbUyOiWczhSnIiCEGDZDHpqqUAB6nxXL/w4/DtzC0WOntCGscr69F+rr8Pb+vdb4Uc45t7ktexRQX3ldE6RUlUNMRUg4O36iGeda2nMyv1A6VKxegarKVSm5iEioPn6iGQcOHbblSwGmQmoL58+15QWUvXFrN9Tgy5NnbXuWk2dvOkUVRMijUZw7wHQVY5UXIyVXpjaq9uhcQzc24vuLe0XQuQQpPFwc1z27tyESyU/L6+1Pf3wHTc2ttjNQnEt+xzVdvMyxitUrsGf3NpxuPG/JAItLF+Gdt17B8ZNnbZ/1024v/TAwcAt79x20/Q4VxIl2xDIqqiAitkWcR6TwUFV5Vu0hKuo31qK8fCmOn2i23oX2aeqPt/fvRbQj5ilFhA4/4+TnfTMdp96+ftdw4Hh8IuWsF72/3YoqkIFjfNzU5m0V21uxegXeeftVHD/RbJ2jYpsJMhrK/SR7ppcUL8AH772Jz459besHr2kYaL+KdXWnpGPwkmielNDiWtBFg7gVHfCS0gbQ59AzjDyrzWLeMrm6LDClkI+bE6ipXovOrm6UK5RWcpEAp2dbVcbNCeX7iRVpr/Zct8bHzzmi2+Oc2hUEpjnhyZAkpp35PhpTnhcUyRKJTHkkfvTx5yl7zcDALRREwoiE8/Hlk/1DVKzR2UGoFJ0iZHxRRVcwDMPMFM89fvz4cbYfQgmgn7WQMT/MRqipWNXJy3PFUux+2ulU+EKV+8upsIVT1SE5+atOead6pq6Cra7t0Y6YlS/Ey5zV5ZAjVLkAvQhJ9D05pxowLbyIlb7E59BlTBRWveaJkvv671eV4d5/jtkUdqr31BXSAKYvcpFwvvYzMotLF+H5+lp806T2fPw5FFfwknsvHWiuAFD2Cc2BoIR5uVKdH4IIOWdyj6Dn2EzhtnaY3CEI+fPntv84yR2EKCNdunzFSj1xrqU9reqcuj1APOP9nt+yfCA+QzyPCufPDWQ9u8mBTxuygdVvPl25L0X5VBwLeg6NbzI5ad0DRkcf2H5L/A2xPTTW8jzSPVOGQ00ZhpkJZiTHG5X9pgTwzMwwdv8BIuF8W+iCjEqZtfulrZ6fQWEcoiKGhNREIglgSkmjsmBHO2IpiYOdvNzckr+KQkJV5SoYRh6OHjuFO4N3tdZ7ygHR29ePI0e/ytoF0GsuQC+QIEHWO/Gd6Dn0Gape6lcI9FrJVsZp/ES8fEakbkONtjLbz7m4QiakW1RhNsgkwTyTm+TaHPNDEEUVmOwzE0UVfk6oZDsAtoqUmVa/lY13e3Zv8/17pIQRPSjpdxOJSVy6fCVFfqJomS9Pnk1b+Xbp8hUkEslnZp7IOdIygeRzirJQPSfaEcMb+z9EVeUqRML5KFu2BBWrV6B+Y60VgkwKNPk3aN41NbfidON5LC5dhF9tb5jyrAvn44tjH/JezTDMrDMjHm8MwzBMemTL422mSdfjjb2LGIZhGDforIibE1oPx6bmVsTjE8qzxIunn45nzduNYRiGCZ6cr2rKMAzD/PwQPVifxhBhhmEYZubwElngZLxKJzJB9AJ0yrXIMAzDMOzxxjAMwzAMwzAMwzAMwzBZ4Bez3QCGYRiGYRiGYRiGYRiGeRZhxRvDMAzDMAzDMAzDMAzDZAFWvDEMwzAMwzAMwzAMwzBMFmDFG8MwDMMwDMMwDMMwDMNkAVa8MQzDMAzDMAzDMAzDMEwWYMUbwzAMwzAMwzAMwzAMw2QBVrwxDMMwDMMwDMMwDMMwTBZgxRvDMAzDMAzDMAzDMAzDZAFWvDEMwzAMwzAMwzAMwzBMFmDFG8MwDMMwDMMwDMMwDMNkAVa8MQzDMAzDMAzDMAzDMEwWYMUbwzAMwzAMwzAMwzAMw2SB/w+ANaiCxh+nLQAAAABJRU5ErkJggg==;" vertex="1" parent="1">
          <mxGeometry x="-800" y="460" width="1246" height="298" as="geometry" />
        </mxCell>
        <mxCell id="zdTmi9DSN5Jlk_BLVy8j-2" value="" style="shape=image;verticalLabelPosition=bottom;labelBackgroundColor=default;verticalAlign=top;aspect=fixed;imageAspect=0;image=data:image/png,iVBORw0KGgoAAAANSUhEUgAABGEAAADyCAYAAADtLdjMAAAgAElEQVR4nOzdeVhU5fsG8BtFGVxgwAVQEdDcEFzAHTMLXNLQUuqbWpnmWrllueWe5pa5lhtimsuvUisNMhPTEk1lUxBTU0BkcYMBFwYF+f1B53hm5szKAFr357q6rpg5c86ZM4flvX3e57UpLi4uBhERERERERERlalKFX0CRERERERERET/BQxhiIiIiIiIiIjKAUMYIiIiIiIiIqJywBCGiIiIiIiIiKgcMIQhIiIiIiIiIioHDGGIiIiIiIiIiMoBQxgiIiIiIiIionLAEIaIiIiIiIiIqBwwhCEiIiIiIiIiKgcMYYiIiIiIiIiIygFDGCIiIiIiIiKicsAQhoiIiIiIiIioHDCEISIiIiIiIiIqBwxhiIiIiIiIiIjKgW1FnwAR/bss/qGiz4Aq0rSXK/oMiIiIiIieXAxhiMjqJvSp6DOgirAqoqLPgIiIiIjoyfZUTkf6fFUYvFu/CO/WL+LzVWEVfTpET5QcVR5ef2Oi+D1yOjqhok+JiIiIiIiIUIaVMA8ePETiuYsoKHiAyraV4d3iGdSoXq2sDvfUuXvvPpLO/42iwiLY2VWFT8umqFq1SkWf1lPr1q0cRJ2IxZ8n43D5ylVcTcvE/ftqNPJqADs7O7T0fgZdOvuhY4fWqFmjekWfLhEREREREf0HlVkIcy7pEka/Nwv37uWjR2AAFi2YXFaHeir9/sdpfDh1MQDg7TcHoHWr5hV8Rk+n27dzsG7jLny7+2cUFhbqPH/xUgoAICHxAv7v23C81Od5zJ8zAQqFXXmfKhEREREREf3HlUkIU1RUhF8PReHevXwAQK+ez6JaNfuyONRT6f79fPxy8A8AQPXq9ugRFIDKlStX8Fk9fWJiEzF1xjJkZN6w2j7VBQ+QkX4dHh71+JkQERERERGRVZVJCHPrtgp/nooHAPi0bIJ2/j5lcZinVurVDMTEnQMAdOnkh2ZNvSr4jJ4+f19Oxay5K8UAxtbWFs91a49Br72E5s0awaZSSbuj4kePcPlKGiJ/O44f9h3Su7+k83/jyw07EXU8Bj0CAzB/zgSGMERERERERGRVZRLCxMQm4q8LVwAAgc93QZ3azmVxmKdScXExfv/jNLKzVQBYJWSJoqIi7P3+IFJS0wEADg418On8D/B8906wsbHR2d7ZWYn27XwxcfwwJCZelN3mrwtXcPi3E2V+7kRERERERPTfZfUQRjrVpm6dWuj+XEfZQe9/1c1b2Yj87TgAVglZKjPrJn6POi1+PeytgXoDGCmFXVVebyIiIiIiIqowVl+i+sLFZBz/MxYA0DXAH16eDax9iKdadEwiEs9dAsAqIUtlZ+fi+vVb4td+bVsy6CMiIiIiIqInnlUrYaQNeW1tbdG757NGl11+9KgYd+7cRdq1LNy5cxcN6rtCqXRAjRrV/nUDa0uqhIqKipCbdxdpaZlQFxSgYQM3ODjURPXqFTuFqbi4GHfv3kfq1Qzk56vh5dkATk4OFvdREfZ3/cYt3LyZjZo1a8C9gStq1Kims8+Cggdi0+cnifAeVKo8XEvPQrVq9nB3d4OjQ41S95d5+LAQqtw8pKSk41HxoyfmPrAGlSoPEybNQWLiXyZt7+PTHKtWzINS6aDxeHJKGlas3IT5cz8Un1Op8jB77meYNHEkvDzdTTqmm1tdrFm9QGN7U/247yD2fv+z7PlJrV4TBg+PBujfr6fOczExZ7H3+58xZMgA7Nv3CyZOGAGFQqFxjNTUaxg/brjB85j/yQoAwNC3XhW3lV4PABg3fiYyDTS23rh+Cfz9Wxl+00REREREZDKrhjAZGTdw5PeTAAB/v5bw9Wmmd9vbt3Owfdc+7PrmJ+Tl3dV5vnZtJwx/OwRDXu+HKlUsO82bt7Lx4dTFOB2dAKCkd8jKzz5Gp45tAAA5qjyMfX82ziZcAABs3bwU7dv5Gtzn3h8OYuacksFNK99mWLd2PpwMDLakzKkSSruWhY2h/4efIn5DQcEDnec9PepjzKhB6PdSIIqLi7Ex9BusWrsVANC8WSOsWzsfLnVrmXROo9+dhRs3b6NunVrY8OUnYqNg6XsVlnauWrUqoo7HYPnKzeLyzwJX1zoY9+6b6Ptid6Phm+D27Rzs/L+f8N3en3HrVo7O8w4ONfBayIt4d/QQcVnpWs5K1HOrKzbljY07h3b+PmaHdp+vCkNo2Hc6j/8U8Rt+ivhN47EF8yZhwMu6A2ag5D76/oeD2L33gNinRsrOripe6vM83nrjZTzT2MPk83z0qBgnTsYhdPO3iIk7J7sEd0vvJpg5/V2Llzj/82Q8Jn64UPwebN/OF58tmVauFVpKpQO2blmh87ixsCE5JU02RAjs8T+dbaMk09eEkGXVinkaAY0QUAx9MwRz530uG9DMnjVJNjgR9O/XE6mp17Dt6916z1ulysPfl1MQHNxD734AoJ6bC+7cuYeNm3aafQ1mz5qEmNM/G9y/l6c75s2ZjL3f/4xZMydoBD1qtRorV4XCuZaTwX0QEREREZF5rBrCHDseIw5CewZ1haNjTZ1tiouLceLPOEyb+ZnsoFtw61YOkpL+RlFRkUUhzP37+fh8ZZhGAPPp/A/QsUNrs/dlDaZWCT16VIwf9/2K+Z9+IRu+CFJS0/H35VQAgI2NDbo/1xG7vvkJN27exl8XruDMmfPo2aOr0fM6dfoMbty8DcB4MKRWF2Dtuu0I+2q37PNZWTfx8ezPkZ6ehbGjBxus/nj0qBgRB45g6fJNBu+DvLy7OHX6LIYNDRFDGBeX2mjevLEYwmzZtgetWzUXw7XyUlxcjCO/n8Kc+asMvoeCggfY8/0v+HF/JCa8/xbeHPKy0ZDqxs3bWLR0g1g5pc+5pEu4fOWqRSHM35dTMX/hWjGA8WvjjYXzPyj3KXKr14Rh6zbdMEwg95xQ3fHTvq3iY+ZUwgjPyXGu5YQBr7wIfz9fjfBj9ZowNKjvCqAkpPhkwSoc+OWIyecthD/Zt3MQFXVaDIaGvvWq7HuU7nvrtu9kq1K8PN3Rs8dz8PBogF49u+GTBavQoUNb9O/XUwxoRo4YglatWmiENVFRp+HmVhcTxo/Anbv3oFY/0AphHuDOnXtwUjrqfX9ERERERGQ+q4Uwubl3cPDQMQAlVRpdu/jLbnc24QI+mLJIHPg1bFgPg157CU2beAIAVLl3cOToSRz945TF51JUVISwr3bjx/2RAEqWL546eaRJzVvLiqlVQr8eOoY5n6wRqx5a+TZDyIDeqF/PBUBJ0BF55E9EHY/ReJ1Hw3ro0L6VWMERdSIGz3fvZDDAunPnHo7+8bhCoEtnP73hwMPCQmza/C22bNsDV9c6CO7zPPz8WuLhw0Ic/u0Efv7ldzE02rj5WzR5xhO9ej4ru6+ioiJs2/4DVqz+SnyfdnZVEdDFH4HdO8HVtQ5UuXdwOvosDh0+rvP66tXtEdznefz+x2kUFhYiL+8uxo6bg7GjBuHNIS/D3l6h8xo5jg41xc8hJycX19KzAJQEdg3d3WBj87hlUnWtFayKi4ux76fDmPvJavF929lVRY/AAHTu2EZ8D8K9nJd3F4WFhVi+Mgz5+WqDIVVyyjVM+/gzJCReEB/z9KiPHoEB8PNricqVK+PChSs4FhUjLnVurpu3svHJp1+IoamnR33MnT1eDBnKm1yFib5KGOFxoGTqzrX0LPTv1xNenu5YvXK+xrZKpQNWr5wPlSoPQ4dNwvj3h2kEGbm5dxDy6ijxaze3ugCABvVdcepUHNRqNRQKBdRqNe7fv69TGWLudB21Wo3Q0J06r5O+R2E6knZ1SnJKGl7qN1QMUoRgZtTIwfhkwSo0qO+KESMGY+7c5WhQ3xWr127BvDmTxeP8tG8rYmLOYs685eJ0K7VajZiYM8hR5WpMn7p8uaTKTaGoavJ7IyIiIiIi46wWwiQkXkBMbMmAsH07X7i61tHZ5uHDQuz94RcxgHmxVzfMmzMBNapX09juxV7dkJ+vxrmkv83upVFUVIQNod9g4+ZvAZQEMPNmjcPL/XtUaI8ZaZVQ545tZKuE7ty5h+/2HhCDiZHDX8N7Y9/QCUZeebknclR5SE5OEx9TKOzQ/bmOYghzOjoBWVk34e7upvec/r6cijNnzwMwvlLT0d9PobCwCK+83BPTp4zW+MyCXuiC1197CdM+XoaU1HQUFhYi4sBRPNu1nezy28eOx2gEMM892wEzpo2FewPNAODFXt0w5cNR+PNkHGxtNe+DoMAuGPXOa/hyw04AJdUmK9dsxd4ff8X0KaPRtYu/0XvnnWGv4p1hrwLQnHrVrWt7zJ8zQay8kXM24QIWLV0vBjAdO7TG3Fnj4NGwvs57uH07B5+t2CyGghs3fwtf32Z47tkOOvu9c/cePl8VJgYwDg41MGXySLzU53mN+6BrF38MfzsEV9MycPOm/iocOTdvZWPGzOVilZinR32sXjELzzT2MGs/1nT/fj4+nrlErP7o3as7fHxKqnuk/U2kjwNAy5ZN8euh39GqVQs4KR11ql6E6phJE0diyaLpmDp9kUYQ4+hYE7u/26gxHQkoqYaRVohkZt1ERuYNo5UhQoXMgFdelA1nMrNuIi/vDubMW47MzBtwc6uLpUtmYseOvTpVNdKvhZDqp31bNcKpH/cdxKgxU3W2Fx4bNWaqRg+dqOPRGsdQKBSoVq0asm/naFQKRR2PRocObTVCICIiIiIiKj2rhDAPHjzEgYN/oLCwELa2tugRGCBbgXH33n1cuJgsft0vOFAngBHY2yvMXk64uLgY+/ZHYv3GXeK5TJ8yGv2CAys0gJFWCdWtUwvPdesou93Nm9lISSn5F35nZyV69+qmtzLFSekAp7YtNR5r5+8Dn5ZNkHjuElJS05Fw7qLeEKa4uBhHfz8lNrg1tlKTWl2AgM5+mPLBCNnPzNenKYYM6oeFi9cBKJkmk5V1C40aaU4BuXHzNr5Yt10MYPoHB2LWjPdkwxqgZFnp7jLXq3Llyhg14nXY2yuwau02cX9Xr2Zg7Ptz0LSJJyZNGGZSGGMutboAO3bt0+ijsnTRFL3Xr1YtJ8ya8R4ePiwJpwoLC7F9x49o06qFThj3U/hviDx8AoBuDyNtNjY28GhYXyf4MUSYphd1oqQ3kadHfSxe+FGFBjCPq0D6Y+GCqeLjP+47WPJov556+7AoFAr873/9MW78TACQbahbz60u3FzrQKFQyPaekePmWgf13OqKFSLZt3PwTGNPg812pYQQRKp3r+6YNXMC1qxeoFHtIhCqY7QrYYTrIHX9+k2Mnzgb9dzqajTe1SaEUEDJ9KuY2ARkZt5AyKujxGAnoEs7RB2PFkMjU3vWEBERERGR+awSwiSnXMOxqJLpMcYa8koVqPX3PLHEyVNnsGT5JnFAPuqd1/BayItWH4SbS1olZOqy3QUFBXj4ULcRqyF1ajsj8Pku4hLYx0/EIuiFLrJBzs1b2WKTYGdnJbo9295gUGVra4uhb74iW8EDlAQCnTu2FRvmZmTewO1slU4II12iu55bXYwc/j+9AYwxVatWwfC3Q9CxQ2ss+WwTYmITxecuXkrB2PfnwN/PB1M/HImW3k2sFsRdvJSC347+CaBkatTYUYON9lGpVs0eQwb1w9E/SoKv+LPncSU5DW3beIvbSMM6ABj8erDRRtHm0J6m5+BQA7M/fh+tfE37fi1L2j1WDFXCSKfpqFR5mDvvc2Rm3sDsWZPg5lpHo6JG8N3ucPH/hcoQQP90JKFC5OzZ8/DydEfU8WgEdGln8vspq1WFklPSsCl0BwD5wEmbdIrWj/sOokF9Vzg61sTQN0Oweu0WNKjvipYtmyLqeDRUqjwolQ64fDkFNWtUh5tMNSMREREREZVOqUOY4uJiHDl6Umzuqq8hLwBUrVIFtSWD1R3/tw9t23pbpRFoTGwiZs5ZIVYnvDt6sNHmsOVBu0rI0LLd1WtUg4NDDWRk3sC9e/nY9c1+PNO4ockhhY2NDTq0b4Xq1e1x714+/jwZj2vXsnSCEAC4eDEZf10oqUryb9sSHg3rGdx382Ze8G7xjMFtnJwdUbu2k9gwNzNLc8UWtboAR46eFL/uGdQVHh6Gj2uMjY0NfFo2xeYNn+KPY9FYtiIUV69miM/HxCZi8FuTMXzoQIwZPRgKu9L3uDhz9rxYQdS6VQu09G5i0uueaeyB1q1a4PiJWNy7l4/Ecxc1QpiLl1LEsK5unVro1eNZq92/Qh8eYZqesSqb8qZQKLBwwVSNShgpfUs5C/1NAGDu3OVo1aqFxn60e6BIqVR5eqcjAUBwcA98882PaNLEC39fTsFbb4ZovL5mzepmrx6kvZrRgV+O4NWQvgB0q2e0pyMJVS0DXumDu3fviT1dDDUIFkIrtfoBIg8fw9A3Q7D1691wruWEuXM+wDff/IiWLZsioEs7HP39TzzXrRNWr92C8e8P41QkIiIiIqIyUOoQ5uatbET+VtI81VBDXqCkaiCgsx8O/1Yy3eJ0dAL+N2Qixox8HcF9XzC5oaq2vy+nYtbcleLg/43B/TH87ZAKD2AA86qEatdSolOHNvjrwhUAwI/7I3H+r8sY9+5beLZrO5OWfW7W1AtdOvnh18goZGTeQPzZ8zohTFFREY7+09QWAHr1fNZo0OPewM3o52OvsEND93rikt+FhUUaz+fm3RVXdAKAjh1bW+0zqlq1CgJf6Ixnu7bTCWMKCwuxcfM3uJaehZnT3zV5Somchw8LNd5Ds6ZeqFFDfkqdtho1qqFZUy8c/2cq0NW0TBQVFYnX4K8Ll8XPxMenqVWb5O7bHyn24REqYCpqpTApfUssGyOsNPTTvq3iPrw83cXKFUHU8WjZx006hmsd3LlzD2++NR6zZ03SuG/U6gfiz5uYmLMGAxTg8WpOXp7uYoNc6XSkTxasMjodSahq+XHfQdy9ew9ASXj10YdjcefuPY1eONLeNEJPm+CXeqBxY0/xnLw83TFt6vsAAH//Vjhz9jwmTJyNBg3c0LJlU7OuFRERERERmabUIYx0ekn3bh1Rr15dg9v3Dw5E0vm/sef7XwCUrPYz95M1+HzVFrwW8iJeHdgHDeq7mDx1JDU1Q2OVl/7BgZg4bqjFU1ysyZwqIaCkz8mwtwfi0t8pYs+Oi5dSMG7SfLi61sEbg/qh30uBqF1b/7++V6tmj149n8WvkVEAShrq9tYKWTIyboirKxlryCs9t9JO57l3975YqeTqWkdc8cmahDAmIMAfET8fwco1X4nLR0ccOIpatZwwZfIIi8OfwsJC3L17X/y6caOGJl8XGxsbODrUEL/Ozb2Dhw8LxXO5eStbfM6jYT1Uq2adSoTDR07g+x9/Fauxpk4eiRd7davQPkkCIZTQZmhpaSkhANm4fgkAaDSeTU5Jw/379/HxjPFYs3YLnuvWSTaAy89Xa0xhioo6LVaQdOjQFmfOJqFVqxYar8lR5QIAnJSOyL6dozNNSkq6mpMhxiph9FEqHTD0zRDMnfc5Vq2YB4WiqrhUtTAlysvTXaz2kZOckoa930egVi1nfPThWFbBEBERERGVkVKFMPfv5+OXg38AKKly6REUYHRwW62aPWbNeA9+bbyxQjJAzsu7i9Cw7/DVtu/xQvdOmDzpHZ3VcuQIYYOgnb+vxRU11mZOlZCgTm1nrF4xC1/v+AHrNu4SV9/JyrqJz1Zsxpovv8ZrIX0w6p3XUEvPVAh/Px80b9YIf124gjNn/0LatSw0a+olPp9w7qIYWnXp5GeV6WCmuJ2tEqsHKtnYoJJkCWhrU9hVxYCXe6KVbzN8PHuFuNrQ3h9+wfPPdbR4Go664AHSM65bfF619VxrtboAWVm3xK8rV65ktZBk69ffi/9ft44zfHyaPhEBjMDQlJqoqNM6jwk9XXJUuVi9JkycThQTcxbXr9+EWq2GWv0Ac+d9jvHvD4Ora1106NAW277eLTawlVbgXLmSijWrF+CjD8dqBD+r14QhJjYBE8aPEAMOIcQ5e/a8WY169YmJScDVtJKKLXMa82rz92+FAa+8iMAe/9PYl2nnUBJkzZ41Cc9162RS+EVERERERJYp1Sj4wsVksblrl05+GgN9Q6pWrYJXXu6JX34Kw8J5k9C0yeMS+cLCQhw8dAxDhn6AP0/GG93X0DdfwbujB4tfL/s8FL8d+RPFxcVmvhvrM7dKSGBvr8CoEa/j8MGv8eGkdzSW+y4oeICvd/yAYSOn4/KVq7KvF6Y1ASWrEcXGnROfk/ZlqV7dHs916/BEDcit7ZnGHpgz833UrVMLAHDvXj4ifzuBoqIiI6+UZ1u5MmrUqG7x+dySVLuUl6WfThEb/GZk3sC8T9bgWnpWuZ+HMRvXL0HM6Z+x+7uNCAhoj8hfv0HUH9+jd6/uGs8J1WRenu7Y+tVKMSyIOh4NF5c6yMy6iTfeGqexFLXQU+bjmUugVqsfTws6/TN+2rdVI3DIvp2DocMmISY2AatWzEOPoGcx4JUX8cZb45Cckga1Wo1Tp+I0GvUe+OUIAp59Bf7tX9T5T2gqLHUtPQsHfjmCiJ8P48Xez5f62sXEnNU4zqgxUxETc9bga9TqkgqgOfOWY/d3G9G/X08olQ5YungGQkN3iteKiIiIiIisx+IQpqioCL8eihIblJrSV0Sbvb0Cr7zcE3u//RLff/sFAl/oLD5361YOPl2yHmlpmQb3UaWKLYa/HYL+wYEASipqZsz+HCdPnTHzHVmXJVVC2pyUDhj+dgh+jdiCLaGL4e/3eNrQ35dTsXjpBuTm3tF5XeXKldEjKADVq5d8HlH/NIIFgNSrGTh1umRwZk5wZg21nJWo98/qMzduZkOVKz81wtqaPOOJ57q1F7/OzLoJtYUrc1WpYgtnJ0fxa3PCjOLiYuT+Mx0LAOrUcYbdP42CFQo7uLrWFp+7eTNbrIIqLReX2pg14z14epQsZR0bn4SPZ3+uMf3pSZedk4uhwyYh5NVRqFmjOhSKkuuWnJKGl/oNhX/7FxETm4AWLZpg3PiZWLN6gU4lyPhxw9GhQ1uEvDYaySlpssfJzb2DUWOmwt/PF1u3rBArXfr364l5cyZj3PiZOHS4pPpO2jeld6/uiPrje8Sc/lnnP7mpRKmp1zB71iQsXDBVfC/avv/hFzHEaVDfFSpVHoYOm4T5n6xAQJd2iIk5KwY9UcejdY4bdTwa/u1fxEv9huq83+zbORg9djpcXOrohFBCk+QBr7yIgGdfMRrmEBERERGR6SyejnQ7W4Xo2AQApvcV0adSJRs0a9YIq5bPQsTPR7Bg8ZfI+6eJ6+mYBLi7uxl8fbVq9vhg4nBkZN7A6egE5OXdxZQZS7H00ylmTTsxpTri3r37RrcBgLRrWThz9i8ApQ87KleujI7tW6PtBm98veMHrFq7DYWFhTh5+iwuXkqRXcZY2qD35Kl4XL5yFa18myE27pzYo8aS4Kw0lMqacHZ2REbmDRQWFuLCxWT4tW1Z5setUsVWoxfPrVvZePDwIarD/PeuUNihgWSa3MVLKbh3L18MvAy5f1+NVMnKTdr9ZNwbPF4p6vKVq8jNuyNW8JTWM409MPvj9zHxw4XIy7uL09EJmDFzOT5dMLncpqPpIwz6BdJllQGIz/UIelbntXI9ZeS2E/Tv11N2pSWgpLfK1i26VSsCf/9W4rFe6hOo8bihqT9yxxOmRQG671+6v0Gv99d4nfb5xZz+We9xx48brnEcoOQ9CtfW0HsVzsPQ/omIiIiIyHwWV8JIp9oEPt/FKgO5SpVs0LNHVwS90EV8LMWEhpZASS+Vz5ZMEwOJW7dyMH/hWly4mKz3NdpTSy79nWLwGPfv5yM6JtHouWg35LVW2FG1ahWEDOgNf7+S4KKwsBBp1+QrhapVsxcDqJLlquNw5849RP6zMlWjRu5o5at/paayULNmDbRo3lj8+vBvJ2QreaytqKgI+fkF4tf167mUaqlqvzbesLUtyS+jYxI0Vksy5OKlZJw8VTLFrm6dWjpLWzdr6iWGOX9dSEZcXJLF5yinU8c2WPnZx3D4pzlw1IlYfPb5Ztw1MVgkIiIiIiKi0rEohJFOtalbpxa6P9fRan1FKleuZHFj3Tq1nTWmXaSkpmPShwv1DpIVCjvUl/RpOXzkT4OhQGx8ktgDxxBpQ97SVglps7W1RfXqpi2J3LWLv3gtTkUnIP7MeZw5ex4A0C2gPdwkvWbKQ5UqtugRGCAGGFEnYnHo8HGz+/cknruE3/84jUePTHtdamoGfjvyp/h10yZeUCjsNLaxtX08VSwj47rBqUC+Ps3EICwv7y6+3vED7t/PN3gO9+/n49vdEeK0sK4B/vDybKCxzTONG6JLJz8AJQHb1zt+EIM8a+nYoTWmTh4pfgb7ww9j4aIvjZ4/ERERERERlZ5FIYy0Ia/cYFKf3Nw72BT2LW7fztG7zc2b2RqNZH28m+rdVo4w7UL41/6U1HR88NEi2Sa2VarYomOHx9OVTp46g693/CA7LelswgV8unidOIg2xNIqoZTUdGzf+SPy8/U3w0y9mo7ExIsASnrNPNPYQ++29erVRfduHQEAV5LT8P2Pv4pTZyzpUWMN7fx9Edz3cSPSeQvWIuyr3Xjw4KHs9vn5auz94aBGOJafr8aY92fjvfFzcSr6LB4+LJR9bXFxMS5eSsH0WcvFVZnq1qmFZ7u20wkNG9R3FYOJC5eScSVZvmcIADg61sTrr/YVt484cBSffPqF3vs6P1+NL9bvwI/7I8VzGPx6MKpWraKxXbVq9nhjcH/x3o2NT8K4iZ/oDRGLi4uReO4ijv2z3LgpbGxs0C84EKPeeU187Mf9kVi0dAODGCIiIiIiojJmdk8YaUNeW1tb9O75rM5gUp9HxcWIPHwcX67fgR6BAXi+eyc0ecYDtWo5IT39OpLOX0LY1j24+k/fjI4dWltURSJMuxD6X/x9ORXzF67FkoUfaaw0BB5Bty0AACAASURBVAAd2rVCO38fcZrRlxt24szZvzDglV5QOtbEg4cPEXU8Ft/t+Rm1nJUIGdAbu/ce0Hvs0lQJPSp6hK+27cXaddsR3PcFdOzQGs2alExRSbuWhZOn4rF91z5xWe+eQV01VpbSVrlyZTzfvRO279qHrKybOJB1EwDQsUMbNG1Sfg15pRQKO0wc/zaupWfhdHQCCgsLsXxlGHb8334MfKUXWrdqjsqVKuHBw4f482Q8wn8+gnpudfF89046+zr6xykc/eMU7OyqwqdlU7Rt0wJVq5Tci3fv3cfJU2c0pqPZ2tpi1Ij/aUyJEjRo4IrmzbyQeO4S7t3Lx/RZyzF86EC4N3DD7WwVHGrWQLdnHzf3DQrsglHvvIYvN+wEUBJk/Hb0JF7uF4TOndqiapUqKHr0CGfO/oU93/+CrH+uvZ1dVUyaMEz2HACgnb8Ppk4eiTmfrEFhYSESEi9gwGvvI6CzH/oFB0L5T2+b9IzrCI84gpi4c5g7a5xZn0HlypUx9p8VxYTz3/P9L6hTxxljRg4y+fuZiIiIiIiIzGN2CJORcQNHfi9Z4tjfryV8fczvK1JQ8AA/RfyGnyJ+07uNr08zzP74fTg7K83eP/B42oUwmD0dnYCpHy/DZ0umaVSm1K7thHdHDxEDG6BkmkzUCc1pRw4ONfDBxOFQqwsMhjCWVglJ5eXdxY5d+7Bj1z6927zwfGdMnjhcZ1qNtqZNPOHv11JjtaiAzn4mNZItK3VqO2Ph/A8wa+5K8byysm7ii3XbZbcXVlTSp6DgAWJiExETq79fj51dVUyfMhoDX+klG4rVqe2MHkFdxQqmq1czMPeTNeLzC+ZprnBTuXJljBrxOuztFWKj5Ly8u9i2/Qds2/6D7DnUru2EebMnoLuBZcGFSpWHhYVYtHQDCgoeoLCwUAycrKVy5coY/nYI0jOuixU66zfuQiUbG4wdPbhCqqSIiIiIiIj+7cyejnTseAxSUtMBlFRiSFedMaZ6NXv0fbG7TjWKlKtrHUz9cBS+Cl1sUYAhkJt2cTo6AfMWrEV2tkpj204d22Dzhk/RsUNr2X35+/kgdP1CvNirm8FjlqZKCCgZpPcPDhKno8hp2sQTyxZPxedLp5sUUDk61kTPoK7i154e9dG1i7/J51RWGtR3xYYvPsGyxVMNVvO09G6CUe/8Dw41HzdQ9vfzwddbluGVl3savFZAyTUdO2owfgkPw2shffSGCzY2Nhj6xiv4aPIIcdloKWnPGEHVqlUw/O0Q7PlmDXoGdRWnJ2lzcKiB0SNfx/fffoHnTaiMqly5Ml4L6YN9ezdg4Cu9ZM9H2O+QQf0Q0NnP4P70EVYVk66utXHzt9i2XX5KHhEREREREZWOTbEZXVFzc+9g4ocLcfLUGXh61MeGLz4xuny0nEePipGbdwdXr2aIfShsbW3RyKsBnJyUqFTJOk1+zVVcXIwcVR4uX76KwsJCVKpcCZ4N66NOnVomnVNaWiZGvzcLKanp6NihNVZ+9rFZIZWgqKgIOTl5SE65hsLCkn4n1arZw9OjPhwcapjVBLm4uBihW77DilVbAABvvzkAkycNf6IqHR49KkZOjgpXkh+/35o1a8DLs4HRip3i4mLcvXsf12/cws2b2eLjNWvWgEfDeqhRo5rZTaPV6gL8ffkq7ty5C1tbWzRu3BBOSgej+1GrC3AtPUs8j0qVK8HDvR7q1HEu1fUuq/2WlcU/ABP6VPRZUEVYFQFMe7miz4KIiIiI6Mll1nSkhMQLiIktaZrr17YlXFxqW3TQSpVs4KR0gJPSwaLXlxUbGxs4OznCWVIZYA5plVCnDm2MVmnoU7lyZdSu7YTatZ0ser3UzVvZ+PXQMQAlQdfz3Ts9cQP3SpVsUKuWE2rVMv/92tjYoGbN6qhZs7rBJsXmUCjs4NOyifENZV73TGMPq51HWe+XiIiIiIiIypfJIcyDBw9x4OAfKCwstGiqzb9dbu4dHPwn7LD2st2lIV2pyd+vpcGpP0TWsiqios+AiIiIiIjoyWNyCJOccg3HokqWwrW0Ie+/mbRKyNKGvNYmXakJML+HD5ElOB2FiIiIiIhInskhTPXq9li0YDKAkmanHMxrcnGpjQ1fzAcAuLu7PRFVQqdjEvDb0ZKVrFo0b4znn+tYwWdERERERERE9N9lVmNeenKpCx6g+NEj2NsrUFRUhN+OnsT8hWtx61YObG1t8cnciegfHFjRp0lERERERET0n2VWY156cmWkX8eod2ciI/OGznPBfZ9Hrx5dZV5FREREREREROWFIcy/3BuD+2PiuKFQKOwq+lSIiIiIiIiI/tMYwvxLVK9uD1/fZlAo7PDgwUP4+jTF4NeD0bZNS1SqVPGrNBERERERERH917EnDBERERERERFROahU0SdARERERERERPRfwBCGiIiIiIiIiKgcMIQhIiIiIiIiIioHDGGIiIiIiIiIiMoBQxgiIiIiIiIionLAEIaIiIiIiIiIqBwwhCEiIiIiIiIiKgcMYYiIiIiIiIiIygFDGCIiIiIiIiKicsAQhoiIiIiIiIioHDCEISIiIiIiIiIqBwxhiIiIiIiIiIjKAUMYIiIiIiIiIqJywBCGiIiIiIiIiKgcMIQhIiIiIiIiIioHDGGIiIiIiIiIiMoBQxgiIiIiIiIionJg9RBmw8Yt6Na9L8IjDlp711RKqalpGD12ElJT0yr6VP7T4s8kYMPGLRV9GkRERERERFTObK25s/CIg9ixczcAYP/+A+ga0AmOjg4mv3bJ0lVmHS8oqDumfDgeCoWd2ee6YeMWXL9xS+f14REHce1aOkaPGqaxfW5uHqZOm4sxY4ahTWtfnf0Jzyedv2DWeaxetVh2f2VBqXSEDWxw4JdDOu9PjvQ9TZ0yAX379DT6Gn3X9Ukj3G+mvi9rSk/PFL9PTPkc5MSfScD4CdPK9f4hIiIiIiKi0rFaCBN/JgFLlq7CkMEheP1/AzF12lz83zd7zBpkerdohiWL5xoNbtTqAiz9bLVZ5zZ+wjQMGRxi9HwaN/bC/v0HMGbsB+K5pKam4aMpsxEY2M3osUwd1AvnpM2SMMrU83B0dEBwcG/s338Aubl5GtdZ7nykn0fW9RtGj6lWF6Bp0ybYsXM3/P1amxVuCNfYlOMIXF3qYtnS+fDwcDf5NU+Cvn164tq1dMTFJeh8DqY6eTIa3i2awcvTowzOkIiIiIiIiMqCVUKY1NQ0fPrp5wgK6o6hbw2GQmGH6dMm4aMps9GgQX2TB+NJ5y8guP8gk48bFNTd6DZqdQH27T8AV5e66N0rSO92GzZuEasTBNrnsmPnbnEbfWHLkqWrShWi9O3T0+D1EqpTgoN7m3Rd9YU60vc2dcoE1K/vBkB/ZY6rS12zqn2MXQd9AYqplR3xZxLw6aefG92uIggh4aFDR4xua+h+nzplAgAYvI7mfL+YEkISERERERFR2Sl1CKOvysTDwx3Lls7HR1NmA4BJgUFZVMJcv34DiQlJ8PH1hotLXYPbak9vEgb60rBACCL0KW0ljLX17dMT9eu74eTJaI3PR7iG/YJ7o01rX8SfSTC6L0dHB6xfpxl85ObmYeGiz/He2HdkK1LizyToHPu/wlqhh/b9tGHjFsTFJZj0vUJERERERERPjlKFMEKVhb7BpjSIkeuzoq0sKmESz51H1vUbmDHjAxQUFGDipOkalRyHDh1BUFB31KheHQAQH38WX23dhSWLNYOW1NQ0fLr4c4wdM9zg8UpbCQOY1l8m6fwF2ePIBVkKhQJxcQkIjzgoDugjDx9FYkISvFs0K1VPEbW6AACwaPEKnePm5uZh/fotyM7OQe9eQU/dtKGyIHy2bdv6WhTQpKamITLydwwdOogBDBERERER0VPGohBGOt3C2PQRDw93bNq4qqSpraTPijZj03AskZubh/37D4i9M6SVHNoNZDds3IK79+6hTZtWGGOvwKo1G9Dzn5DnSnIq/u+bPZgx7QMolY6yx5KrEiktuaoaoXfKjBkf6Fz38IiD2L//gM5+mjdrgjFjhmH9+i3oGtAJySmpWLJ0lVWaurq41MHgQQMxfsI0jR5AanUBVq3ZgHr13bByxaJyb9KrPb3M1KoUIViUTpcS9iV3vcxt8Hss6k8xlLLEgV8OwdnZCb4+3hgz9gOTG0GzgS8REREREVHFMzuEEabRBAV1x8EDe00aXAsBRXjEQQT3HyQOWK3VhBaQXykpOSVVXNnHnKqBNq19NaboNPLywIZ1KwCUBDsCS1dE0sfaA2W5ZrfSSiNhOpR3i2b43/8GmLxfuf45gGbPHCnt3iiGAgtzpmi5ykwv09ePZcfO3ejYsZ3B6ys0lzZ1Wpwp9E07e3PoGIOv0xfARUb+jhkzPkDDhg2Mhn7CsdnAl4iIiIiI6MlgVggTHnEQW7fuwtdb1yNHpULP3qYP3IGSaoT9P+7C1GlzERN7BlM+HF9mywNLG/L6tGxh0msOHToi20xVbsAcHNy7TKpfpAxNbdIXVni3aCb+v4eHO779ZotJxxICJ0MhiDQk0g69UlPTsGfvfrw79h0oFHaIP5OA9eu3aIQZxvrpaB/D2PnKNeb968JFcYqZdn8fY/sTAgtr9lpp09oXvx8JB1C6Xi5qdQG2fv1/8PH1RvNmTY1uLwSc1n4/REREREREZDmzQhjplCEPD3dxcCmQNszVrkqRkgsu9FVXGGJogGlOQ16BXDWNNn1BgiVLLAOGq0KsNR1JSnsaljYhBDFnFSYhwBg54i3xMVdXFwQH90Zw/0EmBSvmBEZASbhhaHuXurU13p+h4wure7m61MX0aZPKJLCIP5MgTmkS9i98XqaEJJGHj4rhkiHSSiBT7mciIiIiIiIqP1ZZotpa5AaN+kIDY4GDtCGvKYNQU5ukGqt+0Q4c9IUmplSF6OPkrISTUmnRaw1xdalr9n719UtxdamLvn16wqdlC3w0ZTZ8fL0xeuTb1j5lHc2bNUVQUHdxapSxXjDZ2TlYtLhkqpncktnWIDQoHjI4xKLpZsI0KVMIYQ2XoyYiIiIiInryPFEhjL7pQMJz2qRTb6S0G/KaQl8vETmGBrj6pvPoezw4uLfe4xiajqSvp4j0mhh6T9LHpk6ZgPr13fSehz5frtuMu/fuYeniuQanMY0fNxpJ5y9gw6avdJ4zVkEkhDuGlvSWNtFVKOwwe+ZH8PdrjSVLVxkNYzaFbgNQ8pmW1epNQm+ipPMXZKu95FYEE6qghABn6pQJuHYtHddv3EJ8/FlMMRLgyfXnYWUMERERERFRxbIohDGlIa2+MMPQ9BtrVcIIg94hg0PMnlpiKGCRTrfSxxqVMI6ODhgzZhj27T+g933LTWHRviZCIDF75kfiY/qup7GeKXKk/V+kQYj2e7S3V2D2zI8Mvmd9183Ydvp6wwhT54RjCoGE9mcrBEQ7du5Ggwb1rdKjqKCgABnpmfD3aw1Asy+MlCnTkf7vmz1o29YXffv0xIaNJdOv2rRpJbs/U/dJREREREREFcOiEEbflBxTe8LoY61KmJMno+HqUtekZYDj48/i8xVfYv78GWadqz7WqoRRKBTISM/E0s9Wi9dSrS5ATOwZtG3ra9Yy38LgXRpAxMefxZmzieJj6emZcHZ20rsE99PK0dEBSxbPxdRpc3H9xi2o1QUa96W9vQITxo1GRnqmWHWkL4hJT8/UCICEz0MfS6qLtHFKERERERER0b/HEzMdafSoYbIDTmONZLUJy/gaasgbHnFQrIxwqVsb336zBWp1AQD9yyxLDRkcovOYvsayhhrpGtK8WROsX/c5Nmzcgp69B2D1qsVIT8/EoUNHsHrVYpP3I1yP4ODe4nsEgHx1ASIjf0fHju3QvFlTg+HO0yT+TALS0zM1ghShMqqenlDE0dEB06dNwkdTZmPJ0lWoX99N47Pq2LEdduzcja1bd8GnZQux2mfrtp2y4aBKlYtiFJdJ3x4iIiIiIiJ6elV4CCMspWuMoV4t0mlMhhryCoFIYGA3vdM5zJ2OZMrULMDw0s+A/qWZR48aht69gsS+KeY2dz3wyyH4+Hrj1ZCXNa5H507tcf/+fezbfwAKhQKJCUnoN+MDk/erLev6Db19agz1vSkL+nrp9AvurTfI8/Bwx7Kl8/HRlNkYP2Gaxufh5ekB7xbNkHT+gsZ79G7RDCNHvCX2lREknjsPG9hAoVBg/oJlRvsMyfWEAQxP3SMiIiIiIqKnT4WHMPqm0AjMqYQx1pDX3GWQTWFstSRLK2EAzWW7g4K644NJ72KKpL+JoSW6gZLrcflKKt77p3eLtq4BnXD09+OIiPgVzs5OJjcxliPXE6YitGntiyGDQzSqmYxdJ4GHhztmzPgA4ydMw/gJ08QQRDqlSQjbhH0ei/pTYx/SKWMuLnV0evJIlUX/lmvX0q2yHyIiIiIiIrI+s0IYc1YQMrSNMGA/8Msho1N/TNkfUBJS9O4ZaHFDXoE505GMrewjZawSBgAWfToLX3/9rTjQX71qsU5VjrSCJzU1DSNHTZA9vnCNly5+3AhXrS7A9Ru3xK8dHR3w3th3xJDI0mvWprWvSeGWSpWL7Owc2edMuT76tnPVmnamb2qblL7wT18TXX1hm/Z+Ig8fRWJCEoYunW/w+NYidw9OnTLhqZ9WRkRERERE9G9kVggjt9pOaZgyWDbHho1bTG7Iq48505HKorImoEsnk7c19fjaU75Wr1osVsYc+OUQAgO7mV2lYyppNQ9QEpYFvvCcznbWXh2pIghVMEOHDiqTiiC5+7Is7kEiIiIiIiIqGzbFxcXFFX0S1iAM2n18vS1amYmIiIiIiIiIqCz9a0IYIiIiIiIiIqInWaWKPgEiIiIiIiIiov8ChjBEREREREREROWAIQwRERERERERUTlgCENEREREREREVA4YwhARERERERERlQOGMERERERERERE5YAhDBERERERERFROWAIQ0RERERERERUDhjCEBERERERERGVA4YwRERERERERETlgCEMEREREREREVE5YAhDRERERERERFQOGMIQEREREREREZUDhjBEREREREREROWAIQwRERERERERUTlgCENEREREREREVA4YwhARERERERERlQOGMERERERERERE5YAhDBERERERERFROWAIQ0RERERERERUDp7aEEatLsCy5esRHhFZ0adS4ZJT0rD2y6+gVhfoPKdS5WH+wpVITkmrgDMjIiIiIiIiIsFTG8KYS6XKw4xZSxAXn6h3m/CISCxbvl42zJAKDduF0LBdsq+fMWsJVKq8Up2rvv3rY6+wQ3aOCvMXrtQ4tlpdgE2bd6Kemwu8PN11XqdS5SE0bJfR91sa4RGRZr0XqdCwXSZ9HuXBlPsHePzZxcUnmnUvxMUnWvxerXXfGSNcA2PBp9x7V6nysGz5ep1zNPd9lyZUTE5Jw6QP5xn9DImIiIiIiMqKbWl3EBq2Czk5uRj33jAoFHbWOKcnmkqVhyvJV/HqwL4aj6vVBUg6fwmvDuwLpdJB7+tDw3YhOuaszuOjRw5B2zY+evcvlZyShtVrw5Cfr9Z5btrHi2RfIz1m40YeGPfeMOSocnEu6SIiDx9D3z6BUKnysHT5OmRnq/QeW9DOvxVGDB9kdLtGjRoi6kQ0li1fb9Y9IlyHgM7tSnVfxcUnYsOmHRa9VrhOlhzf1aUuXh3YF0uXr8OUyWMN3hMAoFQ6AgDmL1xp0vYC4b5r5NXQ5NfICY+IxP7wQxqPBfcNQt8+geLXUcdPIztbhagT0Qjo0t6s4ymVDnByctS4HipVHr7bEw7vFk3MOteWLZpiybIvxe8ZUyUlXYS9vQJeng3NOh4REREREZG1WBzCSMOExo08rHZCAlMDgctXUnUGj1LmDtSMSU65CgA6A7nIw8dw+UoqLl9J1XmNvb0C498fDi9Pd4wYPkgjvBDep7H9S3l5umPFZ3N0HhcqToT9a38tt5+33hiI7/aEi4PqTz+Zqve4QqDh7KxEyIDHIZGhUEiQna3CxMlzZZ97pX8vHDh4VPb1+8MPGfx8Bc7OSr3hhfT6lxc3t7pwc6urce+Zek/rC9KCArsiNi5R7+vlwj1thq6FEDqp1QVYunwd6tVzEZ9LTknDocPH8NYbIYg6fhq794abFMJJhQwoCaWijp9G3z6B2L03HE5KR4QM6KsTdOkLK6X0hWuNG3nAwaEG4uLPyT6v7/pq0w6hiIiIiIiISsvsEEYYcL/1xkBxUFUWjAUCanUB1nyxBd4tmlg8UNI30JOGBdqD+4yM62jk1RA5qlws+exLjBoxBABw6PAxncoJ4RwBwM21rtHzUasLcCjyGLKzVXoHitJjmFOFlJySho2hOzBqxBCNAXiL5k3gpHTUGVRL9w0Aa77YgstXUvWGWgqFnc7gXggdXh3Y12gQ1qtnd53XBXRuZ9VBsEqVh02bd2LkO4P1VnEIU20MHVf4XOUCN4H0vhLuIYH2NTTnXpaGX8LrnJwczQ5EDNEOAoXrFvRCV3Tp7A/vFk2wdPk6hEdEmvT5aFfZaAdrwveb9nWRq7YKj4hE0vlLZlcohUdEIupEtFlVRkRERERERNZmdggjrcIo6x4U1qBdpSH867kwwJMO8owN8ISpH9LpE2q1Gj+FR6Jrl/a4knwV23fuFfe5fede5KhyMWXyWJMGjJlZN5Cdo8LUj97VCDPkzkutLkDIgL7YvTdc45hyhEF0cN8ecPpn2otAobBDUGBXnEu6CLW6AAqFnca+hQFycN8gfDR5jNH3IBV1/DQAw1U9hl4X0KW9Wa8zRq1WI1+txrwFK2SrQeLiE7E//BAaN/JA4Atd9X5mCoWd3msRHhGJzKwbsp+Hvu+X839dQkbmdYQYmIJmzdcZExObgIDO7cQpQ0uXr0Mjr4Zi4KJUOmDkO4Oxem0YgMeBlXaoOe3jRWLljTSs0Q4EtavB9FGp8kqmQpk5RU36OgYwRERERERUkUrdE+ZJJ4RG5lRl6HP+r0u4fCVVI4RJSroEJydHDBzQR6xMEKYBnUu6iPHvDzd54Bd5+BhycnKhUuUCeBwQZGbdgJOTo8bAU6Gwg0JhZ1IFhLGqorZtfMRroq86SLt6Qa5fikqVixmzdupMlzE0/UN7yod0wJycctWkfi6m9m5xda2L2R9PRGjYLp2eIskpadi2fY9O9YX2FCLhfAxNc8vJyRUDLTn5+SUre2lX0ixZ9qXec9c+L6FqqqV3UwDApA/nGZwOBhiesiVQqXKRkXkdgS901QhgtO8zL093zJk5CUuXrxMDQiHUtGbViVyvGkNT1OTeoxDq+fv5yl53OdaexkhERERERAQ8BSGMsX4jcj1hTG0aa66Y2ASdx/z8fMWKCqGqZMOmHWb3Ibly5SrOJV0EUDLlSRgAqtUFyMnJ1Qh+jPXL0H5ObltpHxbtc5VeP7nwSqjM0aZUOophj6UNm3fvDQcAsUfN+i/kAxzplKCgQP1VK3KE97Zh0w4E9w1CQJf22LR5J1p6N9W5b4QAS/s6xMUnYsx70zW2HT1yiMbX+qZV2ds/rqSxNLCIPHxMrILR1yNIINwvplSCRB2Phr1CAXuFndEpYcK1CQ3bJTYUVijskHT+ErKzVWITXn1hmqHQSdC3TyD69gnUmAZpTjgi9LIJeqErXF3rGqzmEnoeNW7kgRbNzWsWTEREREREZIonPoQRBphx8YnYtn2PwWBDGESZ0n/FUJCh3UDW2VmJQa/1F0MSQ8d2dlZi8cLpyFHliuGRtNpD7l/2AeDXyD/Qzr8VACDp/CVxOkxm1g1kZF5HUGBXcVvtaVSW6tWzuzg1xJqSU9JwLuki3npjoBiOGGsSDJRcw+iYs2jn38pgWCBcQ+FaW1JtMWL4ILi51hWrKho38sAbgweYtQ9prxe56TTJKVeRn6+G9z/VKtrkpsmY0vNECBbqubkYvNeFe9LeXqEzxU2fgC7tEBOXgJjYBDFQk+snJH1M+pkmp6QhI/M6nJ2VYu8Y7xZNNII9ff2JDIn85/0K4Ygp+1CrC7B7T0mop+8zADSrndiMl4iIiIiIytITH8IIWjRvgnpuLog8fEx2IC9MzxD6eRhjbpARGrYLjRt56FTkxMYmYMmyL9HOv5VYtaFS5eHrHY8Do9CwXRjz3nQE9w0CoDl9Rq7CYtv2PcjMuvFPv4zccl9WNzrmrE5ApV3JoG9FLGHgKx0wm0JYrtgYIYCxRrVTQJf2iDoRjexsFbxbNLHKEuv16rkg6kQ01OoCxMQmoKV3U70hgbTqx1TC9TU29Uha1WFONZJS6YhXB/bVWDHLHJGHS6ZIXUm+ipf6BEGtLsCxqNPivW8JIZwbPXKIWZ+RsGKZvb1C7zbC919+vtrkoIqIiIiIiMhST00Io1DYIWRgX6xeG4a4+ESdKQnCgMvYQM2Unh7awYhaXQAACBnQB1/v2KuxrZ+fLwYO6CN+LVTYvPVGiNgEVxr4CKvvCLT7tXh5NoS9vQJJSRfh5loXhyKPoZFXQ9nBsClLQ0uZOkXK0ulIAMTKnfx8teyS1NrhTnDfIAS+0BWbNu+Ek9IR9dxcxGMYWppaOygyd/qXtBls40Ye4rFKWwWhVDqiuLgYsXEJYjWQvuNfSb6qdyUs7WsnfCZCs+euAe2RmXkDsXGJ2LZ9t97zuXwlVWdfxvqdCIFfcspVs6f+ZGReF5tUA8AbgwcgJydXto+L3HQkuXBNmAZoypQmoTopOeUq9ocfQo/AZxEde1ZvvyJD+yqraY1ERERERPTf9dSEMEDJ1KSgF7riuz3h8PJ8HEwIq9oE9w3SGTQKFQECSxpuCg1whTBGm3Q6w+iRj6dnxMUn4rs94Wb1+1AqHRDQuR0OHT4GtbrA6Oo3cktDyymLaUdS9vYKOCkdoVQ6yPYnMTQdKS4+EQAw7r1h2L6zJOQSeoFos3SJYikhvLK3V4ifTWjYR/JANAAAIABJREFULrODGENLif8a+YdsNZBCYQflP9dJrlmyofcnhBxTJo9F1PHTyMy8Ab+2PujS2V9nP5bce9JzlK6ipVLlwsbGRmdlLSmhQse/rS+cnB5vp72SlHDtAejct6FhuzSmVwn/L1e1Zmg6klAVN3rkECiVjoiOPavRr0jKGg27iYiIiIiITPVUhTDA4wGydtPPdv6tZAfPbdv4YP0Xi3SWwTVWaQE8/pd3YUqHPpG/HdMY7EqPNd7A6wRx8YnIyLgunr8wTebXyD8Q3Deo3KdImDsdSaXK1RtQmUK6OlNZ0zdNR1qxAZgWxMj1hHFSOsLGxgbZ2Sq8FvKSRpCSo8o1uWpJjpenO2Z/PNHi15tKrS5AjirXrNcoFHYI6NIe3i2aIDnlquw2wlLp+pZ/z8nJhb+fr/j/pvR20ncuQvCTnJJm0T6IiIiIiIjKwlMXwgCPB8hCFYIl0wb0VVoA+v91XF/QMPCVkulI0ua80lBG+Bd+7eMJK/wA0BvySJv0ylGrC0xaZQaAwd4YUuZOR8rIuA4npaNVeqqUJWGqmFyfFIXCDuPeG4Y1X2wxGMRcuXIV3+7+CaNGDNGorBD+X60ugJPSEY28GqJtGx+oVHlY/UUY3hwy0KSKkooknbokXSEoJjbBpM9XriJHIA0mXwt5Cd/u/knjeWnwI/x/vXouFr8XIiIiIiKiJ1GZhTDJKWklzWnfG27R6jX6SCtYfFo2w+UrqTiXdBHJKWlmV4wIUyOCXuhqdi8QL093LFowTeOcpM15gcehTDv/VvBr66vx+ti4RHy35yedKRnCvoSlk5cuXycu/yt3HZ+E6UiZWTfg3aIJIg8fM1pdJLcilSVTxORoh1rS0ECo1jG0+o1CYYeR7wzGps070ajR40bIanUBNm0u6ScSE5eAqR++K34W0r48jRt5wN5egctXUtG4kYcYJgjVLxkZ19HIq6HeJZul5PrpWHPlntCwXbiSfFXjvpILp4TeNQGd21lt+pdclU2OKhfFxcVQKh2Ro8oVp0TNmLXErD4u+t4HERERERHRk6DMQhgnpSOcnZTitKHSBDHSga7ccrvSnizmDMC8PN0xZ+YkLF2+DplZNyxuwqldVSMddMotoXz5SiqcnBw1eqdoL3EtvObTT6YiNGwXpn28yOrL5wrTQ3JycpGUdBFenu4610DoXaJS5WkMiIUGyCpVHjIyryPwha7w8nTXe36mLFFdWkLoIRcYKJWOeP/dt43uQ6l0kO1h8tYbA8XHpUFg40YeWLRgGhQKO4RHROLQ4WN4LeQl/Br5BzKzbgAoqUCyVyiQdP4SggK7ilPk5Fij540xwnQffQ2fpaKOnwZg3gpOUnLVR0IIEx4RicRzF8Rthal34RGRqOfmAk9Pd9k+LoBly1wTERERERFVtFKFMPqaiwrPvf/u2wgN22VRECNUNQhVBcJA19h5JKekYfrMxWL1gbHgwtB7MIf0fJ2dlZgzc5LO+1WrC5B0/pJG5YcpS+SOGD4IIQP6YunydYg6Ea1xLS2djiQct5FXQ4x8ZzBWrw0zGETpu05Rx0/DXqGwuH+HKYSBvEDfCljJKVeRn6+Gt3dTjcfz89UmXyMpYcUl7UbDclPZQsN24VzSRbEqKT9fjcjDx+Dv5wt7hQJX09KRo8ot06XGtfscBfcNkv2eE1awCgo0vJS7tOG1JSFqcspVnEu6qPd7sG+fQJ1gTKXKQ9SJaLxqoBl1aWmvKiadekVERERERFSWyrwnzIjhgxAatgu794abVQWhvaqKqbw83TUGzckpaZj04Tzk56vh7KzUOwi2dGAmVLCYskSy3HsyNQTSt52l05GSU67CSemINwYPgEJhhxWfzUFo2C6MeW+60XMRODk5wtGhJnr1fM5qVRty94jc6jhyMjKuo56bi0YgZKjqxFqSU9Jw+UqqxucQ+EJXrPliCzZs2oHgvkE4m3AeAZ3bWW1qnlwQZKjPkZRKlQt7e4XBQEhYYUhfw2tTeHk2lF0pyxDhvrRWKCKdNih9zNzzIiIiIiIisgab4uLi4oo+CSJrKI8pT/8G5THliYiIiIiIiHQxhCEiIiIiIiIiKgeVKvoEiIiIiIiIiIj+CxjCEBERERERERGVA4YwRERERERERETlgCEMEREREREREVE5YAhDRERERERERFQOntoQRq0uwLLl6xEeEVnRp0JERKQhPCKSv5+IiIiISMdTG8KYS6XKw4xZSxAXn6h3m/CISCxbvh5qdYHebULDdiE0bJfGY8kpaZi/cCVUqjyTHn/SWBJohYbtKrcBRlx8ImbMWvLEX0f6b2IgTNrU6gIknb+E/eGHDP7O0Sc8IhJj3ptulZ97ySlpmD5zMZJT0sx+raGfvZb8XE5OScPaL78y+DtWjvD7W/t7TN/jZcnc9/00/v4KDdtl9G+h8iL8fLXk+6gi7o+KkJyShkkfztP527QsGfu9JzxfnucUHhEp+72m7/EnkXDdyvt89Y1/LPn9oVLlYdny9WVy/tKxnKW/20r7N1tcfCImfTjPot+pZSE8ItLi77Mn6Wd9Wamo7ylT2FryovCISOwPP6Tx2OiRQ9C2jY9VTupp4+XpjnpuLpi3YAXGvz8cXp7uiItPxIZNO/DWGyGyr5G7hoZIr29yShpWrw1Dfr7aovN1dlZiyuSxUCodAAAKhR2CArti2/Y98PZuCi9Pd9nXSY8b3DcIffsEWnR8feLiExETm4ARwweZtL1KlYdNm3di5DuDxfcSGrYL55Iuip8DlQ9ed13mXBPh58F/+edoRSmLz0mhsMO494ZhzRdbcCjyGFo0bwKFwk7v9sLvC4GzsxKLF04Xf67p+31h7Oew8DO7a5f2cFI6iscy9HM2NGwX3Fzr6uxXpcrD6i/C8OaQgfDydEdGxnU08moonqMp7BV2yM5RYf7ClRq/g4RzDY+IxIjhg3SuVXLKVeTnq+Ht3dSkx8tSTGwCGnk1RNTx07Kfib29osx/DqrVBVjzxRZcvpJq0euN3TeBL3TF6rVhiDx8zKTf8ypVHpYuX4fsbJVJx9f+G8QYfz9fbNi0w+y/O0pzf5j7N5qxcwsN24WcnFyMe2+Y7M8C7Z8BjRt56N1WSq0uwO494cjPV+Nc0kUkp6Q9Eb+DFQo7hAzsi9VrwxAXnyj789Lc+0Ygd/8Iwbf2zyR9jxsTHhGJpPOXTPoMpLQ/R4GpPxciDx8Tv6+jjp+2+t/Z5WH33nDkq9VQq9VITsk1Ol6x9Geml6c7Xgt5CUuWfVkmYxJ9WjRvgnpuLti9J9zk+yM0bBeiY86afAxz/hZs1Kghok5EY9ny9WbdrypVHq4kX0VA53Zm3eOA+eNQYz/P4uITsW37Htn74N/8PWV2CBMXn4ioE9E6fyBu2LQD7fxbmTyANsbUH86Xr6Qa/EVZloMauXNcsuxLjW22bd8NQP4GNOWXrHAMKS9Pd6z4bI7e1wiJqKHPQkgGtf+Ik57/6JFDkJFxXby+jRt5YNGCaWZ/s5pKobDDleSrCA3bZfQ+UqsLsGnzTly+korklKscuJaS8AP1rTcGVui1NPSDuLzo+2XJgMR85fl5VsS9Y+pAbeLkubKPS/9wNDYwlf6+EAbhhgh/uGjftzGxCYiOOSs7IFSrC9D3xUBs37kX9eq5iI8np1zFtu178OrAl+CkdBQHNt4tmhh971KurnUxZfJYrPliC5YuX6fxfiMPH9P7B11MbALqubnASen4/+y9e2xUV57v+6V7JFfdo2vvss7B2PcYXEYwwQEE2PwBdkvTtnv6igoaNYaReAR1HAh5T3LpvJNO0t1pEtLczoEQkuAUIxpsacD8k5TvaNrlo7ltE13hl4IpMubgMvaRX1dybVs61+U5f+T+Ufw2a+9a+1kPTPL7/AXlqr3X3nvttX7ru34P23mLcLvQd0IyuYhEYg5V69YgtKMBoR0Nnhdr2UC28CCboXZbjamxSbvJdvbVl5FO0/4tM4CdjJEDg0O41B5J+9zJu2TWnuJiBVs2b0Bn9C/S38n6hwyjDevERrN7F8X5ZHXlKul3jO8qPcNTp8/Znj/a1Y2JyWn8w3PN+CoSdbUwzCZWNrtxAWW8z24W0JGOKHq+7k37fHJqBhOT02hsqDNdtMnmdbNz08L2QusVT+saL/ZCfHQcnV3d2BlqBAB0dnVbbozmA1Wdc+UlMTA4pG1qrFixHAAs1yuZsnnTerz/3ms4+0UrardvRUI1F33ofXaCU9HEbG4H0vuWkzWybM0HOBM9ZmdV0/b84u9+jn/+l3+V/t5qnBeRbeA73byK3bwl/Zv4rvr9PsvjfF/eKRHXIkywYiV+/cYLugE+tKMBk1MzWVXhFaUQv//tK6Z/p4mPjCEvmL1kYid2YsgZvVQ+b7mIJw7t1+6DWQe8PXLH8gXOJbRT2xJuQ2hHg+6ZtYTbUL1lAzZvWo+JiWnHOzKZsu6hNTj8+D6c/DiMSEfU8rleaL2ChDqnEwMBa+GJMScWG/bsWZVN+vqv3+8mANBPlmaToh3cF/P7PL2eK9Pn5GV8dCKiZEJLuA0j8bG08RFIXS95Fhg9Uny+ApSWLsdLR58EAC0EJFixUmdIx0fHMTE5Ld0EkRmaRqGCvIRIQBcNd+N9pN26PU0hKEqh1jYnYkO2mZyawWxC1XlWTE7NIBAo0rVbvN58Ex8dAwDUbt9q+h2ZfSXO+0as/pZNZO8SiTZOBLXdu3bofpepKOvGRjMKkuLGxu5dIdM5RFXncak9gprqjdr9VZRC7GkK4bOzFy29kQYGh/BlpBM7Q41Y99AalK4owfETZxx7MHnBKLbQGLAz1Ijf//YVxEfH0XP1Gg7s26X7XXx0HH+62I7nn2nOqjBKxGLDKCst0bwOPz19DMA90catILvuoTV4+ehTOH7ijK09KjIxMQ2/3wflruehU8izu6y0BA31dfD5CjA5NXPfRDUvZOOdc7oBLxPZXn3jGI4c3q/NVWYCuRNR6VDzXt08ZuVB6taL3ysy0YPu156mkO34/PO//Zu032UyfyaTi44FbqMATTZQIFCET08f0zySZXyf3ynXIozZIFa6YrnpDbyfGNVDenHJUBRfGqsX1rj71tv3DepqU0ZOIjGH37z3ER7d36Q798DgEDqj3agMrpS2zasnDLXJzh3ZTvX3+QoQrCjH2S9atQlqYHAo5Z62vcb0uLkkWFGOgwea8NnZiygrKzE1CMlgz8VkzjAyEok5y91jMkZzsQPP/LCRLfRlGOeFV984Zvn92VlV55FitoMsHoc8JB+uWqvNn243RXy+Ap2Ycqk9gsb6OqnhTqJCsGKl9HMrsSHbxGLDKA4oKL27wysKRPcTmReJ7NlbuW+Xrlgu9ZwigSygFOXdEzCZXNRsKDfjKf3u4Qx3PDPxhBE9lq3yEMRHxzA7q6b1oWDFShQXK4jdvKUtIEToXRVtOkUp1DayzOynTCEBz+yd99/1aBaFCwqZKg4oWW8PHZ8884y2e+zmLdRuq/E0H5MYdqk9gtrtW3M2p5OdH1CKdP3twL5dOHX6nGdvHCcYN6NfOPoOiosVNNbX4Z8uf6V9blxsG+0c0ZsrWFGesXBr5vVA/a6xoc71sY3XKttEMBsjFaUIN2LDaZ76NH+VlZZAVefzbvf1XL0GIH1+dPq7TObPTDxhRBsgF9zPd8oNnnLCPEjQROhGLTQidhYx1EdV5xG7eQuBQBGef6YZZ79oRWNDHQCgv/86+gau4+WjT2md3Ug2PGFkrpSycCQzQ6Ghvg6xm7cQHx2DohTh/IV2HDzQhHUPuXMzzyabN61HXe1WjIykhxmp6jwmJqdNX3xjfgfxRXwk1IDPW1o1Qc7MwDIKd+JkQ8buwQO70XP1Gm6P3NEdx/hb44BOf3+4aq22G03QszQuhGTPWCbCGb9H9+KJQ/vwVSSqfVdsk51ICcjjMbMdmmM8B034dE10LQcPNOFSewSzsypqqjdquQvEBaHx+o19RZZ/w4loEggUSb3zzIxRs/MbF0zkJinDrj9Z9W96hsZjGD0VxHZGu7p1RoqZq7bxGoztsnuemV6b+M45OZcVmTwnCklR1Xn85r2PHOU2oHYZDZDZWTVt4bwz1Ija7VsdL/Rlhg15xcj6eHx0HNGubu3/mzet13aQ6fn4/T7db8nopLAkCo9KqHOGEKZ7XqFWXL6SOlZDfV3a32gxnfp3Eh+eaE3beLASmrLpxamq8+j5ulfLrQPcW0Abx2snx6LNlWwJtnbXSs/DjNrtW9HzdS/6+q9rY7sokOXL26h/YEgL4xYxCw2QLZpufnsLE5PT2N0UchxWkM+cEiJ9/ddRXKykLaJ8vgIElCIk7oaDGL2DzHLkBCvK8fyzzTj5cRgA8i6crVixHI/ub0KkI6q1+0LrFQCQ5nvKBje/vYXbI3dQtW6N1F7JNG3B7KyKy1ciOVm0mS0WAX1uMSdh+l6gzWjZJnT9T2ulnmjGkDBVnceXkU688tLTml15IzaM0hXLc9b/JiamXR+brtXMC4SuNSDxuAhWlOPhqrUYiY/pxBaav3LVt42o6hxef6s1zdawmgeN4wTNZbXbahAfHZNuvBjJV0RENrjf75QbsiLCkNrs9/uknTcT7OLgnLpD5xpyk6Zs2Vu2bECT4BprhIz3+4VxgSEatvRCrq5cZerFk2uMrqyEohTi12+84Pp4t0fu4E8Xr+DtN1+EohRq/coYc033RRy0VHUe0f/ajaZf3Hue5y9cxpHD+3ULHplh1BJuw8mPw2lGIhmFtOBpCbdpcZmrK1fhoxPvwOcr0D0nsT00wND3RMND7FcLC0n8l1Nhra0kGIht+uMf3jZNOEpultROauv5C+1QlKKsxVXS4s8qSerCQjLN1dVtdnrjddL9MOanyBW0IBDvs1kuBDf96fbIHXwViWo5m+iYvX3foLhY0fq92E/EMXJhIakltxPduI19j+6XMRQw0hHVJceze55ur83q3XXSd3L5nAD78FlRfDUb983EwJZwGwJKkU4Y9/kKULVujTZm1FRvROmK5ZYLDSsjrbfvG6mwVVZagonJac3Ne/Om9ei5eg2zs2raXO/zFejchWOxYSxbtszSJoh0RLVnNjk1kxbKe/PbW9rc7/P50kKRvGyqeIUEF/F6+vqva/YGtamsrAQTE9N5aZOIk00dMebezJt2dlZNEy2MOQPMDHInxjyQ6utmbNm8Htu3VXt2lyfhiLxgjB7PIqLQKNsRziQcyQmUY0iGz1eAQKAIE5PTSKhzuuIDxrHJmFNGFGLyESZh1peM947+T8JZNtYLyeQieq72IhBIHUsUkrORr4nCXJ2mW5icmnG8FqLnJgt/rgyu1Bb2tGh8/a0PlqSXrdEuj3Z1W8512cbrfCBuGsgwm/Nlc6nY1828aXr7vnGVnFeGotzbDLRL9m3G5SupnFzk3SXa9yLie93YkO6Nl0k4khu+z+9UVkSYC61XcHvkDnaGGrN+IbRIdBJrSDefXIWtsNodMU4cdjvlMsPD2DFXV67CnbH/jk8/v5BR7g16uekarRIqya6PDAWjCGQWdx3piJoaItmsAuEk6ZTZIsKJ6Ob3+3RVlEjVvhEbxuTUjKbed3Z1o6Z6o+7eKEqhToChc4qDvRjXLf52964QRuJjWgwiUVysYPeuezvbDfV1Wjjf7qaQNtjR7qTokkwD6OHH92nf27xpPWqqN0qTTu0MNWptpUpYn529iFhs2PbZbd60Pm1So7ba/d5JokW3u49mIQtOEBN0ifeDKjiIO11mk6WxQowbBgaH0Nv3je78wL2cWuL53PYnv98n7Tfk5k79ft1Da7C6clXabg6AtHNRu8Q+daH1iuaJJv5W9l0zvFyb3bubTdw8J6fH81LZBUi9Q+TFYjSAZEK++H8rYdVqLhUXeQBwqT2CPU0hnL/QjoWFRcRHx/H3ux9B99Vr2k53Qk0tJMlIclKRhN5HeqdVdR7Lli1DtKsbh5r3IplcRF//ddTVbkWn4K2T+m2q6o3bGHGviB45hDEUKaHO4bvvvoOiFNmKMHainRe8esIYNxzEioORjigmp2akYdsyMknMa8ToLu90oXX5SkQa3iMiLi6s7IdsJOZ1QkCxDzUUvadkuZ6MBCvKcex3r+ZloSHzwHOSyycb5WJvfnsLpSuWp9mONAY5CeM0g97xnaFGTE7NaGOTHUavRlk/kolpZtD9jXREdYJ4LugfGELP1Wtae90KypTS4OWjT7mqoGMU5mTrKhqrAoEiTE7NaJ+7DclJqHOeq/qIYVayPEdWHoeZJOY1Qt5GBw806doGWOe5I/umpnqj5XhA9oOxUqNINhLzOuVBfqesyEiEESey1ZWrpO7E2YJKgpkNgmQkOW2H1e6IU7wYUhQjLHtZZJOWWagDJZYyGvZW3/dqKIid3clL7gW7ik9mUHvsKCstSRPnSlcsR2/fN1DVOQDliN0VQZz0n+otG3T/77l6DQsLybTfGl2KCePiJKAUaUqv2E76PUEDb2N9XdqgaLweIDWxGctzKnfPJU5iThEnVbvfZ9vbS3Ytboh2dUt3POneJxL3npFVYt7igOIpsVdf/3XTazD2Tbf9ydi/xX4jGia0u0qLZsLv90n7ffWWDVqfUtUijMTHpO+S+F07cS7TawPkfT1buHlOdmQiwAD3xDQzAdpMCJcJMGJ4UGN9nS4XGEE7a6KHHZDqQ88/26yVkE4mF9HZ1a0l1o3FhuH3+bT3gcKTKDzXiMwzSFEKUbutBj1f96bcpe8a1rTDLUKJ+rLteWvGzW9TBuTPGn6CkXgqF03P1Ws6DyVVnbP1/Mk2dju5btA8eUrvHXPL5g2I/F9R20W8G1tIJuwbEQU6N8IBLTCsEO1WK8Pb6fyV69wGADAxOY2TH4ddh4VR2wYGh3K20Eioc/jwxKc6odxrLh+3UBjMnqaQ9l4SNAZ58VAixBLnZWUlOH+h3dYbxri2oLGOkqD7fAWaLU7jrFNCOxpQu30rjp84k1UPJ0rwDKTG25eOPqmFsVatWyMVCWWfxUfHcf5CO8pKS7SckzK7XkzKarwGVZ2Hz1eghTbRZ6INVrpiuWZ/iqE1bvqa0XPTCXRPKGdmQClCY/1PHL1bTp+Vk7GUcixRImqn0AaYHWQ/WIlGJPI6IdO1wIP4TjnFswgjLsbyEf4j7lgPDA6ldXaqA37k8H7LB0DqqtUL48a1zSyRoYhb1zSZwZ3JRCLDLAO5MQHjD4VMQ+omp2a0kA4ZVu7XblDvKvhOS8plfj5nmeqXOuT2Lcu7QTh57opSiAP7drmuQEHnN+tfxsVUvvqTUyYmpqEoRVhYSKIyuFI6xpK4Z8dSuzYRt8/JCjJ4nC58ZH3zyOH9OPz4vrQwHcA8ft0owNA7vLCQ1OYhOs67v/ujbm4SE+1+eOJTANCqISpKIZ59+pcAUvNxZXClFpdvTBxs5alCtkNZaUla2CmJTj1XryGhzqGhvu6u0KZncmrG8l0GshuWnEjMYXdTSBPqVXUOPV/3orG+Dr957yPsaQqhr/96zhedBC0wRdyGI4nQMzEu8ktLl2v5ImihYWyHWYEA8iAmA1n2HTNPE6rWJ5vnjPYW2VcAcP5CO+pqtyJ28xYWFtILKhgxHitYsRLLliFtQe8GL4nZZXlfCL/fh4fXrUXtH7wXSxBDdLKB+NwT6lza9YrlonNJQp1DZXCl1AMi4cBWsvLmNiZ3TiaXW24EmyEWmyBv20xEu2x60YliyM5QI2I3b2ljMr33tBh3khT+cnsk4yqbVl4q4vxLm2ZWOcXMMAuVNfP6ETexxerAilKI7duqUVq6XAv9M7bDyiOc5miz75j1T3q/FhaS0jHfuK7cGWpEw92Nl4BSpAntdt7qxjWq3+9D9ZYN6O6R5zl1SqZi8FJ+p9ziSYQRhYd8uvAEK8rRWF+HS+0RBCvuGTtimT5jW4wiSS7aazXpunFNs/KEMcNsgjFLREZijrHTmbmO9vVfz8id84eEk/Aso+HslXwkEUwmF3H2i1QCMPHavJZsXgpko3IRVUzojHbn1PvPSX/Khjv3/eD7cG1OXa2tRHpxAWnWN5PJRRQHFJ2HES0QxN0/Y74eAFo1L2P+CBrrq6rW6hJby4wy0cgT56zSFcsRu3kL1Vs2pCUO7uu/LvVgio+O4fOWVMlI2eKbvGHEPA4Dg+ljppUnK12D0VsxE+p/WgsAmggzEh9HZXAl6n9ai0CgSGcP3S9EQUPmEWtmiyTUOZz9ohU7Q43o7Oo2XQz8rOEnuNQekW4IGecjWciR8TsyF3WyNWQ7p3abYy3hNjTW16F2+9a7GypyDxW3lbyy9VsZZp6JSxnqRwcPNOGrSFTrD7LKgWZjH411mUKCsqzksJV3tZhXz8y7UUzuDNwL5XbiDZPellSlKxIOloo9LXpxRTqiaX8nUby37xvLfGviOkX0FvSK3WZoVdVadF+9pssp5vSe2oXKyjx8LrRe0TwyzYRuEn8Dd3MIiRjFZpkNbfyObLym+6IohdK+bRWpQF6tzz3zmJYo28xDxS6XklnOTie/zRZL9Z1yi2sRhtzNspkPxA3UYSiRJmV2NuYXIGgHwNjpneSrEBPU5qJDZeIJQ4kZAUhfbqOhIhNzaBFx8MC90tr9A9cxEh/TXM4TiczcOd3gtIqBkZrqjRmf2ywJnlNyGR4hkkkokVtIbfe6o5yLnDBeyfT5GhFd6mUGoNvzG3dg8tWf7KB2lZWVpIVtGcdD8tKy8xZZKtcmw81zsguhdOdRab4IE41/MTcPcC90UtzRPPz4vjTPl9Q57m1I1NVuharOadfQEm7Di796F88/26wJMwcPNOn6+KnT53QLlqqqtejs6sbnLa1378dK7bs0b4h95PbIHfyXU2Hb+ZQW0V4MK6sNmWxCyWOB1FiwM9SInq97XZcJ9YqYfwZI2UVlZSXSspvJ5CJawm0I7WiQuo8H7iZ6VNV5dHYpyFTLAAAgAElEQVR1p21U0WKAig1EOqKYnMz+/JPpnCaGj2aLXIVfi5SuWI4bseG08YbykeTLu8opFIYgznviph5VzpGFOgL6e3k/hHbaXAL0efVEjMmdic2b1qOv/7prb5gHFfJofOWlp6Gqc/jgw080oZm8ty60XsH/+B//H/x+Hw4179VV2/OCqs7pQlvpXOJmR0ApwrJly/Dn6F+wM9SoPSNZolrRQ3B15SrUbt+qRU04hZK5toTb0uxhbe69O47GR8fR259Z8l0ZqiFM2y1OwkDd4iTvE2ONaxGGXrD7IcAQtGgjscLLItEqRs2J8Uwve+32rbZu0TIXYNlOntsOTYkiX3vzfe15GOPUCWPcsjGmkGLeq9atQV//dUQ6oqiqWovZhJpRHg43eMnT4zQnjBOc5rSQQQsSsbxnLihdkXKJlSVWzQSrhbNsN3t2VrWtnOUlDpQMUqeYCQNkwIpk8nyzgdn5aWdGJF/9iVhYSJq2i8qnKkohKoMrTRPiykqtyp5nrq7Nbd8xw81zyheUE+1yewSVwZVpyXqN4zstiFR1XrdDbcwR89qb7+OJQ/vTSpYD0IUSGXeFgXsJkimJMY1FxraI+QasBJiWcBtKVyyXlu8WMauaQxtEZhsyucJrToJMiMWGURxQtLFZjPWnnAoiilKoLaDuR/JBO/K94eMEMfGlETMPZC8bdjQeGscbmmedlKZfKogiqPguDAwOaR4L+cJMDDJLLi9CxQ/E4gnE7l0hHD9xRpoWwQx6lrXbah6YHXvytiSPxmBFuWlI23/4D/9L1kQpmfc9haQaw1ulOUCX6b1VxDGPBBNjYY0HgYmJaUcJvPOFVd6n/BRzefDeKRmuRBiaKM0SM4rIskZnA3F3ff3Df43bI3ccl46TtdFNsrNIR1Tz1KAXe2BwyFU4kpMcMm6SMB5q3pvmFm+XFwdIGdUUy6uvoZ6qsvKni+1IqHM6Q8+OSEcUnV3d91WgywSqMCQrCW0sUW1EXJDQQoIQs6lniljd6OwXrTqDj8pJe5kMycNGXBiT4NPzda9Wyo4WOrmirKxEKgiYtzsVvvBlpFOXo4UqZIgCKFUG+jLSibKyEt3ETDvFdM5slBI0Quc3VhCi6nIi+epPIsb7Qu06cni/NrZRBSNjUlcaG8XvAvLnmatrc9t3zHDznLKNqs7pcjCJcwt5uHRfvWa5gDB6FNZUb9SFnop5nn7W8BOd23cyuYiG+jqMxMe0kuMN9XW63AgyzLwYxPnaaoFKtoXTueblo0/h7Bet2nwTUIpw9otWaZ4ZYzuy7X0nlvsk7ARo0TPX7S4iiYHkaSSGVojhSITPV4AD+3YhoBTpyhgvJZLJRSwkk6isXOk6jwuQnTBTI9GubiwsJKVicTb7EIXZi+OvWEEuV8/KWNY6G5DneUu4DU8+kwqJpDL3Rw7vz6tduGXzBpSVleDVN45pG7XiPGXWFjHERdafKBz5/IV2KEqR7jiy6olkM+WyeImxBG82iHZ1a2KV2XoimUxmVTwVK84Z10rk8SLOX7Ozqmb3iULuS/+HeRhiQp3D4cf3Sc+fDw9zr0xOzaBq3RpETUJGRWS2a7bH/Zvf3sLtkTsoLlbSNoSzGT1yP94p0YbK9XzpXoRRU8ktzeLiaLALKEUoDiha2FAmk6MoMvj9Pl3WbEBvVLp5+MGKcrz95os4fuJMWhlGETGUx23mZSNWCdK8uHbJ8hLQwGVlKFi5pgUryvHo/ibNJd3p9U5OzTgS6JYyh5r3onrLBnx29qI20DmNX5b9Fsj+S7x503q8/95rOH7ijGm+BreIhiCVrzvUvFdb+JEwWFys4B+ebcbnd915s40ohNGOmp2xSx5h4u7kzlAjaqo36jwjxJJ04uQuEzetqiMZkSXJlOHzFeC5Zx7DqdPndElpjxzej9IVy9Mm1nz1JyB1Dw4eaMKl9oh2b2RjLbmdt4TbdGKxWRlDs+eZi2vz0ndkuH1OZjgtgykKBJ9LKhYB+j5YVlpi6dVg5lEoGrVm94YqWpBb9cmPw1qZSqPhSouVnzX8BH+O/kUnnonJgMmV/VJ7xDTEaHJqxrHXJd2bl44+qZv/qI2yih3dV6/hlZeeBgB83nLRtoy6U8Qd/nx5wdAGSu32rVpohSjAmEHPmxbeZlU1ZCKHk4TbmRAfHYPf50OwYqWpF5Sb8L5Moef697sfwZeRTjz5zGuaIJkLxGdD5DpUd2JiOs1zMVscat6reYxMTKZCOK08H90WGnCSvL20dDlKS5eniUJWoYpiUnOr8WHzpvWYmJiWVphLJhfTks7n+lnSXJOtPFh0H8RQHxHqM7Gbt7CQTGbNW1705Pf5CtLWSjSHra5chV+/8QJufnsLn529iLKyEgQrVpq2xYnoTQKQnWeF2QZdLr34VHUeE5PTaKivQ7Ci3LQv5SN8ktpzqT2i5f959Y1j2to7F+TznaIS6++/9xrio2NpOWizjSsRxk0GYaqk0BJu8yTEGMtfH/vdq6YvhtgucrEm49fuQTm5JrsShE7DkZx4wQDmnjB0rFWr/jO+/fa/AYDlvREnHiNkUIhVC0QX0mhXaufTqbFDKrTXJL5e88EA+pwwxsHH6vma7VZaCWV2O5x2VQjM8kiYtdOs7znpt1al5WRtkF2b2XmMn2Vz0JctIu2O7yaUze4Z2vUhWUUQmSIva4/Z89y8ab3rvihrm915zNqVOlaR4/Hdzf02+67XawPMn6GXkMZsPCfCOMavrlxlW0KS8nmYCfA0NopzGZ3HzgNAFHjMhDIzqEINkJrjeq5e085vrMCUuCuykHFu3JVNJpcjoBRZzm1mBr8VNJZRe8Q25hrRk8BtuzOpxtDXf10LfRKTLVLOAppHi4sVnXcOkOprCXUOIyNjpv3STggVK2GRx41sEW1cKMu+s7pylebWbswhlE2MVf5k94YweojU/7RW+4zab1b4AJCL+k6ed6ZlXN0yOTWTk/AGmdhL9//JZ16Tbha5WVBRmJEbRFFI9OwVoXfH6UYAbf6IFebuV5UVs3AdJxi9BCenZqS5oUTIA/mfLn+FmuqNrsc/2riiZLf0WezmLTQ21En7JHk/iO3avGk9XnnpaU2IX125Km0T2MxLSLYesxoXCLvNTlWdS6u85KRynew7tHbsuXoNfp8vpxvcxjWYWUSFeD+bdu3QfSa23+p6Ze+7uV16/yoX5QPPJaqdcqh5L1rCbVoZKafYCR9mGBeY8dFxvPird7WdMjPV3+hR4sR4JpyGI2W7TKAdThYkbhdqZp9nWpLQy+IJyG5OGIZxgtexifn+k80xnozEmuqNacek8wwMDunc7Y0C4c5Qo+v2kFEuekKJ3qCTUzNpixWa52nDxWg05fqdCe1oQO32rVKv1mBFOeq2b9V20ryIPUbIs8dsoWJMSl5TvTFrO2nitRk9Wp3MoxSuZUzyaGbsGvuUWNGLyKQ60vTM/4uFZNJ28eMU2XU4NeTjo+P4p8tfpXkA5tt2yzVOd/3NfkuClt+fCl8XF7Sy8YruP/WlD098mrNdczOoDZGOqE44AVJ9kXa/3bynFOJ0v/MtmVWjc4JM/LNKOG/1OyuMi3y/36fbuLKbI8w2D+0S5Ju9+17eabuKfIQxJ1Im1ZEW//3fLcUpL8iuw8ncQZ6Xxnxs3yehhJJv04aRMcQ+2yz77rvvvsvZ0ZkfDJwlm2EeTFrCbZblJ5kfDnZ9wSzZpfh7IPfu0AzDeIcWeE8cym+eFib7ZLtsOsMw+YNFGIZhmB8wLMIwDMMwDMMwTP5gEYZhGIb53iFLWi6SzQz+DMMwDMMwDOMUFmEYhmEYhmEYhmEYhmHywI/udwMYhmEYhmEYhmEYhmF+CLAIwzAMwzAMwzAMwzAMkwdYhGEYhmEYhmEYhmEYhskDD6wIk0wu4sMTnyLSEb3fTWEYhmEYhmEYhmEYhrHlgRVh3KKq83j9rQ8wMDhk+p1IRxQfnvgUyeSip2O/+Kt3ER8dz7SpeceLoNUSbsuJAObkOWXy/aXAwODQkuorkY4oWsJtnn7bEm7z9M48SND78fpbH0BV5/N2XrvxKNIRzWub4qPjePFX76a9a2afL1Vawm15f/8GBoekz8rL+JVMLuLjT/4xJ+0X54JMxtaWcJvnMWWp9aeBwSHPY1y+39Fscr/GPYZhGIb5IfBXXn5kLP3p9/vw/LPNCFaUZ7VxDwqXr0QwO6sCAKJd3TjUvNf2N5GOKL6MdDo+x5HD+7F503oA9qVX7SguVvDy0aegKIUAAJ+vAI0NdTh/oR1VVWtNn6N43p2hRoR2NHg6vxXx0THt3y/+6l3pNebq3CJun4+IXenbdQ+tQVlpCS63RxyXyG0Jt6G37xvHbRD7ix2VlSvR83UvPjzxqauSvao6j5H4GGq31bgu8+u2D9vd04HBIZy/0G46DhnPZ3wHrIh2deP2yB0AQM/Vaznve05pqK9D7OYtXL4SMR1z3PYbQtZ/YrFh+P0+BCtWOvrcivjoOD5vuYgnDu13NW+o6jyOnzijjbciTsaFgcEh7X44HauXGmJ/tLofIm7GA0JRCnH48X04+XEYff3X83avghXleLhqLS61RxCsWOnoHXU7XruZQxSlCADwm/c+cjxmACkRI3bzFiqDzq5BxOlzJWTj2cDgED47ezHtu07ttaU67jEMwzDM9wHXIkx8dByRjiiO/e5VbUHUEm7DBx9+4snQM8OpEXJ75I6l8ZXNNsloCbfhRmwYr7z0NADg5MdhRDqijgwWu4UlcO8+iAQryvHHP7xt2SYAlkYz7XKRkUV88OEn2r+PHN6PiYlp7f6urlyle+65YGJiGgGlCOseWoM//uFtz4u1bGD2fFrCbUgk5iyfndPF7wtH3zH9m3GhUFO90XYhJOsvgDPRY3ZWNW3PL/7u5/jnf/lX6e+/jHQ6WgDJxD8ni4FIRxSxm7ekfxMXGn6/T/oduvbG+jqEdjQgmVzEqdPncPzEGdtFVXx0HJ1d3dgZagQAdHZ1WwqVucSqT4mfG++zk3GGoHtlRFxQAsDrb32QNja/+saxtN+ZnTugFOF/K1uBs1+0ulrYEk7eBSOqOo9L7RHUVG9E9ZYN+OzsRVRv2ZDT+cGOhDrnSkyn/njwQJPWB3//21dy1TwEK8px7HevoiXchvjoOAJKkem87EbYdCqayPoUYewDTvo5vftGnNobZu1pbKhD/8CQ6e+dzAUyccSJ/TIwOIRL7RHTv3uxgZbSuMcwDMMw30dcizDBinI8+/QvdZ811NfhRmwYff3Xs2bQKkqhpXFJxlTVujWed2jMFjXiQtTKsCQBRjScDh5owmdnL6KsrMT2XtweuWO5CM8lPl8BnnvmMbSE2xDa0aAzrlrCbdriZGJi2tUiLhNooVe1bo12LlWdw7JlyxC4uxsJ6HfRxc/zAXl/7GkKWd6PQ817dQuEgcEh091kq79lE5noQYuPPU0h2/7687/9m7Tf1W6r8fz+JZOLOtHPitWVq9J+e+r0OQQCRfj09DHtXZSd43J7BGWlJWiorwOQug+7m0I4+XHY0otEVedx9otW7bc+XwEmp2ZceTB5wTguvXD0He0dPLBvFy60XsHuXSHdmET3o7GhLieiwuTUDGYTKnY3hXRjM4k2Bw80uTqvohTi2ad/iZZwG85+0er4fpJoUbpiuav2J5OLOPtFKwBo925nqNGVt8X9xuu9FqF+YhTfjcg2N4Zu/Bt2hhq1Z0+Lfy8iWmhHg27coM2dQ8170/qB1d+yjVGwcGNn7N4VSvtdIFCU0bgu82SRUVyspH02MTENv9+nefI45X6NewzDMAzzQ8JTOJKRgFJkugt9vzF6AJBRQ7toooFEO+5Od9MmJqfTFrWbN63HKy89jZMfhzExMW1puHn1hBHbYGVMywQm0bvC5ytAsKJctxs9MDiUCjHZXmN63FxBC72qqrXaZ3391z25c2cTmReJmXFs5uauKEW4ERtGS7hN1+dod76stASqOp/36+y5eg0AXIWSiL+r3b7V87kz8YTx+Qrw0tEnbc8xOTWDiclpNN5dTBClK5ajrLQEI/Ex6X2n9y6gFOne0QP7duHU6XO40HolZ6IZjUuy8SiZXITPV5AmXES7upFQ53K2QIrFhlEcUNLEj1hsGGWlJVj30BpPx929K4TjJ87g5re3cuaRQmNlQp3TCQahHQ2YnJpxJQK5xejx8eobx+D3+7Az1IgvI51p8xJh9IoQvbk2b1qv5ePyKoBaheO0hNtQumK562PLvFtkc5DMMyOgFGFichqnTp9L6++X2yNYSCahqnNY4VJ8y5Sb397CxOQ0djeF7L+chd8ZyYYnjBvu57jHMAzDMD8ksiLCeN2dzAcUuuNmx98KMobLSktMQ3OCFeV4+80XcfzEGUtRJxueMDJjWhaOZOaGTXkl4qNjUJQinL/QjoMHmjwvqjIh2tWtS35IXiezs6pmzK+uXIVHQvaLA/ImyFY4mp1gYHZ/CcpzYFz0X74SQUApyssuL5DyLHr9rVZHoSSEsY+p6jx6vu5F7bYaxEfHHO3W5subykjsrneMKOwBqecZCKQWfgl1TifCmC1E6HfPPfMYTp0+lyao5QOfrwC7d4XQEm7D5NQMghXlGBgcQmdXd87yctHzDihFUNU5nDx9Lq3/WI1jTkKHcuWRYibAEIea96Il3Ja2+M8W5PEh8xqp/2mtNNyS8huJ13C5PaJ5wNDzoNCwXDA5NeP6N3StZl4gdK0yzwxFKUTtthp0dnVr/Rq4Jy568bbxwsKCfZiuEWP/TiYX0RntxsN3xxyz3GYibkK5csVSHvcYhmEY5vtGxiKM0XU129jlspC5TXvJF+AEWtg7SepHLvst4Ta8cPSdNDHA6I6db4y7lqLRSYvq1ZWrcmroi5DgIkJJet9/7zUoSqEmLvl8+fe6cho6U7XunnhllvdAJniIi1izxIm9fd94SrIqoihFWjiBk9w2Mi5fSe261m7fCkUpxKen5QKO6K3V2FCXdo5MwpGcYrWYLF2xHL1930BV5wDcWwB/dvaibgyhxUllcKUmltGC5PW3PsjL4knWl4Zu/Jvu/+K9zGby6p6r1+ArSD07sf9kI19TfHRME3ScJP9U7wr+ZWUlDo59TzD/9RsvwOcr0Iml1O9JiHntzfeXZIJ5o9dXz9VrCChFOLBvV17O7zX0125TxixxrGxMMI6ZMnHdzaaGOE6L+P337nWkI4qer3tdv9/Rrm7NC8ZJ/rbevm9Qu61Geo5MwpEmp2bg9/schewu1XGPYRiGYb6veBJhjMZTLpPfkhFjV/1EbJcTjxyrJJdGQy4QKEJR4f+KH//4x3jnrRdx8vQ5x5UYVleu0n7zf//l/8Honf/uuaoRcG+BTtdolRRVdn1kfBpFILP4/khH1NS4zWZVrJ6r1zA7q+rC2sRQpGRyEYnEnKnxbMQYapYpXj1hjB4gYr6d+Og4/nSxHc8/06zdc1rYysgkMa+R+Og4bsSGcfBAk65tgHVCZ6ouU1O90dIAJ9GguFjRRDQj2UjM6wSnCxE33lO0MI50RPHqG8dyngDc+L5my7PPDlWdx+TUjObFJRKLDafla3JLX/91rK5chdrtW/FVR6cm7Nkhzj+ycYj6n1Mx6lDzXgwMDuGDDz/JafW1+OgYvox0au+8qs65Kn0cHx1H99VreOLQfiSTi/jNex85rqBz5PB+zcNRNm/Q+FK6YjliN29poW9uQ2uSyUUk1DlH3zV6gIhhVqo6j5Onw3h0/70kxFbjWyaJeY2I3n5i2+zClSmhbVlpiaUdQraK3+/DKy89bToGZhqONDur6gQs2T1ayuMewzAMw3xf8STCbN60Xtv9JqPms7MXczohU1lfs7Ki5AK8unKVI4+cTBbpxoTBTnYKjb+RLXhlQojZsclwNy4YrL7vxPiUIRpuThbqblHVefQNXMff734Ef47+BUDKmL09cgdPHNoP4J5h72QHPFsEAkVZDU9oCbfp8u0ElCI01v/EkTHr9H7bJbQG9Mlq3YSdUf4aO2gBbCUaUdUVJ+Taa+x//s//iQ9PfAoA+OjEO66eeWhHA2q3b8XxE2dylly5JdyG2u01uv7hNZePWy5fiZguJienZhBQvL8jYonzqnVr8FVHp603jDj3APfGNbE6H71nZuKf1bE/OvEOTp0+5yg3mFPio+M4f6EdCwtJdEa78fLRpxDt6kZnVzfqtm+VioSyz8jrlIQvq3fdzMuN5g1xvDHODWVlJZroKYbWuBXb3Y7VkY4oOru6safpEe2zPXcTaFNlMzOcjhFOc0mJ3n5O0fLX2GyykABjJRo5GceJzZvWS+cOo41DnmFUatvnK9Ce+1Ic9xiGYRjm+0zG4Uiii2ouK02IFU0GBofSjI5oVzduj9zBkcP7LY0J2kG1WvTma5fZLLxEFq7i1APEKWYlOcVzHzm8P6vnNCOhzqFu+1YEhdCnaFdKUIt2dQMAqrdsAJBadDrdZc0EYxiLl3Ak8bdk7FJYBJAytLdvq0Zp6XKc/DiMvv7raQKiVSlX6sNm3zHzVKJktQsLSamHk7FP7gw1oqG+Dme/aEVAKUJZaYlt2+g44rH8fh+qt2xAd8810984wa3Yu7CQTMv7IrbpP/2n/+hoYWaGmwWTU8R7K6vYQuWicxkOQAv22u1bNdFH/FsiMWcbAmLlVSImd6acID1f9zr2hgFS88Lhx/fh+Ikz2vyTyYLQ6SLdKSSG7Gl6BF91dOLw4/vg8xUgtKMBZWUl2mLcyQL48pUIZmdVaeiJU6y8VESxLXHXQ6fn6jUk1Dkcfnyf43PER8ewsJBMy/1i5fVDwtnbb76oPXtFKYSiFOryqz26Xx+CZRbSBNzre1bfkY0lYi4yu9BR4J4H0YXWK6m5rHYrJidn0D8whPMXLkvPC8jDp37W+BP8ufMvpr9xgtk7F6wo16o3UlW4pTbuMQzDMMwPhawk5vX5ClC1bg067ybRy9XCIFhRjsb6ujSxZ2BwSHM9NxpU+QydcovRU8DKE8YMs3AkWa4c4J5IYDSgzMKR+vqvZ90jxEiwohzBinLER8cBpIz1ROKe4X/8xBldCEw+RBgjxtAZo2u61XO60HoFgUBqQWK2YK2r3YrYzVsI9F9P+5txx1Tmkm/8jiysiXbXFaVQmqfAystpYHAIQCqPxoXWKwDMd5/t3Patclk4rVDmlNIVy6Wlq5cqoifbzlAjYjdvYd1Da0zDJ81CKrMxzlG+FLO/WS3gqGS4MSEyIQv3qN2+FT1f9zrKDSOiKIWoDK7EjdhwTucfL9D9o/dHZN1Da7C6cpW2GLd6ZiRS/P3uR9B5V5j2is9XYFm2mLyrol3d6L56DQcPNLm6p339103DcWQePl91dCKRmEP15g2mCcLXP/zXKU8iybUbQ5pkY7HxO7IxlO6LmbhgNTbFR8cxMTmNl48+hZ6r1zA5OYMtm9dj+7bqtOPYlfZu+sUO6T1w8ls7ghUrUVysIJGY08LNGIZhGIbJP1kRYfIJGefHT5zBy0ef0qqz1FRvlBru5L5uNLrsdvEBfYJaMrysfmcmfJjtTGXiCUPCFwDpAt3oxSMzTMk9+eCBJu2z/oHrGImP4VDzXtd5WLKFohTpFniHH9+Hkx+HNW+YXGO87mBFOV751dM4+0UrDj++L834pTwGZotSSmrYEm6TVtI4dfocAncTnsZHx9Hbn1nyXRluc08YMXN5z4RMFxROKCsrwcJCUpd8F7jnTWKXuyHfiOIG9SvgXmiB+M6KzyMf99IpkY6olmPCLIRFFu6hKIXY0xTCpfaIK2+YBxXySDtyeD8UpQgnPw5jYmJa67MJdQ49V6/h+tC3+NGPfqTNd5lAArYohBi9Y3y+AgSUIvw5+hfUVG/U+pksUa3oLVJcrGBPUwg3YsNpJeGteGRHIxSlEJGOqGnOEgB49ulfQlXnM8oPZQZVePRKsKIcv37jhSy2KDuJrxmGYRiGWZpkRYShBY3TBJiZQoIGGX9eqiFZxZBbhSPJfueleoQsJ43bhVRoRwMmp2Z0VT2ocoYx14dx59qYF+TmtynDtmrdGvT1X0ekI4qqqrWYTaimu9n5Ino30WG+ymZPTs2kXfflKxHcHrmD+OhYWp8IBBRcav8Kk1MzSzY2fmJiOqP8HdmGck3IQmqymQiadn77+q/rnhstgN0sFu83YiU68V2gXD1mFVZygZUYZOaVKH6HRBpjezdvWo++/utauIQTKHxkqQlqdkS7uuH3+zSvTvJOi4+O6/rkj3/846x5hsViw/D7fLpjJUwqThUXK9i9S5+M1+/z4Z3f/p+mOclawm05q5SYS1R1LuMk09km2tWN4oCS1qfNwqQAew84qkZWu63mgRn3GIZhGOb7iCsRhsSGxoY63UR/ofWKlo9FrPJirPySDURPlPUP/zVuj9zBjdgw4qPjrneLaCFhl/Qvm1jFpxNmBpZsESrujtNOnl1eHAC4+e0tJNQ5LUEf4fP5sLsphD9dbEdCnZMagUbE8zupUOEGccFGxxSTuqrqvPR3bio+GInFhnXXTaEVZlUsxLwuLeG2JSnETE7NoGrdGkS7um09wGTeWdkO47v57S3cHrmD4mIFqjqvGyOy2YfIu4KqpoV2NOgEyFwtFo3lXbMBhUkMDA5pIlUgUIRkchEPV63Na8n7gFKEV371FE7ezQX28tGnkFDncP5Cu6lXInAvSa2VSLN7VwjHT5xBpCOadpyWcJv2HIHUnHT2i1YsLCS1fCvZRlbWOlOshCiRyamZrIWD0mZJ1bo1mJya0c0Z5PEilpUHoBPDJqdmUFq6HG+98Q/S49M4+fyzzdL2TkxMZ3wNuWJiYhqVwZWaZ60VMoE42xW1qHodkLrv4rxjDK2SIassRe+e0+IFbhFDJpdS2DfDMAzDLEVciTBiEl7RUFlduSotu35AKUJxQNHChjIRYsRFvqyko5hk1s0CLlhRrlxiw0EAACAASURBVCX9y5cXg7G6h4iXkAKjAAPcC6OyMgytwkuCFeV4dH+TttNtV/LzcnsEjfV1aKivw6nT5xDt6s6KQUo7/FYLtmxDuSr2NIW08DNaWFiJfMGKcjz/bLOtEGMWgpbLkC9VncfE5DQa6usQrCg3fTa5qHxl1p5L7RH8rOEnGImP4dU3jmnvbS7YvGk9jhzej8/OXtQEKC/ec24g74JchNDRGCIuekbiY2liFmGXPNcLqfPcE4VIOF5duco05w+NVXaCkaIUaiGIZWUlae++MQ/W6spVOPa7V3O2s0/hOtnyHiAhXgz1ESldsRzFAQX9/deRSMyhsSE7C2YS3inUy5gXip6P3+/D+++9hoQ6h5MfhxHpiKKhvs60LSTcTExOm46TTpNJm/XVmuqNHq7YGdQ22lwym5+zna/Kqj2X2yN4+K4n5gcffqIJL26PY0wmn6vy6wODQ1pFsvjoWE6LNDAMwzDM9wHX4UhOq0coSiGeffqXaAm3eRJixB05OyNbTKQXHx3Ha2++r4kSdkaH0wz/MrHDiFlOGCC1e7Xjf6/XkppaYeYJA6S8YVat+s/49tv/BsB6AdISbsOTz7wmPQ5VvBF3PXeGGrVnFO1KlSW9X7tZoieBF6PRawny+OiYFs5FpbNpYSFL8ized6o+0XO119RDx27xL3OLd7KIln3H7/cBSFWh8ft8OQ3VMCaONfPGEp9r064dus/E9rutuGP3rK0WV7lAvZtjwyoBqrfj6gVnEr9bwm149Y1j0l1yN8I0jXNuMIpCN7+9ZZog3an4JVZyEZ+31/c6E8zCdZwgjhkkJJCwbDau+XwFaGyo0yonuQ3DpJxWRvr6r5uGrFGom+gVKlYm+jLSieJiJa0kuuglJM5DsvnS7095WVph11cT6hy+++473XtlFp4jCttWITwkTuWy3Lsxl5w414qI9/PAvl3w+QpwYN8unDp9Ttd+KxuB3jGuXMQwDMMwS5ecJ+Y91LwXLeE2VzH+gPdSocGKct0OX3x0HC/+6l0sLCSlRqT4PdFoNBq/xuN6pa52q/2XsoSTBYtVMlknn4ulw7+MdGbN1fnylYhpKIfxWVk9V7eIHkI+X4Eu2aKThbyVh5HZPbUz0DOpjrT47/+u7fJma/dWdh1O+hqFjtRuq9EtQL+PpU6tKsTYIQpaO0ONSCYX8Zv3PtLKE8sEbbr/kY4o3v3dH13nzskGh5r3oqG+TkswS8+YwiDchihs3rQer7z0NE5+HL6v+ZZisWEtd4tbZGOGk77uVjSUJYw3CqFW98/sHbR7N83maS/zpVmeNqP4XVO90TI8x211JCtxyguy67DKQSdClfTEZ5Xtsum5gHI5kThkF2bHMAzDMD90ln333Xff3e9GMAzDfF/wkqibWbrkK0yPYRiGYRiG+WHAIgzDMAzDMAzDMAzDMEwe+NH9bgDDMAzDMAzDMAzDMMwPARZhGIZhGIZhGIZhGIZh8gCLMAzDMAzDMAzDMAzDMHmARRiGYRiGYRiGYRiGYZg8wCIMwzAMwzAMwzAMwzBMHmARhmEYhmEYhmEYhmEYJg/8YEWY+Og4fvPeR1DV+bS/qeo8Xn/rAwwMDt2HlmVOpCOKlnCbp9+2hNvw4YlPkUwuuv6d8X4NDA7hxV+9i/jouKe2MAzDMAzDMAzDMMz3ib/K9ADJ5CJOnT6H2yN3cOTwfmzetD4b7dIdNxNqqjdi964Qjp84gz1NIV37Eok59Fy9htCOBkfHUtV5nDwdxqP7mxCsKNc+j4+O4+THYSwsJNN+s7pyFZ575jH4fAUZX1dN9UYcat5r+73KypXo+boXH574VHduO1R1HiPxMdRuq3H8GyB1TZXBlfjs7MWM+8DA4BA+O3tR+7/x/jEMwzAMwzAMwzDMg0rGIky0qztjoUSGz1eAl44+6eo3JHAEAkU6sULm7RKsKMfBA004f6EdVVVrdaKKGao6B7/Phw8+/CRNbAgEivD2my9CUQq1zyIdUcRu3pIea2eoURN/6HskNqjqfJpoZPRssRJ+iNlZFS8cfUf6t1/83c/xz//yr9LffxnpxJeRTtPjEsXFCl4++hQUpRD1P61FIFCUkRBDAgz9nu7DqdPnWIhhGIZhGIZhGIZhHngyEmFUdR49X/dmqy15Z/Om9ejrv47L7RFHi/yKinK8dPRJRDqi6Ix2Y91Da+6KJnOuw3dkQodRMBE9QoCUJ4yIz1eA559t1glIMgHHjJ//7d+k/a52W41jzyAjmzetx85QIyYmpl2LMKo6j0vtEdRUb9R+qyiF2NMUwmdnLyLa1e25XQzDMAzDMAzDMAyzFMhIhLl8JQIAqKvdiu6ea1lpUL7ZvSuEk6fDmJyaceQNAwChHQ2aIJBMLqIz2o3K4EqdF4wZVh4+A4NDuNQe0bxLvNBzNfUcghUrPf2udvtWT+clRKFkYmIafr8PAaXI9nfx0THMzqrY0xTSfR6sWIniYgWxm7fQUF/H3jAMwzAMwzAMwzDMA4tnEWZgcAi9fd/gyOH9mJiYzmabdNjlUMk0Z4iiFOLXb7zg6bfkPbKwkMRug3gAAFVVa9HZ1a15uDQ21KF/YAizs6rlcV9945jp3+h677VhDq+/1Zp2TKtjiKFQdB09X/eidlsN4qNjaR44Vu2YnJqxDYuyagvluenrv47iYiVNPPL5ChBQipC4623EIgzDMAzDMAzDMAzzoOJJhDGGjuRShCGMwgFgnXMlExLqHL777jsoggdHS7gNvX3fALgnQJAnkDEXDBGsKMcf//C27rPdu9LFGsKLJ4yiFOH3v31Fa2MiMedalKLrqN2+FYpSiE9Py0UTURBrbEh5pciukWgJt2EkPia9HhKw6LiJxJz0GD5fAQKBIkxMTiOhznn2EGIYhmEYhmEYhmGY+40nEYYW7VaCwoOMqs5h2bJlujCaQ817cah5r074cVKpyAxR1DEi8xyxq4wUHx3HjdgwDh5o0gQYSuZr9TvyaKqp3mgpcEQ6ovgy0oniYgXvv/earRhCwopdmFbpiuXavwNKEXu6MAzDMAzDMAzDMN9bXIswkY6oFob0ffVKmJiYdiQIOC03bSagOC05bayMJGvH5fYIykpLsO6hNbbHI8ijyQ4SYJy2FwAmp2YwMTmNxoY6RDqiAMCJdRmGYRiGYRiGYZgfNK5EmIHBIXwZ6cTOUKOnEsQPAsnkImI3b6Fq3RpbEcbnK8Dhx/eZViOiMtKit4dIb983pt4wRoyVkURI8FhYSEpLUhvPsTPUiIb6Opz9ohUBpQhlpSUA7oktZhjb6/f70qozEbHYMPx+H4IVK7GwsIhL7V9hcmpGE3ES6lxaHhmrvC9OE/wyDMMwDMMwDMMwzFLFsQhDVYAAeXll4F5J5SOH9z8QIs3A4BAmJqZ1HhqTUzOYTaioqlrr6BiKUojabTW41B5BsEIfehPt6kZZaQka6uukv83UE4aECUUplOZlsQpHGhgcAgA898xjuNB6BYC+6pMIhWA5zTVDiX4pFGn7tmqUli7HyY/DaAm36dpTVlai5X1JqPK8MAzDMAzDMAzDMAzzfcCxCGNVWpk8KHIpvpgJP6srV3k6nigsiES7upFIzCHa1e049KZ2+1b0fN2Ly1ci2m8iHVHciA3j+WebTYWLTDxh1LteI17ZvGl9zp6VLGdQsKIczz/bjD9dbIeqzkM1eMKUrliOG7HhtOS7qjqPkfiY4xLgDMMwDMMwDMMwDLNU8VyiOt/IqiN5gfK4VK1bkyYqDQwO4UZsGD9r+An+HP2LbaWhC61XULt9K4IV5Tj8+D7N06N0xXJNlJKF6hCZeMI4zVuTbyjR785QY5poEqwo15UD9/t9WgUqKucdiw3r7ll8dAyzsyr2SEqAMwzDMAzDMAzDMMyDRM5EmPjoOP50sR3PP9OckQeDlQeOW0ZGxvBPl7/CE4fSxZGBwSF8dvai5s1TWbkSn529iFOnz6UJMbdH7mi5Vx6uWgugHMGKchw80ITPzl6E3+/DKy89bSnAAJl5wkxOzaBq3RpEu7ot87jQeYzkwmspPjqO8xfaUVO90VYwM5Y1D1aUo7G+Dl9GOlFWVoLNm9anlUJnGIZhGIZhGIZhmAeZnIkwAaUIxQEFx0+cwctHn7qvoSSUBHYkPoa333wxzXuEykWLwsTmTetx5PB+nRADQCtPvbpylU6coWOUlaWS3H7w4Se2ni5ePWFUdR4Tk9NoqK9DsKLcVPBwUqI6W1AS4rLSEhzYt8vyu5Qzpqy0RJe0mK6DcgsB2fOAYhiGYRiGYRiGYZj7TVZEGFlCV0UpxLNP/xIt4ba8CTFUJahqnb5Mc7SrGw9XrU0TI0g48Pt9eP+919LaR0IMJSQmSKyh3y8sJFFcrOiOQX978pnXNMHm5re3dAIDIPdSMaO37xv4/T5Ub9kAv89nWnUpG5CoRBw5vN809Im8iMxEJVnVpeJiBYcf35d2TLPkwAzDMAzDMAzDMAzzoLPsu++++y7XJ8mVR4aqzuP4iTOYnVW1z4qLFUeCT6bJhEmksPPUoBw0t0fuZMWrg47X2FBn2+58eMIYw7gYhmEYhmEYhmEYhpGTFxGGYRiGYRiGYRiGYRjmh86P7ncDGIZhGIZhGIZhGIZhfgiwCMMwDMMwDMMwDMMwDJMHWIRhGIZhGIZhGIZhGIbJAyzCMAzDMAzDMAzDMAzD5AEWYRiGYRiGYRiGYRiGYfIAizAMwzAMwzAMwzAMwzB5gEUYhmEYhmEYhmEYhmGYPPDAiDADg0N4/a0PoKrzWTtmMrmID098ikhHNONjtYTb8OGJT5FMLmahZfeQtTGZXMTHn/wj4qPjpr9T1Xm8/tYHGBgc8nRe+r2Te+PkPsZHx/Ham+8jPjqOSEcULeE2x22JdERzcm+JTO9VPvDSV1vCbY6+7/Z5GM+Ry2fDMMyDT0u4LWfj68DgEF781buW8+GDQku4zfNYvBRw237j3BMfHcfHn/xjTuYTmkMzub/x0XG8+Kt3l4ytMDA45Hn+jXREs25TMwzDMM75K7c/SCYXcer0OdweuZP2t5rqjTjUvDcrDcukHcTOUCNCOxpsj9XzdS9qt2+FohRms4k5RVEKcfaLVrx89Kmctbt68wZ0dnWjqmotghXlpt+bnJrBQjKJ2u1bHR23snIler7uRUu4Tddf6Jk2NtRh86b1tseJdEQxOTWjHUNV53H8xBnMzqqmv/H7fXj+2WbEYsOI3byF5555zFGb3RIfHcfJj8NYWEh6+n1xsaJ7tj5fARob6nD+Qrvl8xDP67T/0/P48MSneO6Zx+DzFThqo6rOYyQ+htptNY5/w7gn0hHFl5FOHDm839F78aBC729AKbLthzRWJNS5nI6BDzI0FjxctdZ2Xs7W/ZQ9w2RyEZXBlfjs7EXNRmgJt6G37xvLY62uXOVoPFKUIpSVluBye8Ty+276FyB/71rCbRiJjy2JPkftcws9AyfzpRU0l4pzUUN9HU5+HMbA4JDpWCWe12gz+n0FmE2oeO3N9/H8s80A4GgedTo2Vm/ZgH+6/BWqt2zwNJYGK8rxcNVaXGqPIFix0lEfcPucnM7bQKrvA8Bv3vvIVZ9MJhcRu3kLlUFn18AwDMNkH9ciDOHUQMoVPl8BXjr6JIDUbsCl9ohuEnKy2+HzFWB3UwgnPw4jPjqWlwWOmfHpZoHl8xVg964QTp0+h7NftGb0HJwYwx98+In0cxIKYrFhTExM49U3jgFI9Y2EOic17sRjzc6q6O37RjM6VHUOgUARPjt7MU2EEKHFBQAcPNCEZHIRPl8BFKUQv//tK5qRt6cphM2b1qf9HwBisWFnN8gjwYpy/PEPb5v+nfqn1eKIdu6MQqN4D48c3o+JiWnNyFtduQrHfvdqWn9wIgrNzqp44eg70r/94u9+jn/+l3+V/v7LSKcjI9PqmWYDWkgGAkV5E4OZHyb0Ph080PS9FsbcQONsZXCl7v3z+QpQ/9NaBIMr8XnLRcRHx3Goea/lOxrpiCJ281base0EA7Pxq6Z6I3bvCrm8onRIQPI67zq9DrM5WRxDQzsaHC/WZdB8aQY9A7vrlNkQn529qP17Z6gRZWUl2mdW88CKFcvx6zdeQEu4DdGubhxq3ms5j9L9NLbbbj4S2yfi9/tQvWUDunuuWf4egGbvyDCKS07sZZq/jDjtM2btaWyoQ//AkOnv7ew/QC64MQzDMJnhyRMmoc6hMrgy5wKMbOEoLvRpUpuYmEZAKdLak0wuIpGYQ+mK5Y49EswmZeO5soE4QcuMCCf4fAU4/Pg+nDwdxuTUTEaTYyYeTKo6j76B63jlpact2xAfHcfnLRfxxKH9pt9bsWI5DjXvxe5dIRw/cQY9V6+lGZnJ5CIut0cc7e4+6Ph8BXjumcfQEm5DaEeD7r61hNu03byJiWlHfdTnK0gzpGQClRk//9u/Sftd7baajBYC2WRyagYTk9MIBIrud1MYD9gtCpcSsdiwZy+3fGEnBGeby1ciCChFOLBvl2l7jv3u1YzOkak3WDb6F3l73Pz2luu22PVxJ+L8UoPaavQuoVDY0I4GDAwOuRLhM73+TG02sQ9TCPWh5r3SzQ2zv2UbY98n0aZq3RrbOVgUIHmzgmEYZmng2RMmH4hGpMzbhZicmkEgUJQ2CZaVldgaolbHNcNOUHAzORKJxBxef+sD092K2yN38GWkU2fIKEohfv3GC1pOE9lvZeKSUwPFyU5Yz9VrKCstyeoOiZWhKnpALXWchMzJdqFEd2SfrwDBinJd6NnA4FAqDGh7TcZt7Lma2vELVqz09DunIWgMw3x/iY+O40ZsGAcPNOnmCi9zoVvycQ4RCknpjHZj3UNrHvhQTDtvWJl3kXHjpnrLBpy/0A5FKUKwohzx0XF0X72GnaGfOW6HF1vMLV7OEVCKMDE5jVOnz+lsIdoQWkgmoapzWLFieU7abMbNb29hYnIau5vceXh5/R3DMAyTXZa0COOE+Og4bo/cwROH9mufTU7NYDahavGy2Sba1Y3igIJSm0nXTa6ZQKBIKjw4MTBlooUTz5NMSSYXER8dl7bLzCXYGNpEbuKZuJoDKeFicmpGZ0waBSj6/+rKVagMuhMdMkEW4y3b8TRzR26or0Ps5i3ER8egKEU4f6EdBw80Yd1Da1y3RVXn8PpbrWn32sq12th+VZ1P9e1tNYiPjll6kREy4c9o/Mt2SlvCbbgRG07z4BHzXRzYt0sndvX2fYPevm8c7byaHV/2uSxvhrGfG922xTwUtdu34vyFywCQlmdCvA9WnmnG75rlD7C7t1Y5QAYGh/DZ2Yu6YxsFRdm9lYmObvIbmOXsMB7X7/fhiUP7HB3TK2bXm1DndJ6V1PeNz8yuX4jfOXhgN3quXsPtkTu698Toxek2JMAsJ0wu7mcsNoyy0hJPY1K+sMoJY3xeO0ONlsci0cGLFyq9X1aYiSK5ygslG3PMNmFkod6bN61HX/91xGLDCChFOPtFK+q2b8X2bdVZb2u+UZRC1G6rQWdXt+55R7u685qTamHBPjzZiPG5JpOL6Ix24+GqtQCAF3/1rq1HX67DiBmGYX6ouBZhEuocFhaStgJENpDt0NBisbhYwROP78PZL1qxunIVAkqRzhukpnpjTsQHJ8lIxVwzl69Esu7yKd4XswWbqs5h2bJlCGQoRN0euWMqfuwMNeLZp3+Z9pyOHE4JYsYFhVEUImPOzPMlPjqOP11sR2VwJSYnZxx57xxq3pt2LlnITTYqYuUa48JANL68CkqKck/sawm3IZGYc+22fflKBAA0gfHT03IBR1zsNTbUaecQF0MfnXhH+7wl3IZX3zjmeqFB3lFuEpES1Vs2oLfvG8RiwzrhZCQ+hoWFpO5zMRSTBBgA2vXT9coSZtOzE69XFELef+81KEqhdg3GpNUANGGEztcSbsOXkU6UlZVo9yvb91Y8ZmVwpXZuVZ1H9L92o+kXO0zPKy42vXooiOGadI/EflVcrHg6rpNzml3vH//wtmmyZNkzBVLv8gcffiIVpc5fuIwjh/frPPxkQlhLuA0nPw5nlJshF/eTknxWrbu/XiFmualIvDKbC2n+Ep+lXV6RYMVK+P0+qOocAHfPYvOm9aZjppNwpEyTvgPZy/EhE5TovtHzKC5W0Fhfl9F5ssnsrGq66UD2lJlQJhM8jMeSjbFWdpSRqnVyIdPvv+cFHOmIoufrXtfiSLSrW/OCcZK3rrfvG9Ruq2EBhmEYJgd49oQxGjy52KExJu8zGigt4TZdEkC7WGsrl1uzSdl4XU7DMMhl+UZsGPHRcZ2xQzv1RlR1HidPh/Ho/iZL44jui1Xy4YmJacv2OcVJ6JL4jOjfmZyfjMyy0hK8fPQpRLu6cSM2jNfefB8LC0nbvubEU0lMapjr8spWiWtl/YCMMGPiRTNX6khH1NTII2PbiCx8wMkCYGBwCL1936CmeqOlYUaLmOJiRbcYTSYXcfaLVgDA4cf36frVgX27kEjMuao8kSnBipUoLlYwOTWjfRYfTQkwgUARYjdvoaG+7q6QOIbZWRV77rpxGxfTVMHqs7MX0xJ9+/0+7G4K6a6XDOLnn23WrjVYUY7G+jp8GelMy7FQU71Rd86G+jrciA2jr/86Nm9a7+reulks91y9prtuICWckgAD3BPmxPNu3rQeNdUbHVVYM+PylQgWFpK6e0T5sGS5tJwk5bTzznFyvWZcaL2S9kyBVF+ZnJqR3oua6o2656yq87jUHkl73rt3hTASH7OtAmSF2/vpBMrF1Nhwfxfads9VVoqXxrOdoUbdM6DnZWYz+HwFqTCViem8J2Z2kuvHrcBuZpMA5uFIQLqgZOaBOzA4ZCl+0MZNPnDq2WH8npjjRmarWeX3yyQxrxHRE1Vsm13oeHx0HJ1d3SgrLbG0jUiA8vt9trn+GIZhGO+4FmFkBkBLuC1t1y5biJOLEQpjefKZ16S/NS7WZV4jZgtb2YRKO35OdwZokURZ/mXtMJ6nOKBkZGSL7ZydVfHu7/74wGS1J6GsuFjB22++qLvHy5Ytw8EDTTh/oV23Q2Xc0Yt0RLUwEqf3j7y7coXxvTALMXNqhMkQjTyZmBIfHded53J7xHX4AC0O7aCFsOx9owXbw1Vr094hn68AVevW4MtIZ96qlSlKISqDKzESH4OqzkNRCjExMY2y0hLUbt+KS+1faS7oExPTKC5WTPPniLunxsWZ0fAlQ/phiThRVlYiPUb1lg267wWUIvj9PiQSc0gmF13dWy9hI2YLThL0Guvr0s5bumI5evu+8eQxQB5JskUDLYIT6pzu80wrxoi4XWBbtReQe13R5yI9V69hYSGJBoP3gHjNVBHODV7up1NS1ekevITYff3X4ff7UHU3PEPEibevKN46wWm5YqsNI+N8IooDVue1+o5srDYT5Z1UnpQhihoy0WBgcMjTcfNBpCOKzq5u7Gl6RPtsz11v58b6Ost773RMcprvTvREdYqWv8bGzqE57H5XP2UYhvkhkJWcMLTLmsmOZyYYxRavFYfscJvQzMobRoaiFOLAvl04fuIMol3dnhcT1M5XXnoa0a5uWxd2r6FlshwQJKJUrVsj9c6Q5YQRJ34xhIIQjRjjoqgl3IYPPvwENdUb0VBfh86ubhw8oPckkoU7Gcs+rq5cteTyGZiVphR3E73sINJifWEhKd3lNC4AdoYa0VBfh7NftCKgFKGsNCUS2C0ojLurfr8PP//bv7EMZyQBIp+QUEDiBIVWlJam2qiqc0gmlyN285auClsmYQEk/FntQLtFtQkV9Xpvq6rWorOrG19GOtHZ1S2psJU6r9NS5U6heySrxOfzFSAQ8C4aWGF3vV7aC6RCAf1+n+1xJqdmsLCQNM314DUE637dz2yRbaGHqij6/T5pqFIuxiKzBTmN9WWlJZhNqHj+mWZHGz2iV4QZtCkzMTmddfvMLPm82HepRHU+kRVq8EpLuA0j8THdxhAVRnj7zRdx/MQZxG7ewqP79VXBrHL/kJBm9R2Zxy8JqWZeRcb5nMS1C61XkFDnUFe7FZOTM+gfGNLyk8mQ2W65ykfEMAzzQyUrIgztst4eueNpx9MOcUKlRYvf78PBA01ZPY8VYkIzN0aMmTeMGYpSiD1NIXRGu9N2Qp1A3gqN9XUIVpTjUPNeRDqiUiFGLOUNmIdsGSdj0fuEdm6Mu2aRjqjjnDBWMfJ0LDNXW2PImpmbttH7JJ/lcM0Wp1TxygiFIxnbaOa11dd/3ZHRSYsNRSmU3iercCTapXzumcdwofUKAPMFhdXzWoq7nbTonpiYhnK3EkZjQx1KVyxHWWkJ+vqvI1ixEgl1TssFparzOPtFKxYWkrodXhJmnJJJefh8Eawox8EDTfjs7EVNHJDllMiFJ+T9wOn15pJ8n2+pI3ormonTsvH0QdjRF3MQUZhxz9VraaGo5y+0p/UJKgtuZSuQh0VLuM3Uy9ZKDJZ9TuFIRu8Ns3CkSEdUJ2DnEtE7yWyjQCZgyESGrzo6kUjMoXrzBtNQqvUP/zUWFpLo7OpO+5tZQnSr78g2EUmANLNbrObc+Og4Jian8fLRp9Bz9RomJ2ewZfN6adLkfFSoYhiGYVIs+epIRndfYyhPvqBM+Icfd1dFwugN44TNm9ZrxoCbfCVickzRKKP4djOPGHGXym5RSEZWNjEzqo1YJbajdtt5J5gJH7moAEDiJACdcSRLFAzIDTS6HlFw7B+4jpH4GA4179WENLNkfoR6N4TBK2KfzATyBjBz45+YmIbf78traAOJLbGbt5BMLsLv92l5UwKBIozEx9A/cB0LC0ktbIHyw3gVHoyhRNlYnOTy3pJQSju3CwtJIQGx9Xm9YnWPqN8byUZOGMDueuVjhN0zJY8hO6+ATEK4rPByP52STC7mZANGxOixYrczTwtTM+j9npicRkKdS3uuTvKaZVqgQJyzD+xLeVLs3hXCiaPyCwAACRtJREFUydNhbawhUfeJQ/t01z8wOOQq9JbCt41ettVbNmAkPiYVC2RVGY3hSHQNtdtq7o2P8TFEOqI41LwXPl8BJqdmsuqdYof4XOyEOCvP6Ud2NGrhU2YV/gDg2ad/CVWdt+xvXsk0XDpYUY5fv/FCFlvEMAzDZIOsiDDk7mqVL8HrcROJOdweuZMWNy/ipERupkxOzXjOEl+9ZQNuxIYxOZndRYqImMzWzGOkJdymW0gkk4tYSCZztuB1Go5k5ZUiiipOFk9mSQudlPrOBSSAvfbm+5oA1nP1GgJKUVr4k3FX0Zi75ea3KQOvat0a9PVfR6QjiqqqtZhNqNKcBiITE9N524m0ggQPMQcLQeOImLPCbEEaiw2nGaYBh+EeRkgs6/m6FyPxMa36EXDv3TW2izAuqGXtkkG5aG7Ehj2VuZXh5t5aLUD7+q+bnmPzpvX46MQ7WgUgu/NmgtU9opA64/POZk4YQH69gDxUxe6Z9vVfdzRHkmcWJVzOFl7upxPovctlklpVnYPf54PPV5DVROpmeXrofTGDKqVlEmYjCoZiiJiiFGJnqFGbK83CUkSPVyeQl+35C+26sKTNm9ZjYmJaVz3t5re3Up5/krwjxk0aMUcJvSPBu3m2LrRe0RJK73EYxp0JZDNa2YsPGtmqdMkwDMMsLVyLMJGOKCanZnQT8YXWK7g9cgdHDu/XDHAqL+w0tlkGiQTrH/5rnL/QDp+vAKsrV6V9Lxc5YYy7D5mEDIheBLGbw1nNAwHcEyrsEsQd2LcLp06f01yd46NjSCYXcza5Ow1HMkMUIR4JNaQZj7nG6CbuFZmHzpHD+20FETKEXz76lO67Pl+q0s6fLrYjoc7ZVoICUousqnVrEL2b68IKWd/MVjy4WL797BetOsFQrCxDn9Vu34qer3t1FZOoyoPs2AGlyJMYUFZWgtlZFbOzqi7PDpWiHbrxb6ip3qi1i6oqdUa7se6hNVpJZjc5UShU0ehhER8d1+0iO8XtvaXziyEKVC1GJNIR1ZXBNpbqBqBVhTKed2BwCH391z2/P7I2iqFgXkQDO5xcL3n/GIUSWnAan2mkI6qVQbbrl+Q92dv3DUpXLNeN6S3htrSqWW7Ixf0kcUesJJZtxJDLbIow6x5ag9WVq9Ly2ZFNYwZVUPOygSGGLFLeNiObN63HkcP7TTeYnIQhyVj30BqUlZakhSWFdjSgdvtWHD9xRjvnzlCjbV+Nj47j9sgdPHEo1a9FoZI8euj6srlBZ8bk1AxmE+oDmSTajImJaVQGVyI+Oma74SjzFs5mmKjotZwL72GGYZgfEp48YYwigrEMLZDaHSsOKDh+4ozngZpEggP7dqHn6rW0BY6ZB4XXfB/GJGlOk7W6deW2qo4kPbYkWSKdc2JyGg31dbYlK4F0T4u+/uu6hUU2oEVXpm7agH7hGKwox9/vfsQ2yXA2ISEu0101WYiUaOiaGUhWIUDBinI8ur9JC1WyWvio6rzWT4IV5abnc1KiOhsEK8px7Hev4tTpczqjcXXlKhz73au6a1GUQhx+fB9OfhzWYvKLixWtUpaIKEK8+sYxV0YiiSrGhRUJO7Ozqq4fiO2ia1hduQr/8FwzPm9pdX0fxHwDmeSxcHNvxdwn4jUcPLBbl7Sxob4Op06f042Nxn67edN6vP/eazh+4ozuvJnmvAlWlOP5Z5t197m4WMHzzzyGP128kpNEsk6uVywlTiXbDzXv1eaelnCb7pnK5kgrDjXvRfWWDfjs7EXdvJepGJqr+9lQX4fPWy5mzatLhJKR5sKTwucrwHPPPIZTp8/pvDSPHN6P0hXLTUXVvv7rtqV+ZZD3i9lzJI9NEt/pnRLzwdB4/uh+63Hf7Hp3N4XSnpUsJJhymVm9wzTeyFCUQjz/TLMWqpSPxXosNuxoU8ILMs9e4F5+nFxAHlmNDXWWufOclKjOBpevRFAZXKmNcZevRJZ8TjOGYZilimsRxqm7t6IU4tmnf4mWcJtnIUYUCUI7GjTj2KwktQwynp1MFHYJYkWMSWwpkaLdBGhsh1EwklUbWF25SrfjparzOHk6jEf3NyEWG8YHH37i2jgXd7BEnHjpGHdLxbAxii3vuXrNcVuMkEG4sJDUCS50fVQNSVY6067tZjlhCHGxpd5dkHjZVRPbIlsAi98z689UlUjsD+LuZLQrlSja7rn3XL0Gv8+XE8OUMN57O08fp+U4AfMQM9l1m33XDjPh1qqdZucSP7MThJ3cB7Mx10ubjZiNeWLSRqfHyzTZtdnvze6z02t0i9PrtZoLjQnD3f4ecDcfyTC7b7m4n8GKcqyuXOU4Ab0dYg6RaFe3NHzTSRiy6Dnr9n3ZvGm99PlQSXY78VuG2TMXCw4YNxl+/9tXdHZBTfVGyxwfNB+b5WAh4STSEdWEJyvBOtIRNZ2jaB4Wx/+a6o1a+yn01kuRASck1Dl89913UJQirVLUnqaQ7rrNxBO32InjYluI/7+9e8dpGAgCALrQcYhAHCSQOAMV0CHugZQT5BqIEqWlQXSUUNHykaBH4iKhQBuMEyf+R4H3yshW1rFjr2dnZ/NWMUrXcMvbJoSfbNg2s4iydbSKZEABUF/rhXnjA7pKxHyQbIck+Xn4lHm5aFuRTnYVRY7x5vYunJ2ehKTfC0m/Fw4O9sLF5bhUbZz9vUHYHezMjFpWKcwbs3WKBII+Pj5npuVE6UykvHakazScD0e/OkZNn5Oqo50hFL8+imyXdz3k7Zf+PD2S1tQI2bzvbev/AKyH46PDcHE5Di+v76WzdbJZqDEYsej+Vbcwb1X3D4/TOl11xSyfZVNGlvULsi/SW1vfU1YXKTqgVmS7vPt/3r5VazfNG6SKQZ+X1/e5wbo6hXmXtTd73aYDUCHUXx3p6fmt0SyiecdR5lzE4s7nw9G03QBUszGZTCarbgT/W7ojUzajJ3Y+m56fvKpCvgDrKt7L/8py5VlX4+uZlYQAAMoShAEAAADoQOvTkQBWZVmdoKZWfWKx7HSJrL+aOdEWvycAwPqSCQMAAADQgc1VNwAAAADgPxCEAQAAAOiAIAwAAABABwRhAAAAADogCAMAAADQAUEYAAAAgA4IwgAAAAB04Av/L4QokR0JRwAAAABJRU5ErkJggg==;" vertex="1" parent="1">
          <mxGeometry x="-1960" y="260" width="1121" height="242" as="geometry" />
        </mxCell>
        <mxCell id="zdTmi9DSN5Jlk_BLVy8j-3" value="未理解" style="rounded=1;whiteSpace=wrap;html=1;strokeWidth=2;fillWeight=4;hachureGap=8;hachureAngle=45;fillColor=#d5e8d4;sketch=1;strokeColor=#82b366;" vertex="1" parent="1">
          <mxGeometry x="-1950" y="150" width="250" height="100" as="geometry" />
        </mxCell>
      </root>
    </mxGraphModel>
  </diagram>
</mxfile>
